<?xml version="1.0" standalone="no"?>
<!DOCTYPE svg PUBLIC "-//W3C//DTD SVG 1.1//EN" "http://www.w3.org/Graphics/SVG/1.1/DTD/svg11.dtd" >
<svg xmlns="http://www.w3.org/2000/svg" xmlns:xlink="http://www.w3.org/1999/xlink" version="1.1">
<metadata>
Created by FontForge 20200427 at Sun May 15 00:36:45 2016
 By www
Copyright (c) 2013 by P22 type foundry, Hamilton Wood Type Foundry. All rights reserved.
</metadata>
<defs>
<font id="HWTRepublicGothicW00-Ou" horiz-adv-x="554" >
  <font-face 
    font-family="HWTRepublicGothicW00-Ou"
    font-weight="400"
    font-stretch="normal"
    units-per-em="1000"
    panose-1="2 0 0 0 0 0 0 0 0 0"
    ascent="800"
    descent="-200"
    x-height="566"
    cap-height="750"
    bbox="-128 -224 1166 995"
    underline-thickness="50"
    underline-position="-125"
    unicode-range="U+0020-FB04"
  />
<missing-glyph horiz-adv-x="500" 
 />
    <glyph glyph-name="uniFB00" unicode="ff" horiz-adv-x="578" 
d="M371 697q-18 16 -46.5 24t-54.5 8q-38 0 -78 -15.5t-64 -51.5t-24 -84v-51h-49v-68h49v-424h76v424h151v-424h76v424h91v68h-91v31q0 55 25.5 80t63.5 25q29 0 59 -15q7 18 7 32l-1 10q-2 11 -15.5 20.5t-37.5 14.5t-41 5q-26 0 -52 -8t-44 -25zM369 742q42 23 101 23
q25 0 57.5 -8t48.5 -20.5t21.5 -24t5.5 -21.5q0 -20 -10.5 -48.5t-24.5 -51.5q-8 10 -28.5 21t-43.5 11q-20 0 -33.5 -13.5t-15.5 -42.5h91v-148h-91v-424h-156v424h-71v-424h-156v424h-49v148h49v11q0 34 12.5 68.5t40 60.5t68 42t88.5 16q8 0 35.5 -4t60.5 -19zM296 628
h-7q-29 0 -48 -15t-21 -46h71v11q0 31 5 50zM344 655q-13 -30 -13 -77v-51h-151v31q0 37 15 60.5t40.5 36t53.5 12.5q33 0 55 -12z" />
    <glyph glyph-name="uniFB01" unicode="fi" horiz-adv-x="480" 
d="M421 681q0 -15 -12 -41t-27 -49q-16 15 -42.5 26t-50.5 11q-29 0 -48 -15t-21 -46h235v-572h-164v424h-71v-424h-156v424h-49v148h49v11q0 34 12.5 68.5t40 60.5t68 42t88.5 16q22 0 55.5 -8t63 -28.5t29.5 -47.5zM289 667q18 0 34.5 -4.5t45.5 -23.5q10 25 10 38
q0 24 -37.5 38t-71.5 14q-38 0 -78 -15.5t-64 -51.5t-24 -84v-51h-49v-68h49v-424h76v424h151v-424h84v492h-235v31q0 37 15 60.5t40.5 36t53.5 12.5z" />
    <glyph glyph-name="uniFB02" unicode="fl" horiz-adv-x="529" 
d="M384 629v-594h85v676h-120q-43 18 -79 18q-38 0 -78 -15.5t-64 -51.5t-24 -84v-51h-49v-68h49v-424h76v424h91v68h-91v31q0 37 15 60.5t40.5 36t53.5 12.5q30 0 55 -11t40 -27zM349 -5v616q-22 18 -59 18q-29 0 -48.5 -15.5t-21.5 -46.5h91v-148h-91v-424h-156v424h-49
v148h49v11q0 34 12.5 68.5t40 60.5t68 42t88.5 16q36 0 76 -15h160v-755h-160z" />
    <glyph glyph-name="uniFB03" unicode="ffi" horiz-adv-x="707" 
d="M299 627l-11 2q-21 0 -37 -8t-23 -23.5t-8 -30.5h71v11q0 25 8 49zM349 652q-18 -33 -18 -74v-51h-151v31q0 37 15 60.5t40.5 36t53.5 12.5q16 0 33 -4.5t27 -10.5zM378 691q-15 18 -46 28t-62 10q-38 0 -78 -15.5t-64 -51.5t-24 -84v-51h-49v-68h49v-424h76v424h151
v-424h76v424h151v-424h84v492h-235v31q0 37 15 60.5t40.5 36t53.5 12.5q18 0 34.5 -4.5t45.5 -23.5q10 25 10 38q0 24 -37.5 38t-71.5 14q-74 0 -119 -38zM384 737q24 13 56 20.5t60 7.5q22 0 55.5 -8t63 -28.5t29.5 -47.5q0 -15 -12 -41t-27 -49q-16 15 -42.5 26t-50.5 11
q-29 0 -48 -15t-21 -46h235v-572h-164v424h-71v-424h-156v424h-71v-424h-156v424h-49v148h49v11q0 34 12.5 68.5t40 60.5t68 42t88.5 16q26 0 58.5 -7.5t52.5 -20.5z" />
    <glyph glyph-name="uniFB04" unicode="ffl" horiz-adv-x="756" 
d="M299 627l-11 2q-21 0 -37 -8t-23 -23.5t-8 -30.5h71v11q0 25 8 49zM349 652q-9 -17 -13.5 -43.5t-4.5 -81.5h-151v31q0 37 15 60.5t40.5 36t53.5 12.5q16 0 33 -4.5t27 -10.5zM384 737q24 13 56 20.5t60 7.5q39 0 76 -14h160v-756h-160v616q-22 18 -59 18
q-29 0 -48.5 -15.5t-21.5 -46.5h91v-148h-91v-424h-156v424h-71v-424h-156v424h-49v148h49v11q0 34 12.5 68.5t40 60.5t68 42t88.5 16q26 0 58.5 -7.5t52.5 -20.5zM378 691q-15 18 -46 28t-62 10q-38 0 -78 -15.5t-64 -51.5t-24 -84v-51h-49v-68h49v-424h76v424h151v-424h76
v424h91v68h-91v31q0 37 15 60.5t40.5 36t53.5 12.5q30 0 55 -11t40 -27v-594h85v676h-120q-43 18 -79 18q-74 0 -119 -38z" />
    <glyph glyph-name="t_t.liga" unicode="tt" horiz-adv-x="512" 
d="M171 453h171v-418h70v418h45v80h-45v177h-70v-177h-171v177h-70v-177h-46v-80h46v-418h70v418zM302 413h-91v-418h-150v418h-46v160h46v177h150v-177h91v177h150v-177h45v-160h-45v-418h-150v418z" />
    <glyph glyph-name="f_t.liga" unicode="ft" horiz-adv-x="539" 
d="M329 567v45q-15 16 -40 16q-29 0 -48 -15t-21 -46h109zM369 634v-107h-189v31q0 37 15 60.5t40.5 36t53.5 12.5q21 0 42.5 -7.5t37.5 -25.5zM439 710h-90q-15 7 -38 13t-41 6q-38 0 -78 -15.5t-64 -51.5t-24 -84v-51h-49v-68h49v-424h76v424h189v-424h70v423h45v69h-45
v183zM349 750h130v-183h45v-149h-45v-423h-150v424h-109v-424h-156v424h-49v148h49v11q0 34 12.5 68.5t40 60.5t68 42t88.5 16q8 0 30 -3t46 -12z" />
    <glyph glyph-name=".notdef" horiz-adv-x="500" 
 />
    <glyph glyph-name=".null" horiz-adv-x="0" 
 />
    <glyph glyph-name="nonmarkingreturn" horiz-adv-x="333" 
 />
    <glyph glyph-name="space" unicode=" " horiz-adv-x="250" 
 />
    <glyph glyph-name="exclam" unicode="!" horiz-adv-x="287" 
d="M44 12l38 144h124l35 -143q-14 -13 -42.5 -21t-53.5 -8q-23 0 -51 7.5t-50 20.5zM112 116l-21 -85q24 -9 54 -9q28 0 52 8l-22 86h-63zM92 215q-57 498 -57 525q49 25 108 25q57 0 109 -21l-56 -529h-104zM128 255h32l49 460q-31 12 -63 12q-29 0 -70 -12z" />
    <glyph glyph-name="quotedbl" unicode="&#x22;" horiz-adv-x="409" 
d="M55 515l-30 233q46 28 85 28q37 0 83 -25l-28 -236h-110zM62 728l24 -177h49l19 178q-22 10 -44 10q-21 0 -48 -11zM246 515l-30 233q22 13 45.5 20.5t40.5 7.5q36 0 82 -25l-28 -236h-110zM254 728l24 -177h49l19 178q-20 10 -44 10q-23 0 -48 -11z" />
    <glyph glyph-name="numbersign" unicode="#" horiz-adv-x="722" 
d="M173 241l-115 -246h-31l100 213h-127l44 96h129l66 139h-128l45 96h129l100 211h30l-114 -244h-126l-15 -30h125l-97 -205h-125l-14 -30h124zM594 539h127l-44 -96h-129l-66 -139h128l-45 -96h-129l-101 -213h-30l116 246h125l15 30h-126l99 205h124l14 30h-123l114 244
h31zM323 476h173l-97 -205h-175zM384 241l-115 -246h-30l100 213h-115l-103 -213h-29l118 246h174zM338 506l114 244h30l-100 -211h115l100 211h29l-114 -244h-174zM451 443h-116l-65 -139h115z" />
    <glyph glyph-name="dollar" unicode="$" horiz-adv-x="347" 
d="M216 131v-136h-20v132l-34 -3v-129h-20v129q-32 2 -60.5 11.5t-43.5 24t-19 29.5q0 11 10.5 37.5t24.5 52.5q53 -64 114 -64q20 0 37 11.5t17 26.5q0 8 -9.5 22t-66.5 50q-61 39 -86 64.5t-33.5 48.5t-8.5 42q0 49 35.5 88.5t88.5 48.5v133h19v-130l21 1l14 -1v130h20
v-132q23 -4 50 -15.5t41.5 -26t14.5 -28.5q0 -13 -14.5 -36.5t-25.5 -32.5q-17 22 -46.5 36.5t-54.5 14.5q-27 0 -48 -10.5t-21 -29.5q0 -12 12.5 -31.5t83.5 -65.5t96.5 -77.5t25.5 -60.5q0 -23 -11.5 -49t-39.5 -46t-63 -29zM68 225l-4 2q-5 0 -9.5 -13.5t-4.5 -22.5
q0 -6 12 -15.5t40 -18.5t56 -9h9q35 2 67 16.5t50 36.5t18 51q0 49 -109 121q-79 52 -93 77t-14 41q0 14 10.5 29.5t35.5 25.5t49 10t52 -9.5t44 -27.5q6 5 11 15.5t5 16.5q0 7 -18.5 19t-44.5 18t-48 6q-25 0 -56.5 -10.5t-56.5 -38t-25 -64.5q0 -30 24 -60t92 -74
q92 -58 92 -97q0 -12 -9.5 -26t-32 -24.5t-47.5 -10.5q-54 0 -95 36z" />
    <glyph glyph-name="percent" unicode="%" horiz-adv-x="636" 
d="M449 750h104l-345 -754h-104l308 673q-31 -11 -73 -11q-31 0 -46 3q16 -42 16 -95q0 -88 -39 -138t-102 -50q-62 0 -101.5 50t-39.5 138q0 87 39.5 136.5t101.5 49.5q19 0 42 -7q75 -14 124 -14q11 0 27 1t35 4.5t53 13.5zM348 184q0 87 39.5 136.5t101.5 49.5
q63 0 102 -49t39 -137t-39 -138t-102 -50q-62 0 -101.5 50t-39.5 138zM65 566q0 -75 27 -117.5t76 -42.5q50 0 76.5 42.5t26.5 117.5t-26.5 117.5t-76.5 42.5q-49 0 -76 -43t-27 -117zM386 184q0 -75 27 -117.5t76 -42.5q50 0 76.5 42.5t26.5 117.5t-26.5 117.5t-76.5 42.5
q-49 0 -76 -43t-27 -117zM562 182q0 -136 -73 -136q-37 0 -55 36.5t-18 102.5q0 63 18 99t55 36q73 0 73 -138zM241 564q0 -136 -73 -136q-37 0 -55 36.5t-18 102.5q0 63 18 99t55 36q73 0 73 -138zM151 21h33l322 704h-33zM133 564q0 -111 35 -111t35 114q0 109 -35 109
t-35 -112zM454 182q0 -111 35 -111t35 114q0 109 -35 109t-35 -112zM436 723q-1 0 -18.5 -5.5t-38.5 -8.5t-42 -3q-39 0 -72 9q9 -17 19 -24q25 -8 54 -8q86 0 98 40z" />
    <glyph glyph-name="ampersand" unicode="&#x26;" horiz-adv-x="866" 
d="M819 512l-39 -153q-17 8 -34 8q-16 0 -33 -10.5t-27.5 -35t-10.5 -48.5q0 -28 11.5 -52t29.5 -34t35 -10q14 0 58 12l31 -117q-4 -20 -18.5 -39t-39.5 -29t-47 -10q-54 0 -95 24t-81 74q-28 -25 -69.5 -48.5t-85.5 -34t-79 -10.5q-52 0 -104.5 14.5t-95.5 43.5t-69 74
t-26 102q0 61 46 134t117 114q-27 11 -46 29t-19 57q0 23 10.5 52t41 64t78 59t96.5 33q30 5 57 5q31 0 66 -7.5t66.5 -24.5t53.5 -44.5t22 -61.5q0 -18 -10.5 -42.5t-36.5 -50.5t-57 -40q48 -17 75 -36q80 72 157 72q26 0 44 -7t28 -26zM269 484l1 -10
q-62 -26 -105.5 -64.5t-69 -85t-25.5 -91.5q0 -35 15 -70t49.5 -62.5t84 -44.5t106.5 -17q52 0 104 23.5t85 49.5t48 43q48 -64 86.5 -92.5t86.5 -28.5q19 0 38.5 9.5t24.5 29.5l-17 68l-30 -4q-53 0 -84.5 40.5t-31.5 95.5q0 24 10 54t36.5 54t65.5 24h5l16 87v5q0 9 -7 14
t-27 5q-29 0 -68.5 -26.5t-67.5 -60.5q-92 57 -158 65l-2 15q28 9 61 28t56.5 48.5t23.5 56.5q0 19 -17 42t-61.5 41t-94.5 18q-46 0 -104.5 -20t-96 -62t-37.5 -94q0 -56 101 -83zM186 256q0 33 21.5 67.5t60.5 53.5t79 19q48 0 84.5 -16.5t54.5 -43.5t18 -62
q0 -20 -8 -43.5t-28.5 -46t-54.5 -39t-81 -16.5q-52 0 -86.5 20.5t-47 51t-12.5 55.5zM226 256q0 -27 15.5 -48.5t41 -30t49.5 -8.5q58 0 95 31.5t37 73.5q0 37 -33 59.5t-84 22.5q-23 0 -51.5 -10.5t-49 -36t-20.5 -53.5zM274 598q0 17 10 38t35 36.5t54 15.5q19 0 42.5 -8
t40 -29t16.5 -47q0 -17 -10 -37.5t-34.5 -36t-54.5 -15.5q-42 0 -70.5 23.5t-28.5 59.5zM314 598q0 -18 17 -30.5t42 -12.5q24 0 41.5 15t17.5 34q0 18 -17.5 31t-41.5 13t-41.5 -15t-17.5 -35z" />
    <glyph glyph-name="quotesingle" unicode="'" horiz-adv-x="218" 
d="M55 515l-30 233q46 28 85 28q37 0 83 -25l-28 -236h-110zM62 728l24 -177h49l19 178q-22 10 -44 10q-21 0 -48 -11z" />
    <glyph glyph-name="parenleft" unicode="(" horiz-adv-x="317" 
d="M133 371q0 90 36.5 193t104.5 196l-18 15q-92 -76 -144 -182t-52 -221t52 -221t144 -182l18 15q-68 93 -104.5 195t-36.5 192zM173 371q0 -64 21 -139.5t57 -141t71 -112.5l-64 -52q-117 81 -177.5 197.5t-60.5 248.5t60.5 248.5t177.5 197.5l64 -52q-35 -47 -71 -113
t-57 -141.5t-21 -140.5z" />
    <glyph glyph-name="parenright" unicode=")" horiz-adv-x="317" 
d="M184 371q0 -90 -36.5 -192t-104.5 -195l18 -15q92 76 144 182t52 221t-52 221t-144 182l-18 -15q68 -93 104.5 -196t36.5 -193zM144 371q0 65 -21 140.5t-57 141.5t-71 113l64 52q117 -81 177.5 -197.5t60.5 -248.5t-60.5 -248.5t-177.5 -197.5l-64 52q35 47 71 112.5
t57 141t21 139.5z" />
    <glyph glyph-name="asterisk" unicode="*" horiz-adv-x="336" 
d="M150 603l8 -5l-14 -97q11 -8 23 -8q11 0 23 7l-11 98l7 5l79 -58q11 4 17 15.5t6 23.5l-92 36v9l91 39q0 23 -24 39l-77 -61l-7 4l11 98q-10 6 -21 6q-9 0 -25 -7l14 -96l-8 -4l-77 60q-20 -14 -23 -39l89 -39v-9l-90 -36q3 -28 22 -39zM20 603l74 22l-74 23
q2 30 14 52.5t40 38.5l57 -53l-16 77q30 17 53 17q20 0 52 -15l-17 -80l59 54q26 -15 39 -36.5t15 -54.5l-75 -23l75 -22q-2 -39 -16 -59.5t-34 -33.5l-63 55l17 -82q-30 -16 -52 -16q-23 0 -53 17l17 80l-61 -54q-19 12 -33.5 31.5t-17.5 61.5z" />
    <glyph glyph-name="plus" unicode="+" horiz-adv-x="447" 
d="M292 179h-137v125h-125v137h125v125h137v-125h125v-137h-125v-125zM195 401h-125v-57h125v-125h57v125h125v57h-125v125h-57v-125z" />
    <glyph glyph-name="comma" unicode="," horiz-adv-x="264" 
d="M239 11l-147 -142h-9l-15 43l31 74q-41 5 -74 25l41 167h136zM140 19l-30 -77l3 -7l79 95l-24 111h-71l-26 -110q28 -11 69 -12z" />
    <glyph glyph-name="hyphen" unicode="-" horiz-adv-x="267" 
d="M30 304v137h207v-137h-207zM70 401v-57h127v57h-127z" />
    <glyph glyph-name="period" unicode="." horiz-adv-x="264" 
d="M25 8l41 170h136l37 -170q-19 -15 -46.5 -23.5t-53.5 -8.5q-31 1 -56 7.5t-58 24.5zM97 138l-26 -110q27 -11 68 -12q27 0 53 11l-24 111h-71z" />
    <glyph glyph-name="slash" unicode="/" horiz-adv-x="490" 
d="M480 750v-38l-338 -717h-132v38l339 717h131zM374 710l-320 -675h63l320 675h-63z" />
    <glyph glyph-name="zero" unicode="0" horiz-adv-x="659" 
d="M227 377q0 -39 9.5 -88.5t35.5 -85.5t57 -36q21 0 44.5 20.5t41 73t17.5 116.5q0 16 -4 55.5t-20 79t-37 58t-42 18.5q-26 0 -50.5 -27.5t-38 -79t-13.5 -104.5zM187 377q0 37 7.5 79.5t27.5 85t49 64.5t58 22q36 0 70.5 -33t53.5 -94t19 -124q0 -37 -7.5 -79
t-27.5 -84.5t-49.5 -64.5t-58.5 -22q-21 0 -45 13t-45.5 44t-36.5 80.5t-15 112.5zM26 374q0 79 23.5 151t65.5 126.5t97.5 85t116.5 30.5t116.5 -30.5t97.5 -85t65.5 -126.5t23.5 -151t-23.5 -151t-65.5 -126t-97.5 -84.5t-116.5 -30.5t-116.5 30.5t-97.5 84.5t-65.5 126
t-23.5 151zM66 374q0 -71 20.5 -135.5t57 -113t84.5 -76t101 -27.5t101 27.5t84.5 76t57 113t20.5 135.5t-20.5 136t-57 113.5t-84.5 76t-101 27.5t-101 -27.5t-84.5 -76t-57 -113.5t-20.5 -136z" />
    <glyph glyph-name="one" unicode="1" horiz-adv-x="366" 
d="M55 749q17 -8 42 -15.5t44 -7.5q14 0 30 6t29 18h122v-755h-193v552q-49 9 -79.5 27.5t-38.5 36.5l-1 12q0 36 17 81t28 45zM141 687q-12 0 -25 3t-27 7t-17 5q-9 -13 -13.5 -30.5t-7.5 -44.5q12 -16 43.5 -27.5t74.5 -15.5v-549h113v675h-64q-15 -11 -36.5 -17t-40.5 -6
z" />
    <glyph glyph-name="two" unicode="2" horiz-adv-x="674" 
d="M592 223l43 -112q4 -8 4 -22t-15 -35q-30 -28 -76.5 -46.5t-121.5 -18.5q-35 0 -83 8.5t-86 19.5l-14 -22h-160q-41 192 -45 238v6q0 21 12 40.5t27 30.5q261 157 339 214q9 8 9 14q0 17 -41.5 31.5t-91.5 14.5q-54 0 -103 -20.5t-85 -51.5l-70 149q48 45 121.5 72
t153.5 27q64 0 115.5 -14t87.5 -33.5t62 -44.5t40.5 -54.5t14.5 -60.5q0 -36 -20 -73q-14 -26 -49.5 -56.5t-141.5 -99.5q-15 -10 -60.5 -38.5t-77 -51t-57.5 -43.5q44 -16 90 -25t82 -9q55 0 107.5 19t89.5 47zM165 170l-7 21q28 22 61.5 47.5t67.5 48.5t69.5 45.5
t39.5 25.5q98 63 131.5 91.5t45.5 50.5q16 29 16 53q0 25 -14.5 53t-49.5 53t-90 43t-126 18q-67 0 -127.5 -19t-99.5 -51l37 -75q73 49 173 49q36 0 78.5 -8t70.5 -29.5t28 -47.5q0 -22 -21 -40q-60 -49 -182.5 -120.5t-168.5 -103.5q-19 -13 -19 -36v-5q5 -40 38 -199h104
l19 32q37 -15 90 -26.5t97 -11.5q108 0 172 56l1 4l-2 8l-24 63q-34 -19 -80.5 -31t-97.5 -12q-100 0 -230 53z" />
    <glyph glyph-name="three" unicode="3" horiz-adv-x="659" 
d="M92 524l-58 117q-7 13 -7 23q0 6 3 14.5t10 14.5q44 35 111 56t140 21q65 0 124 -16t103.5 -45t69.5 -67t25 -79q0 -42 -26 -81.5t-71 -67.5q49 -34 78.5 -82.5t29.5 -100.5q0 -36 -14.5 -71.5t-44.5 -69.5t-82 -60.5t-99.5 -34t-77.5 -7.5q-38 0 -87 10t-98 36.5
t-81 62.5q-5 6 -5 20q0 9 5 21l57 114q42 -41 94.5 -66t101.5 -25q26 0 57 10.5t53.5 35.5t22.5 50q0 43 -40.5 63t-97.5 20q-32 0 -88 -8v160q42 -6 68 -6q31 0 65 4.5t56.5 17.5t22.5 30q0 13 -12 26.5t-43 22t-71 8.5h-18q-37 0 -84 -16t-92 -55zM110 186l-33 -63l-1 -4
l2 -4q38 -40 98.5 -63.5t129.5 -23.5q56 0 107 15.5t89.5 43.5t60 65.5t21.5 78.5q0 49 -42 98.5t-111 86.5q47 23 82 51t47.5 53t12.5 43q0 33 -22 64t-61 54t-90.5 36t-108.5 13q-53 0 -109.5 -14t-92.5 -35q-3 -2 -9.5 -9t-6.5 -19l2 -6l30 -60q67 48 181 48
q70 0 118 -25t48 -72q0 -42 -50 -67t-134 -25q-13 0 -28 3v-71l48 2q32 0 74 -8.5t73 -37t31 -77.5q0 -17 -9 -39t-33 -46t-60 -37.5t-71 -13.5q-48 0 -97 17.5t-86 47.5z" />
    <glyph glyph-name="four" unicode="4" horiz-adv-x="750" 
d="M704 326l27 -102q9 -36 9 -39q0 -43 -130 -70v-120h-182v107q-107 3 -211 31t-184 77q-12 18 -17.5 45.5t-5.5 53.5l3 46l398 395h199v-457q44 12 94 33zM693 214l-16 58q-49 -18 -107 -29v467h-143l-376 -373l-1 -28q0 -47 13 -69q37 -23 97 -46t142.5 -37t165.5 -15
v-107h105v118l23 1q104 20 104 31zM158 313l310 307v-386q-179 0 -310 79zM428 524l-205 -203q90 -44 205 -47v250z" />
    <glyph glyph-name="five" unicode="5" horiz-adv-x="652" 
d="M76 756h175v-20q38 15 86.5 24t96.5 9q36 0 74.5 -7.5t70.5 -25.5q28 -16 28 -42l-1 -10q-8 -51 -25 -88l-10 -27q-29 17 -75 30t-89 13q-33 0 -75.5 -8t-80.5 -24v-78q39 9 67 9q63 0 118 -20t95.5 -55.5t62.5 -83t22 -100.5t-24.5 -101t-67.5 -84t-100.5 -56.5
t-119.5 -20.5q-31 0 -73.5 8t-92.5 27.5t-79 44t-29 42.5q0 15 6.5 42t45.5 100q33 -38 85 -62.5t94 -24.5q66 0 110 27.5t44 66.5q0 30 -28.5 53.5t-66.5 33t-69 9.5q-32 0 -67.5 -10.5t-62.5 -26.5l-45 50v386zM211 716h-95v-331l18 -24q11 8 33 17.5t51 13.5t46 4
q14 0 48.5 -5t71 -25t54 -48.5t17.5 -56.5q0 -35 -24.5 -67t-71 -49.5t-98.5 -17.5q-37 0 -83 18t-81 47q-24 -45 -24 -74q0 -13 27 -32t89 -37.5t115 -18.5q54 0 104 17t88 48t59 71.5t21 85.5q0 33 -11 65t-35 62.5t-60 51.5t-74 30.5t-78 9.5q-33 0 -107 -21v156
q106 46 196 46q77 0 143 -28q16 37 16 60q0 4 -2 10t-5 8q-24 13 -58.5 20t-66.5 7q-33 0 -86 -6.5t-137 -35.5v29z" />
    <glyph glyph-name="six" unicode="6" horiz-adv-x="653" 
d="M556 527q-74 74 -152 74q-23 0 -54 -12t-61 -44t-46 -75q21 14 56.5 20.5t62.5 6.5q50 0 96.5 -14.5t83.5 -45.5t59 -79.5t22 -112.5q0 -37 -14.5 -79t-44 -75t-63 -54t-73 -33t-80.5 -14h-11q-59 0 -115.5 27.5t-101 80.5t-70.5 129.5t-26 167.5q0 77 30.5 147
t82.5 121.5t118 80.5t134 29q56 0 110.5 -20.5t98.5 -61.5q17 -16 17 -39q0 -11 -13.5 -42.5t-45.5 -82.5zM193 403l-6 2q25 111 84.5 173.5t132.5 62.5q36 0 73 -14t66 -40q32 53 32 65q-1 6 -4 9q-78 72 -182 72q-60 0 -119 -25.5t-105.5 -72t-73.5 -109t-27 -131.5
q0 -82 22.5 -151t61.5 -116.5t88.5 -72.5t100.5 -25h10q35 2 74 14.5t79.5 42.5t61.5 73t21 85q0 40 -13.5 79.5t-44 69t-74.5 47t-98 17.5q-34 0 -76.5 -14.5t-83.5 -40.5zM203 251q0 34 22 60t52.5 36t55.5 10q39 0 71.5 -19t45.5 -45.5t13 -47.5t-13 -47.5t-45.5 -45
t-71.5 -18.5q-53 0 -91.5 35t-38.5 82zM243 251q0 -30 27 -53.5t63 -23.5q37 0 63.5 21t26.5 50q0 14 -9 31t-31.5 29t-49.5 12q-37 0 -63.5 -19t-26.5 -47z" />
    <glyph glyph-name="seven" unicode="7" horiz-adv-x="629" 
d="M28 524v229l48 -26q27 12 71.5 24.5t91.5 12.5q53 0 86 -12q68 -24 127 -24q33 0 66 11t52 25q21 -30 37.5 -65t16.5 -55q0 -18 -9 -30q-234 -296 -234 -566v-17l1 -36h-212q-6 41 -6 61q0 106 69 243.5t188 263.5q-4 0 -26.5 -4t-29.5 -4q-10 0 -29 2t-64 14
q-52 13 -79 13q-32 0 -54 -5.5t-62 -27.5t-49 -27zM70 703l-2 -113q71 34 125 34q29 0 89 -15q48 -14 83 -14q15 0 43.5 7.5t47 17.5t25.5 19q4 0 10 -14.5t6 -20.5q0 -11 -8 -20q-134 -143 -209.5 -282.5t-75.5 -245.5l1 -21h136v13q0 100 28 199.5t82 198.5t136 195v5
q0 6 -7.5 22.5t-26.5 42.5q-28 -13 -51 -18t-50 -5q-30 0 -68.5 7t-72.5 19q-30 10 -72 10t-82.5 -11.5t-62.5 -25.5z" />
    <glyph glyph-name="eight" unicode="8" horiz-adv-x="656" 
d="M328 -12q-29 0 -67.5 7t-77 26t-74.5 51t-59 78t-23 94q0 44 21.5 88t63.5 79q-26 29 -42.5 65.5t-16.5 72.5q0 44 21 84.5t58.5 71t87.5 47.5t104 17t104 -17t87.5 -47.5t58.5 -71t21 -84.5q0 -35 -15.5 -71t-41.5 -64q90 -73 90 -173q0 -48 -23 -94t-64 -82
t-96.5 -56.5t-116.5 -20.5zM328 28q53 0 101 17.5t83.5 47.5t55.5 68.5t20 79.5q0 85 -112 167q20 13 39 34.5t29.5 50.5t10.5 56q0 45 -30.5 88.5t-86.5 67.5t-114 24t-114 -24t-86.5 -67.5t-30.5 -88.5q0 -37 21.5 -76t60.5 -68q-108 -78 -108 -161q0 -40 20 -79.5
t55.5 -70t84 -48.5t101.5 -18zM243 539q0 -21 24 -36.5t58 -15.5t58.5 15.5t24.5 36.5t-24.5 37t-58.5 16t-58 -15.5t-24 -37.5zM203 539q0 18 12 39.5t42.5 37.5t67.5 16q51 0 87 -27.5t36 -65.5t-36 -65t-87 -27t-86.5 27t-35.5 65zM231 249q0 -24 16.5 -44t40 -28
t42.5 -8t42.5 8t40 28t16.5 44t-17 44.5t-40 28.5t-42 8t-42 -8t-40 -28.5t-17 -44.5zM191 249q0 50 40.5 85.5t98.5 35.5t98.5 -35.5t40.5 -85.5q0 -36 -23.5 -66t-56 -42t-59.5 -12t-59.5 12t-56 42t-23.5 66z" />
    <glyph glyph-name="nine" unicode="9" horiz-adv-x="652" 
d="M91 236q78 -78 155 -78q36 0 71 20.5t56.5 51.5t31.5 58q-34 -22 -120 -22q-50 0 -96.5 14.5t-83.5 45.5t-59 79.5t-22 112.5q0 37 14.5 79t44 75t63 54t73 33t80.5 14h11q59 0 115.5 -27.5t101 -80.5t70.5 -129.5t26 -167.5q0 -77 -30.5 -147t-82.5 -121.5t-118 -80.5
t-134 -29q-56 0 -110.5 20.5t-98.5 61.5q-17 16 -17 39q0 11 13.5 42.5t45.5 82.5zM455 355l6 -2q-25 -111 -83.5 -173t-131.5 -62q-35 0 -74 16t-68 42q-32 -53 -32 -65q1 -6 4 -9q78 -72 182 -72q60 0 119 25.5t105.5 72t73.5 109t27 131.5q0 82 -22.5 151t-61.5 116.5
t-88.5 72.5t-100.5 25h-10q-35 -2 -74 -14.5t-79.5 -42.5t-61.5 -73t-21 -85q0 -40 13.5 -79.5t44 -69t74.5 -47t98 -17.5q36 0 78.5 12.5t82.5 37.5zM444 512q0 -34 -22 -60t-52.5 -36t-55.5 -10q-39 0 -71.5 19t-45.5 45.5t-13 47.5t13 47.5t45.5 45t71.5 18.5
q53 0 91.5 -35t38.5 -82zM404 512q0 30 -27 53.5t-63 23.5q-37 0 -63.5 -21t-26.5 -50q0 -14 9 -31t31.5 -29t49.5 -12q37 0 63.5 19t26.5 47z" />
    <glyph glyph-name="colon" unicode=":" horiz-adv-x="264" 
d="M25 11l41 168h136l37 -168q-19 -15 -46.5 -23.5t-53.5 -8.5q-31 1 -56 7.5t-58 24.5zM41 287l31 177h115l29 -180q-48 -25 -86 -25q-41 0 -89 28zM97 141l-26 -110q27 -11 68 -12q27 0 53 11l-24 111h-71zM107 424l-22 -117q17 -8 45 -8q20 0 41 7l-18 118h-46z" />
    <glyph glyph-name="semicolon" unicode=";" horiz-adv-x="264" 
d="M239 11l-147 -142h-9l-15 43l31 74q-41 5 -74 25l41 168h136zM41 287l31 177h115l29 -180q-48 -25 -86 -25q-41 0 -89 28zM140 19l-30 -77l3 -7l79 95l-24 111h-71l-26 -110q28 -11 69 -12zM107 424l-22 -117q17 -8 45 -8q20 0 41 7l-18 118h-46z" />
    <glyph glyph-name="less" unicode="&#x3c;" horiz-adv-x="323" 
d="M191 373q33 -48 63.5 -112.5t43.5 -118.5h-49l-234 231l234 229h48q-13 -54 -43.5 -118t-62.5 -111zM63 373l186 -185q-10 27 -36.5 77.5t-66.5 107.5q28 39 58 91t45 92z" />
    <glyph glyph-name="equal" unicode="=" horiz-adv-x="317" 
d="M35 207v137h247v-137h-247zM75 304v-57h167v57h-167zM35 401v137h247v-137h-247zM75 498v-57h167v57h-167z" />
    <glyph glyph-name="greater" unicode="&#x3e;" horiz-adv-x="323" 
d="M132 373q-32 47 -62.5 111t-43.5 118h48l234 -229l-234 -231h-49q13 54 43.5 118.5t63.5 112.5zM74 188l186 185l-186 183q10 -27 36.5 -77t66.5 -106q-28 -40 -58 -92.5t-45 -92.5z" />
    <glyph glyph-name="question" unicode="?" horiz-adv-x="639" 
d="M72 665q-7 -5 -7 -9l2 -5l30 -69q37 25 84.5 42t89.5 17q37 0 83 -10.5t78.5 -36t32.5 -56.5q0 -20 -18.5 -39.5t-70 -46t-64.5 -35.5t-21 -16.5t-12.5 -16t-4.5 -16.5q1 -56 13 -101h48l-4 39q0 15 4.5 29t14.5 21.5t26 13.5q92 37 147.5 85t55.5 102q0 35 -22 67
t-61 56t-91 37.5t-109 13.5q-147 0 -224 -66zM47 697q43 35 108 54.5t141 19.5q48 0 102 -11t109 -41.5t83.5 -74.5t28.5 -87q0 -34 -17.5 -68.5t-62.5 -72t-132 -78.5q-2 -1 -13.5 -5.5t-17 -11t-5.5 -15.5q0 -13 12 -79h-124q-23 87 -23 126q0 32 10 51q3 5 9.5 12
t19 15.5t30.5 19.5t24 14q96 55 96 73q0 26 -45.5 44.5t-108.5 18.5q-42 0 -96.5 -24.5t-92.5 -57.5l-49 113q-8 14 -8 24q0 23 22 41zM240 20l24 147h125l21 -154q-47 -25 -84 -25q-22 0 -46 9.5t-40 22.5zM299 127l-15 -89q16 -10 42 -10q21 0 41 8l-14 91h-54z" />
    <glyph glyph-name="at" unicode="@" horiz-adv-x="1141" 
d="M1100 353q0 -71 -23.5 -136.5t-66 -116t-101 -79t-123.5 -28.5q-40 0 -74.5 13t-73.5 51q-22 -26 -63 -47.5t-77 -21.5q-35 0 -72 12t-68 41.5t-51 75.5t-20 107q0 30 6 63q11 60 37.5 113t65.5 92t89.5 60.5t105.5 21.5q26 0 50 -7.5t40 -21.5l5 22h154l-74 -407l-1 -11
q0 -17 4 -32t12.5 -22t17.5 -7q23 0 49.5 15.5t52.5 55t39.5 93t13.5 101.5q0 83 -26.5 146t-74.5 102.5t-112.5 58.5t-139.5 19q-59 0 -127.5 -22.5t-131.5 -75.5t-98 -115.5t-46 -113.5t-11 -89q0 -80 28.5 -148t78.5 -117t117 -75t140 -26q38 0 79 9t75 24l27 -28
q-39 -20 -86.5 -31t-94.5 -11q-82 0 -156 28.5t-130 82t-87.5 129t-31.5 163.5q0 67 24.5 142t86 148.5t153 118.5t191.5 45q80 0 151 -21.5t126 -66.5t86 -115t31 -161q0 -51 -14 -104t-40 -97t-61.5 -70.5t-75.5 -26.5q-17 0 -36 9.5t-31 32.5t-12 48l1 15l68 367h-76
l-8 -49l-6 -2q-30 39 -57.5 49t-57.5 10q-59 0 -110 -28.5t-91 -84.5t-55 -135q-5 -32 -5 -57q0 -31 8 -65t31 -69t59.5 -53t76.5 -18q33 0 70 21t68 63q60 -85 148 -85q34 0 77 15t80 47.5t61 71.5t38 89.5t14 105.5q0 95 -37.5 170.5t-103 125.5t-148.5 75t-172 25
q-72 0 -144.5 -21t-135.5 -60t-112.5 -93.5t-78 -116t-37 -110t-8.5 -85.5q0 -99 37.5 -180.5t103.5 -137.5t151 -85t177 -29q54 0 108 12t98 30l28 -29q-110 -49 -234 -49q-74 0 -158.5 21t-167.5 78.5t-133.5 152.5t-50.5 216q0 96 35 181t93.5 148t126.5 104t147 63.5
t158 22.5q94 0 184 -28t161.5 -83.5t112.5 -136t41 -181.5zM452 272q-3 -16 -3 -32q0 -45 23 -72.5t57 -27.5q48 0 82 60q18 33 31 100q10 55 14 99q-26 26 -61 26q-50 0 -90.5 -46t-52.5 -107zM412 272q8 47 35.5 93.5t69.5 73t85 26.5q53 0 96 -48q-6 -62 -16 -117
q-16 -81 -35 -114q-49 -86 -125 -86q-35 0 -63 21t-39 53t-11 61q0 18 3 37z" />
    <glyph glyph-name="A" unicode="A" horiz-adv-x="820" 
d="M374 619h55l130 -363h-318zM402 572l-104 -276h205q-17 48 -49 133.5t-52 142.5zM310 710l-246 -675h102l37 114h396l44 -114h115l-255 675h-193zM4 -5l278 755h249l284 -755h-199l-43 114h-342l-39 -114h-188z" />
    <glyph glyph-name="B" unicode="B" horiz-adv-x="709" 
d="M30 750h301q58 0 108 -9.5t89 -25.5t70 -41t49 -62t18 -83q0 -33 -15 -66t-41.5 -56.5t-42.5 -31.5q58 -31 90.5 -75.5t32.5 -110.5q0 -61 -42.5 -105t-123 -66.5t-170.5 -22.5h-319zM325 711h-255l4 -676h279h12q40 0 96 10t101.5 33t66 53.5t20.5 63.5t-15 66
t-51.5 64.5t-92.5 50.5q10 2 35.5 17.5t49 37.5t36 49.5t12.5 53.5q0 52 -32 91t-101 62.5t-165 23.5zM182 608h221q32 0 63 -14t42.5 -36t11.5 -44q0 -27 -16 -48t-47.5 -31t-56.5 -10h-218v183zM403 569l-181 -1v-103h178q36 0 58 14t22 34q0 15 -11 29t-31.5 20.5
t-34.5 6.5zM184 330l221 1q31 0 62.5 -14t43 -36.5t11.5 -44.5q0 -27 -16 -48t-47.5 -31t-56.5 -10h-218v183zM405 291l-181 -1v-103h178q36 0 58 14t22 34q0 15 -11 29t-31.5 20.5t-34.5 6.5z" />
    <glyph glyph-name="C" unicode="C" horiz-adv-x="698" 
d="M629 111q3 3 3 8q0 11 -10.5 31t-24.5 39q-64 -57 -162 -57q-48 0 -94.5 17t-84 49.5t-59.5 79t-22 102.5q0 52 19.5 97t55 77t84 49.5t104.5 17.5q82 0 148 -54q14 15 25 33.5t11 31.5q0 15 -31 38.5t-81 35.5t-102 12q-82 0 -144.5 -27t-106.5 -73.5t-70.5 -112
t-26.5 -128.5v-5q0 -31 10 -73t37.5 -86t66 -80t86 -60.5t91.5 -33.5t76 -9q59 0 111.5 20t90.5 61zM666 93q-19 -24 -54 -49t-85.5 -39.5t-99.5 -14.5q-77 0 -150.5 30t-130.5 82.5t-90.5 122.5t-35.5 145v7q0 54 18 110t46.5 102.5t74 85t108 61t141.5 22.5q47 0 95 -9
t86 -28t62.5 -44.5t26.5 -48.5q0 -18 -37 -78t-41 -56q-33 38 -76 60.5t-83 22.5q-44 0 -84.5 -12t-71.5 -36.5t-49 -62.5t-18 -87q0 -35 12.5 -71t40.5 -66t70.5 -50t93.5 -20q33 0 67 10t59.5 30.5t41.5 42.5q6 -6 21 -24.5t34.5 -52.5t19.5 -53q0 -7 -3 -16.5t-9 -15.5z
" />
    <glyph glyph-name="D" unicode="D" horiz-adv-x="702" 
d="M31 -5v755h317q44 0 101 -16t110.5 -58t88 -119.5t34.5 -190.5q0 -59 -11.5 -108t-36 -95t-73.5 -86t-115.5 -61t-129.5 -21h-285zM71 711l1 -676h244q41 0 94 12.5t97.5 41.5t74 68t45 91.5t15.5 117.5q0 29 -4.5 70.5t-17.5 79t-32.5 69t-59 64t-90.5 47.5t-90 15h-277
zM227 565v-377h76q50 0 93.5 23t66 65t22.5 98q0 48 -18.5 94t-58 71.5t-88.5 25.5h-93zM187 147v458h133q36 0 73 -12.5t69.5 -45t47.5 -80t15 -93.5q0 -69 -27.5 -120t-80.5 -79t-114 -28h-116z" />
    <glyph glyph-name="E" unicode="E" horiz-adv-x="631" 
d="M30 -5v755h576v-180h-372v-99h249v-187h-249v-104h377v-185h-581zM70 710v-675h501v105h-377v184h249v107h-249v179h372v100h-496z" />
    <glyph glyph-name="F" unicode="F" horiz-adv-x="616" 
d="M30 -5v755h576v-180h-377v-99h254v-186h-254v-290h-199zM70 710v-674h119v289h254v106h-254v179h377v100h-496z" />
    <glyph glyph-name="G" unicode="G" horiz-adv-x="770" 
d="M584 568q31 45 31 61v5q0 3 -3 10t-21 24t-67 34t-104 17h-15l-16 -1q-65 -4 -125.5 -32t-106 -75.5t-71.5 -109.5t-26 -131q0 -70 25.5 -133.5t71 -111.5t105.5 -75t126 -27q60 0 114.5 22.5t95.5 61.5t64.5 91t25.5 107h32v74h-201v-73h49q0 -52 -21.5 -92.5t-57 -62.5
t-82.5 -22q-50 0 -92.5 18.5t-73 51.5t-47 78t-16.5 95t19.5 95.5t53.5 80t79.5 54t94.5 19.5q80 0 159 -53zM387 758l37 1q58 0 115 -16t95 -49t38 -56l-7 -16q-14 -31 -71 -132q-14 23 -41 45t-63.5 34t-64.5 12q-41 0 -84 -18.5t-72 -54t-40 -70.5t-11 -66q0 -87 53 -145
t136 -58q31 0 60.5 17t42 39.5t12.5 39.5h-43v154h281v-154h-35q-7 -55 -36 -106.5t-74.5 -91t-104.5 -62t-122 -22.5q-74 0 -141.5 30t-118.5 83.5t-79.5 124.5t-28.5 149q0 77 28.5 147.5t79.5 123.5t118.5 83.5t140.5 33.5z" />
    <glyph glyph-name="H" unicode="H" horiz-adv-x="708" 
d="M482 -5v375h-256v-375h-196v755h196v-196h256v196h196v-755h-196zM522 410v-374h116v674h-116v-196h-336v196h-116v-674h116v374h336z" />
    <glyph glyph-name="I" unicode="I" horiz-adv-x="267" 
d="M35 -5v755h197v-755h-197zM75 710v-674h117v674h-117z" />
    <glyph glyph-name="J" unicode="J" horiz-adv-x="682" 
d="M87 189l-32 -59l-3 -11q0 -3 2.5 -9t4.5 -8q16 -18 45.5 -36.5t74.5 -28.5t93 -10q60 0 121 16t110.5 45.5t78.5 71t29 89.5v5l1 456h-121v-429q0 -24 -13 -49t-42.5 -46t-75.5 -34.5t-102 -13.5q-36 0 -83 11t-88 40zM16 92q-6 8 -6 18q0 19 14.5 47.5t31.5 56t20 32.5
q46 -45 88 -56.5t94 -11.5q35 0 81 9.5t79 34.5t33 59v469h201l-1 -496v-5q0 -26 -10.5 -59t-39 -66.5t-68.5 -60t-88 -44t-92.5 -24t-76.5 -6.5q-76 0 -144.5 26t-115.5 77z" />
    <glyph glyph-name="K" unicode="K" horiz-adv-x="768" 
d="M478 750h247l-211 -220l249 -535h-214l-177 385l-147 -153v-232h-195v755h195v-270zM633 710h-137l-311 -334v335h-115v-676h115v207l199 208l187 -415h132l-236 503z" />
    <glyph glyph-name="L" unicode="L" 
d="M30 -5v755h194v-568h320v-187h-514zM70 710v-674h434v106h-320v568h-114z" />
    <glyph glyph-name="M" unicode="M" horiz-adv-x="827" 
d="M426 -5h-34l-182 448v-448h-180v755h251l133 -318l127 318h256v-755h-184v452zM653 602v-566h104v674h-188l-153 -384l-161 384h-185v-674h100v561h17l222 -538l229 543h15z" />
    <glyph glyph-name="N" unicode="N" horiz-adv-x="733" 
d="M515 -5l-288 478v-478h-197v755h248q166 -269 228 -372v372h197v-755h-188zM187 578h23l327 -543h126v675h-117v-476q-60 100 -291 476h-185v-675h117v543z" />
    <glyph glyph-name="O" unicode="O" horiz-adv-x="771" 
d="M20 373v5q0 36 10.5 83.5t38 97t74 96t114 77t135.5 30.5q64 0 129 -31t117 -85t82.5 -125.5t30.5 -147.5q0 -37 -10.5 -84.5t-38.5 -97.5t-74.5 -96.5t-111.5 -77t-128 -30.5q-69 0 -135.5 32t-118.5 86.5t-82.5 125t-31.5 142.5zM60 378v-5q4 -66 32.5 -129.5t75 -112
t105 -76.5t117.5 -28q56 0 113.5 27.5t104.5 75.5t75 111.5t28 131.5t-27 132t-73.5 113t-104 76.5t-114.5 27.5q-29 0 -68.5 -9t-82 -33.5t-78 -60t-60 -80t-34 -87t-9.5 -74.5zM219 372q0 -30 10 -64.5t35.5 -69.5t59.5 -53t63 -18q22 0 48.5 10.5t53 36t46.5 66.5t20 92
q0 42 -14.5 80t-38.5 66t-54 44t-61 16t-61.5 -16t-54.5 -44.5t-38 -66.5t-14 -79zM179 372q0 49 17.5 94t47 79.5t67.5 53.5t76 19q28 0 61.5 -12.5t70 -47.5t56.5 -85.5t20 -100.5q0 -36 -12.5 -77.5t-44 -83t-73.5 -63t-78 -21.5t-73 19t-67.5 53t-49 79.5t-18.5 93.5z
" />
    <glyph glyph-name="P" unicode="P" horiz-adv-x="713" 
d="M30 -5v755h339q65 0 124.5 -21t104.5 -58t70 -87t25 -105t-25 -105t-70 -88t-104.5 -59t-124.5 -21h-142v-211h-197zM70 713v-677h117v210h182q57 0 109 18t91.5 50t61.5 75t22 90t-22 90t-61.5 75.5t-91.5 50.5t-109 18h-299zM360 573h-133v-183h133q25 0 55 9t52 32
t22 50q0 18 -13 39.5t-45.5 37t-70.5 15.5zM187 613h173q70 0 119.5 -39t49.5 -93t-49.5 -92.5t-119.5 -38.5h-173v263z" />
    <glyph glyph-name="Q" unicode="Q" horiz-adv-x="771" 
d="M475 -8q-11 0 -37 -4t-48 -4q-32 0 -75.5 10.5t-90.5 39t-86.5 69t-67.5 90t-38.5 96t-11.5 81.5v5q0 36 10.5 83.5t38 97t74 96t114 77t135.5 30.5q64 0 129 -31t117 -85t82.5 -125.5t30.5 -147.5q0 -68 -26.5 -133t-71.5 -118q20 -7 45 -20.5t37.5 -29t12.5 -28.5
q0 -18 -21 -46t-46.5 -55.5t-30.5 -33.5q-41 43 -82.5 64.5t-92.5 21.5zM643 -26q42 36 42 59q0 13 -18 28.5t-48 24.5l-41 13q133 133 133 271q0 68 -27 132t-73.5 113t-104 76.5t-114.5 27.5q-29 0 -68.5 -9t-82 -33.5t-78 -60t-60 -80t-34 -87t-9.5 -74.5v-5
q4 -63 33.5 -126t76 -112.5t104.5 -78.5t116 -29q13 0 43.5 5t46.5 5q40 0 84 -16.5t79 -43.5zM179 369q0 49 17.5 94t47 79.5t67.5 53.5t76 19q28 0 61.5 -12.5t70 -47.5t56.5 -85.5t20 -100.5q0 -36 -12.5 -77.5t-44 -83t-73.5 -63t-78 -21.5t-73 19t-67.5 53t-49 79.5
t-18.5 93.5zM219 369q0 -30 10 -64.5t35.5 -69.5t59.5 -53t63 -18q22 0 48.5 10.5t53 36t46.5 66.5t20 92q0 42 -14.5 80t-38.5 66t-54 44t-61 16t-61.5 -16t-54.5 -44.5t-38 -66.5t-14 -79z" />
    <glyph glyph-name="R" unicode="R" horiz-adv-x="729" 
d="M499 -5l-173 271h-99v-271h-197v755h339q66 0 125.5 -16.5t104 -48t69.5 -77t25 -99.5q0 -76 -45 -131.5t-124 -84.5l190 -298h-215zM347 306l174 -270h121q-130 196 -181 279q42 9 73 23.5t55.5 34.5t44 54.5t19.5 81.5q0 46 -22 84.5t-61 64.5t-91 39.5t-110 13.5h-299
v-675h117v270h160zM187 613h173q91 0 129.5 -26t39.5 -81q0 -50 -40 -76t-129 -26h-173v209zM360 573h-133v-129h133q61 0 95 13.5t34 50.5q-1 38 -34.5 51.5t-94.5 13.5z" />
    <glyph glyph-name="S" unicode="S" horiz-adv-x="712" 
d="M325 -14q-61 0 -124 16t-97 35.5t-51.5 41.5t-17.5 48q0 8 14 38t47 81q38 -33 102.5 -58.5t118.5 -25.5q51 0 87 16t38 40q0 15 -29 32t-119 43l-13 4q-121 37 -159 66q-43 31 -67 73t-24 88q0 48 27 91t75.5 75.5t112.5 50.5t133 18q43 0 96.5 -8t91.5 -21t63.5 -30
t35.5 -36t10 -35q0 -28 -20 -62.5t-45 -59.5q-22 26 -55 44.5t-75 26t-89 7.5q-29 0 -58.5 -5.5t-46 -18.5t-16.5 -28q0 -16 38 -38t140 -61q77 -28 102 -42q130 -73 130 -178q0 -45 -29 -86.5t-79.5 -73.5t-115 -50t-132.5 -18zM325 26q45 0 97 10t106.5 37t83.5 65.5
t29 75.5q0 43 -26 77t-84 65q-30 16 -90 38l-6 2q-73 27 -117.5 48t-65.5 44t-21 45q0 16 12.5 38t50 38t98.5 16q54 0 112.5 -17t98.5 -46q30 38 30 65l-1 8q-3 17 -20 33.5t-53.5 29.5t-87.5 19t-93 6q-61 0 -117.5 -15.5t-99 -43t-66.5 -64t-24 -76.5q0 -35 20.5 -69
t54.5 -60q45 -28 160 -64q65 -19 100 -33.5t55.5 -34t20.5 -46.5q-2 -40 -50 -67.5t-115 -27.5q-51 0 -108 21.5t-97 50.5q-10 -13 -23.5 -37.5t-13.5 -29.5q0 -18 15 -34t43 -29.5t83 -25.5t109 -12z" />
    <glyph glyph-name="T" unicode="T" horiz-adv-x="673" 
d="M10 569v181h653v-181h-228v-574h-192v574h-233zM50 710v-101h233v-573h112v573h228v101h-573z" />
    <glyph glyph-name="U" unicode="U" horiz-adv-x="696" 
d="M350 129h-4q-31 0 -70 12t-67 41.5t-28 67.5v460h-111v-395q0 -75 3 -116q1 -25 16.5 -53t54.5 -57.5t95 -45t109 -15.5t103 13.5t88 37.5t60 55.5t24 64.5q3 41 3 116v395h-111v-460q0 -38 -28 -67.5t-67 -41.5t-70 -12zM346 170h4q24 0 53.5 8.5t51 31.5t21.5 52v488
h190v-435l-1 -118q-1 -31 -16 -61t-41.5 -55t-62 -44t-85.5 -33t-112 -14q-30 0 -76 6.5t-91 26t-79.5 47t-52 62t-18.5 65.5l-1 118v435h190v-488q0 -19 12.5 -40.5t44.5 -36.5t69 -15z" />
    <glyph glyph-name="V" unicode="V" horiz-adv-x="721" 
d="M372 161h-6l-188 549h-116l232 -674h132l234 674h-97zM265 -5l-260 755h201l163 -476l165 476h182l-262 -755h-189z" />
    <glyph glyph-name="W" unicode="W" horiz-adv-x="886" 
d="M215 -5l-210 755h204l88 -330l81 330h130l93 -352l87 352h193l-209 -755h-159l-75 295l-82 -295h-141zM303 268l-9 1l-115 441h-122l188 -674h81l111 396l8 -1l99 -395h98l187 674h-111l-114 -458h-6l-120 458h-69z" />
    <glyph glyph-name="X" unicode="X" horiz-adv-x="727" 
d="M10 -5l242 383l-239 372h225l126 -197l125 197h213l-231 -370l246 -385h-221l-137 216l-137 -216h-212zM299 378l-216 -342h120l158 250l156 -250h127l-220 345l208 329h-121l-147 -233l-148 233h-130z" />
    <glyph glyph-name="Y" unicode="Y" horiz-adv-x="704" 
d="M5 750h222l136 -184l126 184h210l-249 -358v-397h-184v394zM207 710h-124l223 -309v-365h104v366l215 308h-114l-147 -213z" />
    <glyph glyph-name="Z" unicode="Z" horiz-adv-x="694" 
d="M15 567v183h556l102 -164l-384 -405h390v-186h-565l-94 177l371 395h-376zM55 710v-103h430l-416 -437l69 -134h501v105h-444l427 451l-74 118h-493z" />
    <glyph glyph-name="bracketleft" unicode="[" horiz-adv-x="264" 
d="M70 766v-786h134v56h-60v674h60v56h-134zM30 -60v866h214v-136h-60v-594h60v-136h-214z" />
    <glyph glyph-name="backslash" unicode="\" horiz-adv-x="490" 
d="M10 712v38h131l339 -717v-38h-132zM436 35l-320 675h-63l320 -675h63z" />
    <glyph glyph-name="bracketright" unicode="]" horiz-adv-x="264" 
d="M194 -20v786h-134v-56h60v-674h-60v-56h134zM234 806v-866h-214v136h60v594h-60v136h214z" />
    <glyph glyph-name="asciicircum" unicode="^" horiz-adv-x="500" 
d="M251 476q-48 -33 -112.5 -63.5t-118.5 -43.5v49l231 234l229 -234v-48q-54 13 -118 43.5t-111 62.5zM251 604l-185 -186q27 10 77.5 36.5t107.5 66.5q39 -28 91 -58t92 -45z" />
    <glyph glyph-name="underscore" unicode="_" horiz-adv-x="837" 
d="M802 -30v-40h-767v40h767zM802 -116v-40h-767v40h767z" />
    <glyph glyph-name="grave" unicode="`" horiz-adv-x="432" 
d="M218 663q-2 46 -16.5 72.5t-34.5 26.5q-7 0 -11.5 -5.5t-4.5 -11.5q0 -18 22.5 -44.5t44.5 -37.5zM257 621h-40q-43 24 -73 61t-30 67q0 21 14 34t33 13q29 0 52 -21t33 -65t11 -89z" />
    <glyph glyph-name="a" unicode="a" horiz-adv-x="572" 
d="M567 118l-49 -120q-40 -5 -62 -5q-33 0 -56 10.5t-27 29.5q-25 -21 -46.5 -33t-50.5 -12q-55 0 -102.5 22t-82 61.5t-53 93t-18.5 112.5q0 60 16.5 114.5t48.5 95.5t78 64t101 23t96 -29v22h154v-387q0 -12 16.5 -30t36.5 -32zM178 282q0 -27 10.5 -60t36.5 -57.5
t55 -24.5q49 0 72 60q12 33 12 100q0 55 -3 99q-13 11 -31.5 18.5t-35.5 7.5q-40 0 -67.5 -25t-38 -58t-10.5 -60zM138 282q0 27 8.5 62t31.5 63.5t52.5 43t63.5 14.5q54 0 105 -48q5 -62 5 -117q0 -77 -14 -114q-33 -86 -110 -86q-33 0 -68 24.5t-54.5 68.5t-19.5 89z
M400 478l-5 -2q-30 32 -58 45.5t-68 13.5q-46 0 -85.5 -20t-67 -56t-42 -83t-14.5 -99q0 -38 10.5 -80.5t39.5 -85t74 -64.5t91 -22q17 0 49 18.5t73 65.5q6 -37 16 -56.5t43 -19.5l32 1l29 73q-15 12 -29 31.5t-14 41.5v347h-74v-49z" />
    <glyph glyph-name="b" unicode="b" horiz-adv-x="544" 
d="M30 -5v755h159v-190q39 14 85 15h5q43 0 86.5 -15t78.5 -50.5t57.5 -91.5t22.5 -130q0 -73 -19 -130t-53 -94.5t-79 -56.5t-97 -19q-19 0 -65 13t-62 13q-13 0 -24.5 -6t-17.5 -13h-77zM70 710v-675h34q13 15 39 17h4q19 0 63 -15.5t66 -15.5q43 0 81 17t66.5 51t44.5 85
t16 114q0 50 -13.5 95.5t-39.5 79.5t-65 53t-87 19h-5q-55 -2 -125 -38v213h-79zM259 426q-17 0 -36.5 -9.5t-33.5 -23.5v-228q15 -12 34.5 -20t35.5 -8q32 0 60 24t39.5 57.5t11.5 61.5t-11.5 62t-39.5 59t-60 25zM259 466q37 0 73.5 -24.5t57 -69.5t20.5 -92
q0 -76 -45 -129.5t-106 -53.5q-28 0 -57 14t-53 38v262q23 26 52 40.5t58 14.5z" />
    <glyph glyph-name="c" unicode="c" horiz-adv-x="518" 
d="M450 187q48 -69 48 -104q0 -8 -5 -19.5t-14 -19.5q-68 -57 -161 -57q-60 0 -114.5 23t-96 63.5t-64.5 95t-23 113.5t22 113t62 94.5t94 63t115 22.5q38 0 84 -15.5t73.5 -36t27.5 -42.5q0 -9 -4 -17l-41 -91q-29 24 -61 38t-60 14q-38 0 -75 -19t-57 -54t-20 -71
q0 -29 15 -62.5t53 -58.5t84 -25q30 0 61 13t57 39zM440 132q-23 -15 -52.5 -25t-55.5 -10q-29 0 -61 9.5t-64.5 35.5t-49.5 64t-17 75q0 27 10 58t34 59t62 47.5t86 19.5q27 0 55 -8t50 -21l21 45q0 10 -18 22.5t-57.5 23t-69.5 10.5q-53 0 -99.5 -20t-81 -55t-53.5 -82
t-19 -98t20 -98t55.5 -82t83 -55t99.5 -20q83 0 140 49l4 9q0 6 -5.5 20t-16.5 27z" />
    <glyph glyph-name="d" unicode="d" horiz-adv-x="551" 
d="M379 -5v17q-27 -13 -58.5 -21t-57.5 -8q-49 0 -93.5 23t-78 64t-52.5 95.5t-19 113.5t19 114t52.5 96t78 64t93.5 23q51 0 107 -27v201h151v-755h-142zM410 76v-40h71v674h-71v-229q-91 55 -147 55q-30 0 -64 -13.5t-68.5 -49.5t-52.5 -89.5t-18 -104.5t16 -98.5
t44 -82.5t65 -55t78 -20q31 0 71.5 13.5t75.5 39.5zM287 95q-61 0 -104.5 53.5t-43.5 128.5q0 37 10 66.5t26 53.5t45.5 43.5t66.5 19.5q13 0 32 -4t43.5 -15.5t47.5 -27.5v-273q-31 -21 -64 -33t-59 -12zM287 135q19 0 40.5 7t42.5 20v229q-21 13 -43.5 21t-39.5 8
q-32 0 -59.5 -24.5t-38 -58t-10.5 -60.5q0 -59 31.5 -100.5t76.5 -41.5z" />
    <glyph glyph-name="e" unicode="e" horiz-adv-x="567" 
d="M325 132q34 0 64 8t50 17.5t34 18.5t14 8q1 -2 11 -14.5t19 -27.5t15 -29.5t6 -28.5q0 -13 -11 -26q-12 -14 -40.5 -32.5t-73.5 -32.5t-84 -14q-57 0 -113 21t-100 60.5t-70 95.5t-26 122q0 59 20 113.5t56.5 95.5t85.5 64t104 23t103.5 -23.5t84 -65.5t54.5 -97t19 -115
v-28h-369q11 -54 52.5 -83.5t94.5 -29.5zM135 276l6 5h366q-3 77 -33.5 135t-77.5 89t-109 31q-35 0 -73.5 -13.5t-76.5 -50t-57.5 -90t-19.5 -104.5q0 -57 22.5 -105.5t61 -83t87 -52.5t98.5 -18q35 0 70.5 8.5t59 23t35.5 29.5l1 8q0 16 -21 44q-31 -16 -71 -28t-75 -12
t-68 10.5t-60 32.5t-44 57.5t-21 83.5zM145 335l-3 9q15 40 40.5 68.5t56 39.5t56.5 11h5q99 -3 129 -128h-284zM377 375q-21 47 -78 48h-4q-65 0 -95 -48h177z" />
    <glyph glyph-name="f" unicode="f" horiz-adv-x="356" 
d="M381 691q0 -13 -9 -40t-31 -60q-8 10 -28.5 21t-43.5 11q-20 0 -33.5 -13.5t-15.5 -42.5h91v-148h-91v-424h-156v424h-49v148h49v11q0 62 21 103t60 62.5t98 21.5q26 0 59.5 -8t56 -24.5t22.5 -41.5zM269 663q29 0 59 -15q7 18 7 32l-1 10q-2 11 -15.5 20.5t-37.5 14.5
t-41 5q-26 0 -48.5 -7t-41 -21.5t-32.5 -44.5t-14 -79v-51h-49v-68h49v-423h76v423h91v68h-91v31q0 55 25.5 80t63.5 25z" />
    <glyph glyph-name="g" unicode="g" horiz-adv-x="549" 
d="M26 291v5q0 59 17 111.5t49.5 91t78.5 59.5t100 21q8 0 33.5 -4.5t53.5 -20.5v19h159l2 -626q0 -25 -13.5 -53t-45.5 -53t-83.5 -43t-117.5 -18q-44 0 -94.5 8.5t-76.5 29t-26 47.5q0 22 12 57t23 52q31 -26 73 -41t79 -15q33 0 59 9.5t37.5 26.5t12.5 33l3 42
q-58 -26 -90 -26q-52 0 -97.5 22.5t-78 62t-50.5 92.5t-19 111zM398 533v-38h-7q-60 50 -124 50q-44 0 -81.5 -19t-64 -53t-41 -80t-14.5 -97v-5q1 -63 21 -111.5t45 -75.5t57 -44t73 -18h5q18 0 34.5 2t32 8.5t37.5 21.5t27 18v-105q0 -27 -14.5 -52.5t-52 -41t-82.5 -15.5
q-36 0 -72.5 12t-64.5 28q-10 -35 -10 -53q0 -15 20.5 -27t63 -18t76.5 -6q66 0 115.5 21t75.5 52.5t26 70.5l-2 575h-79zM187 292q0 -40 18.5 -74t43.5 -47t46 -13q34 0 63 24v221q-29 24 -63 24q-21 0 -46 -13.5t-43.5 -47.5t-18.5 -74zM147 292q0 72 43.5 123.5
t104.5 51.5q53 0 103 -48v-253q-48 -48 -103 -48q-61 0 -104.5 51t-43.5 123z" />
    <glyph glyph-name="h" unicode="h" horiz-adv-x="559" 
d="M377 -5v374q0 23 -19 38t-57 15q-70 0 -109 -26v-401h-162v755h157v-207q69 32 128 32q53 0 104.5 -16.5t80 -46.5t30.5 -61q4 -32 4 -456h-157zM159 489l-7 5v216h-82v-674h82v380q63 46 149 46q59 0 87.5 -26t28.5 -67v-333h77q0 374 -4 409q0 18 -17 38.5t-61.5 36
t-96.5 15.5q-39 0 -80.5 -13.5t-75.5 -32.5z" />
    <glyph glyph-name="i" unicode="i" horiz-adv-x="214" 
d="M25 -5v560h164v-560h-164zM65 515v-480h84v480h-84zM54 601l-27 138q17 9 39 14.5t40 5.5q34 0 80 -20l-28 -138h-104zM69 717l15 -81h42l19 80q-22 8 -38 8q-20 0 -38 -7z" />
    <glyph glyph-name="j" unicode="j" horiz-adv-x="246" 
d="M45 -224q-17 0 -43 7.5t-40 21t-14 28.5q0 9 26 109q16 -20 39 -20q17 0 28 12.5t11 38.5v439h-31v145h195v-619q0 -66 -50.5 -114t-120.5 -48zM46 -190q38 0 71 22.5t46 52.5t13 53v579h-115v-65h31v-479q0 -44 -19 -66.5t-50 -22.5q-12 0 -26 3l-2 -8q-6 -30 -6 -36
q0 -16 13 -24.5t44 -8.5zM77 603l-27 138q17 9 39 14.5t40 5.5q34 0 80 -20l-28 -138h-104zM92 717l15 -81h42l19 80q-22 8 -38 8q-20 0 -38 -7z" />
    <glyph glyph-name="k" unicode="k" horiz-adv-x="587" 
d="M30 -5v755h157v-316l140 129h223l-151 -144l183 -424h-162l-135 310l-98 -86v-224h-157zM70 710v-678h77v205l154 134l145 -337h76l-169 395l98 94h-109l-195 -179v366h-77z" />
    <glyph glyph-name="l" unicode="l" horiz-adv-x="220" 
d="M30 -5v755h160v-755h-160zM70 710v-675h80v675h-80z" />
    <glyph glyph-name="m" unicode="m" horiz-adv-x="833" 
d="M345 -5v373q0 14 -8.5 28t-28.5 21.5t-43 7.5q-25 0 -46.5 -7t-26.5 -17v-406h-162v571h152v-28q22 15 55.5 24t58.5 9q32 0 69.5 -11t63.5 -27q62 37 149 37q50 0 101.5 -18t83.5 -53t32 -85q1 -23 1 -44.5t0.5 -62t1 -115t0.5 -197.5h-153v373q0 28 -19 41.5t-47 13.5
q-43 0 -81 -23v-405h-153zM159 478l-7 3v45h-82v-491h82v375q4 11 18.5 24t41 22t53.5 9q49 0 84.5 -24.5t35.5 -72.5v-333h73q0 253 -3 385q24 18 58 30.5t66 12.5q46 0 76 -24t30 -71v-333h73q0 89 -0.5 164t-1 118t-0.5 61t-0.5 27.5t-0.5 10.5q0 29 -21 56t-67.5 42.5
t-88.5 15.5q-38 0 -78 -12t-71 -33q-26 18 -63.5 32t-69.5 14q-33 0 -69.5 -13.5t-67.5 -39.5z" />
    <glyph glyph-name="n" unicode="n" horiz-adv-x="564" 
d="M377 -5v373q0 23 -19 38t-57 15q-70 0 -109 -26v-400h-162v571h157v-24q69 32 128 32q53 0 104.5 -16.5t80 -46.5t30.5 -61q4 -32 4 -455h-157zM417 368v-333h77q0 374 -4 409q0 18 -17 38.5t-61.5 36t-96.5 15.5q-29 0 -71.5 -10.5t-91.5 -39.5v42h-82v-491h82v380
q63 46 149 46q59 0 87.5 -26t28.5 -67z" />
    <glyph glyph-name="o" unicode="o" horiz-adv-x="592" 
d="M178 285q0 -59 31 -100.5t82 -41.5h4q42 2 70.5 25t38.5 56t10 61t-10.5 60.5t-39 57t-70.5 25.5q-40 0 -67.5 -25t-38 -58t-10.5 -60zM138 285q0 27 8.5 62t31.5 63.5t52.5 43t63.5 14.5q72 -1 116 -53.5t44 -129.5q0 -48 -16 -87t-51 -66t-91 -29h-5q-44 0 -77.5 21.5
t-54.5 63t-21 97.5zM20 280q0 44 14.5 93.5t53.5 99.5t96 76t112 26t106 -23t89 -63.5t59.5 -95t21.5 -113.5t-21.5 -113t-59.5 -94.5t-89 -63.5t-106 -23t-106 23t-89 63.5t-59.5 94.5t-21.5 113zM60 280q0 -51 18.5 -98t51 -82t76 -54.5t90.5 -19.5t90.5 19.5t76 54.5
t51 82t18.5 98t-18.5 98t-51 82t-76 55t-90.5 20t-90.5 -20t-76 -55t-51 -82t-18.5 -98z" />
    <glyph glyph-name="p" unicode="p" horiz-adv-x="555" 
d="M30 -195v756h158v-12q52 26 106 26q49 0 93 -20.5t77.5 -59.5t52 -95t18.5 -123q0 -65 -18.5 -120.5t-52 -95t-77.5 -60.5t-93 -21q-50 0 -106 28v-203h-158zM154 480l-6 4v37h-78v-676h78v235q87 -60 146 -60q41 0 78 18.5t64.5 52.5t43 82t15.5 104q0 58 -15.5 106.5
t-43 82t-64.5 51.5t-78 18q-57 0 -140 -55zM256 459q68 0 114 -50.5t46 -131.5t-46 -129t-114 -48q-58 0 -108 45v268q51 46 108 46zM256 419q-17 0 -35.5 -6.5t-32.5 -17.5v-232q13 -10 32 -16.5t36 -6.5q23 0 51 12t48.5 44.5t20.5 80.5q-1 47 -21 81.5t-48 47.5t-51 13z
" />
    <glyph glyph-name="q" unicode="q" horiz-adv-x="542" 
d="M514 562v-756h-159v191q-39 -14 -85 -15h-5q-43 0 -86.5 15t-78.5 50.5t-57.5 91.5t-22.5 130q0 59 14.5 113.5t45 97t79 67t111.5 24.5q22 0 66.5 -14t58.5 -14q13 0 24.5 6t17.5 13h77zM474 -154v677h-34q-10 -12 -39 -14h-4q-19 0 -63 13.5t-66 13.5q-43 0 -81 -17
t-66.5 -51t-44.5 -85t-16 -114q0 -50 13.5 -95.5t39.5 -79.5t65 -53t87 -19h5q55 2 125 38v-214h79zM285 131q17 0 36.5 9.5t33.5 23.5v228q-15 12 -34.5 20t-35.5 8q-32 0 -60 -24t-39.5 -57.5t-11.5 -61.5t11.5 -62t39.5 -59t60 -25zM285 91q-37 0 -73.5 24.5t-57 69.5
t-20.5 92q0 76 45 129.5t106 53.5q28 0 57 -14t53 -38v-262q-23 -26 -52 -40.5t-58 -14.5z" />
    <glyph glyph-name="r" unicode="r" horiz-adv-x="451" 
d="M433 533q13 -13 13 -31q0 -5 -3 -17l-34 -85q-60 29 -109 29q-33 0 -65 -11t-54 -29v-394h-156v571h156v-29q74 37 132 37q71 0 120 -41zM150 471l-7 3v52h-78v-491h76v372q30 27 73 44.5t86 17.5q37 0 86 -17q20 37 20 52q-6 12 -36.5 21t-60.5 9q-27 0 -68 -14t-91 -49
z" />
    <glyph glyph-name="s" unicode="s" horiz-adv-x="521" 
d="M244 -2q-49 0 -107 14.5t-84.5 39t-26.5 51.5q0 9 16.5 38.5t36.5 60.5q28 -25 73.5 -42t85.5 -17q37 0 63 9t26 24q0 7 -12.5 18.5t-93.5 38.5q-84 28 -123 50.5t-58.5 53.5t-19.5 67q0 27 14 58.5t47.5 59.5t86 48t118.5 20q76 0 130 -24t73 -69v-7q0 -22 -16.5 -49.5
t-36.5 -48.5q-55 53 -142 53q-42 0 -63.5 -10.5t-21.5 -23.5q0 -6 11 -15t79 -32q65 -22 101.5 -40t61 -43.5t32 -52t7.5 -45.5q0 -43 -34 -88t-96.5 -71t-126.5 -26zM244 38q32 0 68.5 8t73.5 29.5t56 51t19 56.5q0 30 -16 53.5t-48 43.5t-110 46q-75 24 -96.5 43t-21.5 42
q0 30 32 52t93 22q42 0 76 -9t62 -31q6 10 13 26.5t7 27.5q-50 56 -165 56q-33 0 -71 -8t-76.5 -30t-59 -53t-20.5 -60q0 -36 37 -67.5t136 -64.5q83 -27 108.5 -49t25.5 -47q0 -33 -38 -50.5t-93 -17.5q-41 0 -81 11t-67 29q-6 -6 -14 -19t-8 -26q0 -16 21.5 -31.5
t69 -24.5t87.5 -9z" />
    <glyph glyph-name="t" unicode="t" horiz-adv-x="271" 
d="M15 413v160h46v177h150v-177h45v-160h-45v-418h-150v418h-46zM55 533v-80h46v-418h70v418h45v80h-45v177h-70v-177h-46z" />
    <glyph glyph-name="u" unicode="u" 
d="M182 566v-373q0 -23 19 -38t57 -15q70 0 109 26v400h162v-571h-157v24q-69 -32 -128 -32q-53 0 -104.5 16.5t-80 46.5t-30.5 61q-4 32 -4 455h157zM142 193v333h-77q0 -374 4 -409q0 -18 17 -38.5t61.5 -36t96.5 -15.5q29 0 71.5 10.5t91.5 39.5v-42h82v491h-82v-380
q-63 -46 -149 -46q-59 0 -87.5 26t-28.5 67z" />
    <glyph glyph-name="v" unicode="v" horiz-adv-x="560" 
d="M286 176h-6l-146 349h-72l192 -490h57l188 493h-70zM225 -5l-220 571h157l121 -286l117 286h155l-216 -571h-114z" />
    <glyph glyph-name="w" unicode="w" horiz-adv-x="852" 
d="M228 -5l-223 571h167l105 -284l108 284h91l105 -287l108 287h158l-230 -571h-94l-96 256l-106 -256h-93zM281 174l-8 1l-129 351h-79l191 -491h39l129 315h9l119 -315h37l198 491h-70l-131 -352l-10 1l-128 351h-35z" />
    <glyph glyph-name="x" unicode="x" 
d="M5 -5l178 290l-176 281h180l84 -137q15 25 46 71.5t43 65.5h189l-188 -284l176 -287h-170l-94 150l-94 -150h-174zM231 285l-153 -250h79l116 185l116 -185h78l-153 249l161 242h-93l-111 -173l-107 173h-85z" />
    <glyph glyph-name="y" unicode="y" horiz-adv-x="565" 
d="M182 -223h-7q-50 0 -78.5 15.5t-28.5 44.5q0 5 3.5 17t32.5 98q38 -30 61 -30q21 0 35.5 15t17.5 35l-213 594h175l120 -358l111 359h149l-203 -640q-14 -44 -43.5 -82t-64.5 -53t-67 -15zM312 113l-23 1l-138 412h-88l195 -546q0 -19 -9 -42t-31.5 -39.5t-52.5 -16.5
q-21 0 -40 7q-17 -49 -17 -52q0 -9 17.5 -14.5t49.5 -5.5h7q23 0 51 12.5t52.5 43.5t36.5 66l188 588h-70z" />
    <glyph glyph-name="z" unicode="z" horiz-adv-x="516" 
d="M10 414v152h418l77 -140l-269 -277h270v-154h-407l-79 143l262 276h-272zM164 109l-6 8l298 315l-53 94h-353v-72h314l4 -9l-302 -308l57 -102h343v74h-302z" />
    <glyph glyph-name="braceleft" unicode="{" horiz-adv-x="306" 
d="M183 373q17 -20 29.5 -51.5t12.5 -57.5q0 -29 -9.5 -80t-9.5 -76q0 -29 18 -47.5t62 -24.5v-90q-24 -3 -44 -3q-70 0 -107 45t-37 145v52q0 75 -22 115.5t-66 71.5q44 31 66 71.5t22 115.5v52q0 100 37 145t107 45q20 0 44 -3v-90q-44 -6 -62 -24.5t-18 -47.5
q0 -25 9.5 -76t9.5 -80q0 -27 -13 -58t-29 -49zM56 371q20 -11 36.5 -30.5t27 -54.5t12.5 -118t9 -110.5t19.5 -46t35.5 -27.5t50 -9h7v32q-45 8 -63 34t-18 67q0 23 8.5 73.5t8.5 75.5q0 33 -15 65.5t-42 50.5q27 17 42 49t15 65q0 25 -8.5 75.5t-8.5 73.5q0 41 18 67
t63 34v32h-7q-45 0 -69.5 -20t-33.5 -55t-11 -118.5t-12.5 -118.5t-27 -55t-36.5 -31z" />
    <glyph glyph-name="bar" unicode="|" horiz-adv-x="326" 
d="M232 -201h-40v997h40v-997zM140 -201h-40v997h40v-997z" />
    <glyph glyph-name="braceright" unicode="}" horiz-adv-x="306" 
d="M123 373q-16 18 -29 49t-13 58q0 29 9.5 80t9.5 76q0 29 -18 47.5t-62 24.5v90q24 3 44 3q70 0 107 -45t37 -145v-52q0 -75 22 -115.5t66 -71.5q-44 -31 -66 -71.5t-22 -115.5v-52q0 -100 -37 -145t-107 -45q-20 0 -44 3v90q44 6 62 24.5t18 47.5q0 25 -9.5 76t-9.5 80
q0 26 12.5 57.5t29.5 51.5zM250 371q-33 18 -53 58t-22.5 135t-9.5 122.5t-19.5 46t-35.5 27.5t-50 9h-7v-32q45 -8 63 -34t18 -67q0 -23 -8.5 -73.5t-8.5 -75.5q0 -33 15 -65t42 -49q-27 -18 -42 -50.5t-15 -65.5q0 -25 8.5 -75.5t8.5 -73.5q0 -41 -18 -67t-63 -34v-32h7
q45 0 69.5 20t33.5 55t11 118t12.5 118t27 54.5t36.5 30.5z" />
    <glyph glyph-name="asciitilde" unicode="~" horiz-adv-x="448" 
d="M25 299q7 47 31.5 83t54 50.5t62.5 14.5q32 0 76 -17t73 -17q30 0 58 8.5t43 19.5q-3 -21 -14 -50t-30 -51t-45 -35t-59 -13q-32 0 -76 17.5t-73 17.5q-30 0 -58 -8.5t-43 -19.5zM80 352q9 7 26 12t37 5q25 0 64 -16.5t66 -16.5q34 0 59.5 16.5t35.5 36.5
q-25 -15 -59 -15q-24 0 -65 17t-68 17q-34 0 -60 -17t-36 -39z" />
    <glyph glyph-name="exclamdown" unicode="&#xa1;" horiz-adv-x="289" 
d="M86 592l-38 144q22 13 50 20.5t51 7.5q25 0 53.5 -8t42.5 -21l-35 -143h-124zM95 717l21 -85h63l22 86q-24 8 -52 8q-30 0 -54 -9zM96 533h104l56 -529q-52 -21 -109 -21q-59 0 -108 25q0 27 57 525zM164 493h-32l-52 -460q41 -12 70 -12q32 0 63 12z" />
    <glyph glyph-name="cent" unicode="&#xa2;" horiz-adv-x="364" 
d="M192 -4v127q-70 13 -116.5 80.5t-46.5 163.5q0 70 23 126t59 88t82 37v133h42v-133q23 -3 47 -14t38.5 -31.5t15.5 -36.5q0 -13 -14 -41t-21 -29q-19 24 -39 37t-39 13q-46 0 -69 -37t-23 -105q0 -65 23 -105.5t67 -40.5q58 0 83 50q2 -1 10 -12t17 -30t9 -31
q0 -13 -5 -20q-19 -28 -46 -44.5t-55 -19.5v-125h-42zM312 195l1 6q0 14 -14 33q-14 -18 -36.5 -26t-43.5 -8q-30 0 -58.5 21.5t-44 63.5t-15.5 90q0 33 11.5 73.5t41 68t67.5 27.5q19 0 39 -10t34 -26q3 3 9 11t6 19q0 8 -14.5 24t-37.5 24.5t-46 8.5q-43 0 -76.5 -28
t-55.5 -80t-22 -119q0 -45 12 -85.5t34 -70.5t51.5 -46.5t62.5 -16.5q62 0 95 46z" />
    <glyph glyph-name="sterling" unicode="&#xa3;" horiz-adv-x="598" 
d="M2 354v60h91q-50 65 -57 88t-7 38q0 29 16.5 61.5t59 65t101 49.5t109.5 17q50 0 96 -13t81 -39t56 -67l-92 -119q-7 21 -24 42.5t-46.5 34.5t-59.5 13q-29 0 -53 -8t-34 -20.5t-10 -24.5q0 -14 12 -39.5t49 -78.5h236v-60h-194q67 -103 72 -171q44 -23 81 -23
q27 0 63 20l50 -130q-67 -53 -141 -53q-64 0 -127 39q-54 -44 -142 -44q-32 0 -66 9t-61.5 27.5t-43 45.5t-15.5 61v8q3 38 26.5 64.5t60.5 42.5t70 16q28 0 48 -4q-26 40 -67 92h-138zM462 576q29 35 29 43q0 14 -31 35t-71 31.5t-74 10.5q-67 0 -124.5 -23.5t-89.5 -57
t-32 -72.5q0 -7 2.5 -18t10.5 -25.5t16 -26t53 -68.5q2 -2 30 -38.5t50 -68t32.5 -51.5t14.5 -32t4 -21q-29 17 -57.5 27t-63.5 10q-36 0 -76 -24.5t-43 -64.5v-7q0 -48 44 -75.5t102 -27.5q37 0 73.5 13.5t64.5 42.5q76 -51 131 -51q33 0 54 7t39 20l-25 61q-15 -5 -40 -5
q-50 0 -121 41q-1 41 -21.5 90.5t-86.5 143.5q-49 71 -60 94t-11 43q0 42 42.5 67.5t98.5 25.5q30 0 59 -6.5t48 -18.5t29 -24zM274 126q-15 -25 -47.5 -39t-65.5 -14q-30 0 -49 18t-19 39q0 22 18 39.5t49 17.5q29 0 59 -16t55 -45zM161 113q12 0 28.5 4.5t28.5 11.5
q-32 18 -58 18q-12 0 -19.5 -5.5t-7.5 -11.5t8 -11.5t20 -5.5z" />
    <glyph glyph-name="yen" unicode="&#xa5;" horiz-adv-x="704" 
d="M5 750h222l136 -184l126 184h210l-249 -357h108v-61h-108v-50h108v-61h-108v-226h-184v225h-109v61h109v50h-109v61h107zM207 710h-124l223 -309v-365h104v366l215 308h-114l-147 -213z" />
    <glyph glyph-name="section" unicode="&#xa7;" horiz-adv-x="524" 
d="M348 142q21 8 47.5 26t46 47.5t19.5 55.5q0 30 -16 53.5t-48 43.5t-110 46q-75 24 -96.5 45t-21.5 50q0 16 12 35.5t43 34t70 14.5q42 0 76 -9t62 -31q6 10 13 26.5t7 27.5q-50 56 -165 56q-45 0 -86.5 -12.5t-73 -34.5t-49.5 -51.5t-18 -62.5q0 -34 32 -67.5t92 -56.5
q-25 -9 -54 -28t-49.5 -48.5t-20.5 -59.5q0 -36 37 -67.5t136 -64.5q83 -27 108.5 -51t25.5 -55q0 -39 -40 -58.5t-91 -19.5q-41 0 -81 11t-67 29q-6 -6 -14 -19t-8 -26q0 -16 21.5 -31.5t69 -24.5t87.5 -9q33 0 69 8t69 27.5t56 50.5t23 69t-19 65t-45 42t-49 24zM426 147
q75 -50 75 -136q0 -38 -20 -74t-55.5 -63t-82.5 -42.5t-99 -15.5q-49 0 -107 14.5t-84.5 39t-26.5 51.5q0 9 16.5 38.5t36.5 60.5q28 -25 73.5 -42t85.5 -17q26 0 48 5.5t31.5 16t9.5 21.5t-10 22.5t-32.5 21t-63.5 23.5q-84 28 -123 50.5t-58.5 53.5t-19.5 67q0 37 21.5 71
t59.5 60q-36 21 -58.5 54.5t-22.5 74.5q0 40 21 76.5t58 63t85.5 41.5t101.5 15q76 0 130 -24t73 -69v-7q0 -22 -16.5 -49.5t-36.5 -48.5q-55 53 -142 53q-38 0 -61.5 -12.5t-23.5 -31.5q0 -9 11 -21.5t79 -35.5q65 -22 101.5 -40t61 -43.5t32 -52t7.5 -45.5q0 -31 -22 -66
t-53 -58zM209 249q0 -8 10 -13t19 -5q37 0 63 9t26 24q0 11 -10.5 17t-24.5 6q-41 0 -62 -12t-21 -26zM236 196q-27 0 -47 14t-20 39q0 29 32.5 52t90.5 23q17 0 35 -7t29 -22.5t11 -30.5q0 -33 -38 -50.5t-93 -17.5z" />
    <glyph glyph-name="dieresis" unicode="&#xa8;" horiz-adv-x="379" 
d="M49 621l-27 138q17 9 39 14.5t40 5.5q34 0 80 -20l-28 -138h-104zM230 621l-27 138q17 9 39 14.5t40 5.5q34 0 80 -20l-28 -138h-104zM65 737l15 -81h42l19 80q-24 10 -39 10t-37 -9zM246 737l15 -81h42l19 80q-26 10 -39 10q-15 0 -37 -9z" />
    <glyph glyph-name="copyright" unicode="&#xa9;" horiz-adv-x="858" 
d="M556 238q-20 -13 -46 -22t-50 -9q-25 0 -53.5 8.5t-57.5 31.5t-44 57t-15 67q0 67 50 115t120 48q51 0 94 -27l19 40q0 17 -43.5 34t-85.5 17q-47 0 -88.5 -17.5t-72 -48.5t-47.5 -72.5t-17 -87.5q0 -34 12 -72t44 -77t79.5 -59t93.5 -20q24 0 53.5 6t52 20t22.5 27
q0 5 -5 17.5t-15 23.5zM73 373q0 -75 29 -141t80 -113.5t116.5 -73t134.5 -25.5t132 25.5t111 73t75.5 113t27.5 141.5t-27.5 142t-76 113.5t-111.5 73.5t-131 26q-69 0 -134.5 -26t-116.5 -73.5t-80 -113.5t-29 -142zM30 373q0 108 51.5 199t146 144.5t205.5 53.5
q78 0 149.5 -28.5t125 -81.5t84 -127t30.5 -160q0 -85 -30 -159t-83.5 -126.5t-125 -81t-150.5 -28.5q-110 0 -205 53t-146.5 144t-51.5 198zM568 289q20 -28 31.5 -53.5t11.5 -40.5q0 -8 -4.5 -18.5t-12.5 -19.5q-62 -51 -146 -51q-54 0 -103 20.5t-86 57t-58 85.5t-21 103
q0 53 20 101.5t56 84.5t84.5 56.5t103.5 20.5q25 0 62.5 -9.5t71 -31.5t33.5 -46q0 -8 -3 -16l-39 -85q-26 23 -55 36t-54 13t-56 -12.5t-53.5 -44t-22.5 -68.5q0 -38 22.5 -70t53.5 -45t56 -13q26 0 54.5 11.5t53.5 34.5z" />
    <glyph glyph-name="guillemotleft" unicode="&#xab;" horiz-adv-x="435" 
d="M56 281l128 -195q-6 29 -22.5 82.5t-43.5 112.5q19 41 38 96t28 98zM155 281q19 -50 38 -119t27 -127h-35l-170 246l170 245h35q-9 -58 -27.5 -126.5t-37.5 -118.5zM246 281l128 -195q-6 29 -22.5 82.5t-43.5 112.5q19 41 38 96t28 98zM345 281q19 -50 38 -119t27 -127
h-35l-170 246l170 245h35q-9 -58 -27.5 -126.5t-37.5 -118.5z" />
    <glyph glyph-name="registered" unicode="&#xae;" horiz-adv-x="460" 
d="M231 827q31 0 66 -10t70.5 -38t54 -70.5t18.5 -85.5t-16.5 -81t-45 -65.5t-67 -43t-80.5 -15.5t-80.5 15.5t-68 43t-46 65.5t-16.5 81t16.5 80.5t46 65.5t68 43t80.5 15zM235 607l46 -85h29l-43 86q59 13 59 60q0 29 -24.5 45.5t-63.5 16.5h-89v-208h27v85h59zM176 705
h60q59 0 59 -38q0 -18 -16.5 -27t-42.5 -9h-60v74zM266 500l-44 85h-25v-85h-69v250h110q21 0 47 -7.5t44 -27.5t18 -47q0 -26 -13 -44.5t-37 -27.5l49 -96h-80zM236 684h-39v-32h39q16 0 26.5 3t10.5 13q0 16 -37 16zM231 443q36 0 70 13.5t59 38t39.5 58t14.5 70.5
q0 27 -9.5 57.5t-32.5 57.5t-59 46t-82 19q-76 0 -131 -52.5t-55 -127.5q0 -37 13 -66.5t33 -52.5t57 -42t83 -19z" />
    <glyph glyph-name="macron" unicode="&#xaf;" horiz-adv-x="448" 
d="M73 621v124h297v-124h-297zM113 705v-44h217v44h-217z" />
    <glyph glyph-name="degree" unicode="&#xb0;" horiz-adv-x="258" 
d="M94 678q0 -18 9.5 -30t25.5 -12q17 1 27 13t10 29t-10.5 29.5t-26.5 13.5q-15 0 -25 -13t-10 -30zM73 678q0 28 15.5 47t40.5 19q27 -1 43 -20t16 -46q0 -29 -15.5 -47.5t-44.5 -19.5q-25 0 -40 19.5t-15 47.5zM20 676q0 22 11 49t38.5 47t59.5 20q21 0 47 -11.5
t44 -40.5t18 -64q0 -49 -31.5 -82t-77.5 -33q-33 0 -60 19.5t-38 46.5t-11 49zM44 676q0 -18 8.5 -40t29.5 -38t47 -16q17 0 37.5 9.5t35 33t14.5 51.5q0 17 -8.5 39t-30.5 38t-48 16q-17 0 -36.5 -9.5t-34 -33t-14.5 -50.5z" />
    <glyph glyph-name="acute" unicode="&#xb4;" horiz-adv-x="263" 
d="M108 663q22 11 44.5 37.5t22.5 44.5q0 6 -4.5 11.5t-11.5 5.5q-20 0 -34.5 -26.5t-16.5 -72.5zM109 621h-40q1 45 11 89t33 65t52 21q19 0 33 -13t14 -34q0 -30 -30 -67t-73 -61z" />
    <glyph glyph-name="paragraph" unicode="&#xb6;" horiz-adv-x="764" 
d="M343 750h355v-884h-124v766h-45v-766h-124v340h-62q-65 0 -124.5 21t-104.5 59t-70 88t-25 105t25 105t70 87t104.5 58t124.5 21zM348 712q-57 0 -109.5 -18t-91.5 -50.5t-61 -75.5t-22 -89q0 -47 22 -90t61.5 -75t91.5 -50t109 -18h97v-348h44v772h125v-772h44v814h-310
z" />
    <glyph glyph-name="periodcentered" unicode="&#xb7;" horiz-adv-x="264" 
d="M66 281l-41 170q24 13 48 22t66 10q26 0 53.5 -8.5t46.5 -23.5l-37 -170h-136zM71 431l26 -110h71l24 111q-26 11 -53 11q-41 -1 -68 -12z" />
    <glyph glyph-name="cedilla" unicode="&#xb8;" horiz-adv-x="539" 
d="M175 -137l18 33q9 -13 25.5 -24.5t39.5 -11.5q10 0 21 6t11 17q0 14 -14 22.5t-32 9.5l33 105h78l-17 -59q21 -8 37.5 -29.5t16.5 -50.5q0 -23 -14.5 -46t-38.5 -33.5t-47 -10.5t-47.5 8t-42.5 26t-27 38zM288 -187q17 0 35 8.5t29 27.5t11 38q0 24 -16.5 41.5
t-37.5 23.5l14 48h-26l-20 -67q15 -6 27 -19.5t12 -31.5t-14.5 -31t-37.5 -13q-20 0 -38 8t-28 18q9 -20 33 -35.5t57 -15.5z" />
    <glyph glyph-name="guillemotright" unicode="&#xbb;" horiz-adv-x="435" 
d="M251 86l128 195l-128 194q6 -29 22.5 -82t43.5 -112q-19 -41 -38 -96.5t-28 -98.5zM280 281q-19 50 -37.5 118.5t-27.5 126.5h35l170 -245l-170 -246h-35q6 40 22.5 109t42.5 137zM61 86l128 195l-128 194q6 -29 22.5 -82t43.5 -112q-19 -41 -38 -96.5t-28 -98.5zM90 281
q-19 50 -37.5 118.5t-27.5 126.5h35l170 -245l-170 -246h-35q6 40 22.5 109t42.5 137z" />
    <glyph glyph-name="questiondown" unicode="&#xbf;" horiz-adv-x="640" 
d="M569 88q7 5 7 9l-2 5l-30 69q-37 -25 -84.5 -42t-89.5 -17q-37 0 -83 10.5t-78.5 36t-32.5 56.5q0 20 18.5 39.5t70 46t64.5 35.5t21 16.5t12.5 16t4.5 16.5q-1 56 -13 101h-48l4 -39q0 -15 -4.5 -29t-14.5 -21.5t-26 -13.5q-92 -37 -147.5 -85t-55.5 -102q0 -35 22 -67
t61 -56t91 -37.5t109 -13.5q147 0 224 66zM594 56q-43 -35 -108 -54.5t-141 -19.5q-48 0 -102 11t-109 41.5t-83.5 74.5t-28.5 87q0 34 17.5 68.5t62.5 72t132 78.5q2 1 13.5 5.5t17 11t5.5 15.5q0 13 -12 79h124q23 -87 23 -126q0 -32 -10 -51q-3 -5 -9.5 -12t-19 -15.5
t-30.5 -19.5t-24 -14q-96 -55 -96 -73q0 -26 45.5 -44.5t108.5 -18.5q42 0 96.5 24.5t92.5 57.5l49 -113q8 -14 8 -24q0 -23 -22 -41zM401 733l-24 -147h-125l-21 154q47 25 84 25q22 0 46 -9.5t40 -22.5zM342 626l15 89q-16 10 -42 10q-21 0 -41 -8l14 -91h54z" />
    <glyph glyph-name="Agrave" unicode="&#xc0;" horiz-adv-x="820" 
d="M374 619h55l130 -363h-318zM402 572l-104 -276h205q-17 48 -49 133.5t-52 142.5zM310 710l-246 -675h102l37 114h396l44 -114h115l-255 675h-193zM4 -5l278 755h249l284 -755h-199l-43 114h-342l-39 -114h-188zM382 838q-2 46 -16.5 72.5t-34.5 26.5q-7 0 -11.5 -5.5
t-4.5 -11.5q0 -18 22.5 -44.5t44.5 -37.5zM421 796h-40q-43 24 -73 61t-30 67q0 21 14 34t33 13q29 0 52 -21t33 -65t11 -89z" />
    <glyph glyph-name="Aacute" unicode="&#xc1;" horiz-adv-x="820" 
d="M374 619h55l130 -363h-318zM402 572l-104 -276h205q-17 48 -49 133.5t-52 142.5zM310 710l-246 -675h102l37 114h396l44 -114h115l-255 675h-193zM4 -5l278 755h249l284 -755h-199l-43 114h-342l-39 -114h-188zM423 838q22 11 44.5 37.5t22.5 44.5q0 6 -4.5 11.5
t-11.5 5.5q-20 0 -34.5 -26.5t-16.5 -72.5zM424 796h-40q1 45 11 89t33 65t52 21q19 0 33 -13t14 -34q0 -30 -30 -67t-73 -61z" />
    <glyph glyph-name="Acircumflex" unicode="&#xc2;" horiz-adv-x="820" 
d="M374 619h55l130 -363h-318zM402 572l-104 -276h205q-17 48 -49 133.5t-52 142.5zM310 710l-246 -675h102l37 114h396l44 -114h115l-255 675h-193zM4 -5l278 755h249l284 -755h-199l-43 114h-342l-39 -114h-188zM410 878q45 -22 97 -39l-97 88l-97 -88q52 17 97 39z
M410 841q-81 -37 -166 -58v35q98 102 166 159q68 -57 166 -159v-35q-85 21 -166 58z" />
    <glyph glyph-name="Atilde" unicode="&#xc3;" horiz-adv-x="820" 
d="M374 619h55l130 -363h-318zM402 572l-104 -276h205q-17 48 -49 133.5t-52 142.5zM310 710l-246 -675h102l37 114h396l44 -114h115l-255 675h-193zM4 -5l278 755h249l284 -755h-199l-43 114h-342l-39 -114h-188zM211 797q7 47 31.5 83t54 50.5t62.5 14.5q32 0 76 -17
t73 -17q30 0 58 8.5t43 19.5q-3 -21 -14 -50t-30 -51t-45 -35t-59 -13q-32 0 -76 17.5t-73 17.5q-30 0 -58 -8.5t-43 -19.5zM266 850q9 7 26 12t37 5q25 0 64 -16.5t66 -16.5q34 0 59.5 16.5t35.5 36.5q-25 -15 -59 -15q-24 0 -65 17t-68 17q-34 0 -60 -17t-36 -39z" />
    <glyph glyph-name="Adieresis" unicode="&#xc4;" horiz-adv-x="820" 
d="M374 619h55l130 -363h-318zM402 572l-104 -276h205q-17 48 -49 133.5t-52 142.5zM310 710l-246 -675h102l37 114h396l44 -114h115l-255 675h-193zM4 -5l278 755h249l284 -755h-199l-43 114h-342l-39 -114h-188zM261 797l-27 138q17 9 39 14.5t40 5.5q34 0 80 -20
l-28 -138h-104zM442 797l-27 138q17 9 39 14.5t40 5.5q34 0 80 -20l-28 -138h-104zM277 913l15 -81h42l19 80q-24 10 -39 10t-37 -9zM458 913l15 -81h42l19 80q-26 10 -39 10q-15 0 -37 -9z" />
    <glyph glyph-name="Aring" unicode="&#xc5;" horiz-adv-x="820" 
d="M374 619h55l130 -363h-318zM402 572l-104 -276h205q-17 48 -49 133.5t-52 142.5zM310 710l-246 -675h102l37 114h396l44 -114h115l-255 675h-193zM4 -5l278 755h249l284 -755h-199l-43 114h-342l-39 -114h-188zM387 890q0 -11 6 -19t17 -8q11 1 17.5 8.5t6.5 18.5
q0 12 -7 20t-17 8t-16.5 -8t-6.5 -20zM364 890q0 22 13 37.5t33 15.5q21 -1 34 -16t13 -37q0 -23 -12.5 -37.5t-35.5 -15.5q-20 0 -32.5 15.5t-12.5 37.5zM310 889q0 20 10 45t35 43t55 18q19 0 42.5 -10.5t40.5 -37t17 -58.5q0 -21 -10 -46t-35 -42.5t-55 -17.5
q-19 0 -42.5 10.5t-40.5 37t-17 58.5zM339 889q0 -32 21 -55t50 -23q30 0 51 23t21 55q0 31 -21 54t-51 23q-29 0 -50 -23t-21 -54z" />
    <glyph glyph-name="AE" unicode="&#xc6;" horiz-adv-x="1186" 
d="M0 -5l514 755h647v-180h-372v-99h249v-187h-249v-104h377v-185h-581v113h-289l-73 -113h-223zM1121 710l-585 -1l-457 -674h121q63 96 74 114h351v-114h501v105h-377v184h249v107h-249v179h372v100zM591 618h34v-363h-280zM421 295h164v247z" />
    <glyph glyph-name="Ccedilla" unicode="&#xc7;" horiz-adv-x="699" 
d="M251 -137l18 33q9 -13 25.5 -24.5t39.5 -11.5q10 0 21 6t11 17q0 14 -14 22.5t-32 9.5l26 84q-65 13 -124.5 47.5t-104 84.5t-66.5 103t-26.5 88t-4.5 48v7q0 54 18 110t46.5 102.5t74 85t108 61t141.5 22.5q47 0 95 -9t86 -28t62.5 -44.5t26.5 -48.5q0 -18 -37 -78
t-41 -56q-33 38 -76 60.5t-83 22.5q-44 0 -84.5 -12t-71.5 -36.5t-49 -62.5t-18 -87q0 -35 12.5 -71t40.5 -66t70.5 -50t93.5 -20q33 0 67 10t59.5 30.5t41.5 42.5q6 -6 21 -24.5t34.5 -52.5t19.5 -53q0 -7 -3 -16.5t-9 -15.5q-19 -24 -54 -49t-85.5 -39.5t-99.5 -14.5h-5
l-8 -29q21 -8 37.5 -29.5t16.5 -50.5q0 -23 -14.5 -46t-38.5 -33.5t-47 -10.5t-47.5 8t-42.5 26t-27 38zM629 111q3 3 3 8q0 11 -10.5 31t-24.5 39q-64 -57 -162 -57q-48 0 -94.5 17t-84 49.5t-59.5 79t-22 102.5q0 52 19.5 97t55 77t84 49.5t104.5 17.5q82 0 148 -54
q14 15 25 33.5t11 31.5q0 15 -31 38.5t-81 35.5t-102 12q-82 0 -144.5 -27t-106.5 -73.5t-70.5 -112t-26.5 -128.5v-5q0 -31 10 -73t37.5 -86t66 -80t86 -60.5t91.5 -33.5t76 -9q59 0 111.5 20t90.5 61zM364 -187q17 0 35 8.5t29 27.5t11 38q0 24 -16.5 41.5t-37.5 23.5
l11 40l-25 2l-18 -61q15 -6 27 -19.5t12 -31.5t-14.5 -31t-37.5 -13q-20 0 -38 8t-28 18q9 -20 33 -35.5t57 -15.5z" />
    <glyph glyph-name="Egrave" unicode="&#xc8;" horiz-adv-x="631" 
d="M30 -5v755h576v-180h-372v-99h249v-187h-249v-104h377v-185h-581zM70 710v-675h501v105h-377v184h249v107h-249v179h372v100h-496zM303 839q-2 46 -16.5 72.5t-34.5 26.5q-7 0 -11.5 -5.5t-4.5 -11.5q0 -18 22.5 -44.5t44.5 -37.5zM342 797h-40q-43 24 -73 61t-30 67
q0 21 14 34t33 13q29 0 52 -21t33 -65t11 -89z" />
    <glyph glyph-name="Eacute" unicode="&#xc9;" horiz-adv-x="631" 
d="M30 -5v755h576v-180h-372v-99h249v-187h-249v-104h377v-185h-581zM70 710v-675h501v105h-377v184h249v107h-249v179h372v100h-496zM327 839q22 11 44.5 37.5t22.5 44.5q0 6 -4.5 11.5t-11.5 5.5q-20 0 -34.5 -26.5t-16.5 -72.5zM328 797h-40q1 45 11 89t33 65t52 21
q19 0 33 -13t14 -34q0 -30 -30 -67t-73 -61z" />
    <glyph glyph-name="Ecircumflex" unicode="&#xca;" horiz-adv-x="631" 
d="M30 -5v755h576v-180h-372v-99h249v-187h-249v-104h377v-185h-581zM70 710v-675h501v105h-377v184h249v107h-249v179h372v100h-496zM325 877q45 -22 97 -39l-97 88l-97 -88q52 17 97 39zM325 840q-81 -37 -166 -58v35q98 102 166 159q68 -57 166 -159v-35q-85 21 -166 58z
" />
    <glyph glyph-name="Edieresis" unicode="&#xcb;" horiz-adv-x="631" 
d="M30 -5v755h576v-180h-372v-99h249v-187h-249v-104h377v-185h-581zM70 710v-675h501v105h-377v184h249v107h-249v179h372v100h-496zM182 797l-27 138q17 9 39 14.5t40 5.5q34 0 80 -20l-28 -138h-104zM363 797l-27 138q17 9 39 14.5t40 5.5q34 0 80 -20l-28 -138h-104z
M198 913l15 -81h42l19 80q-24 10 -39 10t-37 -9zM379 913l15 -81h42l19 80q-26 10 -39 10q-15 0 -37 -9z" />
    <glyph glyph-name="Igrave" unicode="&#xcc;" horiz-adv-x="267" 
d="M35 -5v755h197v-755h-197zM75 710v-674h117v674h-117zM115 838q-2 46 -16.5 72.5t-34.5 26.5q-7 0 -11.5 -5.5t-4.5 -11.5q0 -18 22.5 -44.5t44.5 -37.5zM154 796h-40q-43 24 -73 61t-30 67q0 21 14 34t33 13q29 0 52 -21t33 -65t11 -89z" />
    <glyph glyph-name="Iacute" unicode="&#xcd;" horiz-adv-x="267" 
d="M35 -5v755h197v-755h-197zM75 710v-674h117v674h-117zM154 838q22 11 44.5 37.5t22.5 44.5q0 6 -4.5 11.5t-11.5 5.5q-20 0 -34.5 -26.5t-16.5 -72.5zM155 796h-40q1 45 11 89t33 65t52 21q19 0 33 -13t14 -34q0 -30 -30 -67t-73 -61z" />
    <glyph glyph-name="Icircumflex" unicode="&#xce;" horiz-adv-x="267" 
d="M35 -5v755h197v-755h-197zM75 710v-674h117v674h-117zM134 878q45 -22 97 -39l-97 88l-97 -88q52 17 97 39zM134 841q-81 -37 -166 -58v35q98 102 166 159q68 -57 166 -159v-35q-85 21 -166 58z" />
    <glyph glyph-name="Idieresis" unicode="&#xcf;" horiz-adv-x="267" 
d="M35 -5v755h197v-755h-197zM75 710v-674h117v674h-117zM-9 797l-27 138q17 9 39 14.5t40 5.5q34 0 80 -20l-28 -138h-104zM172 797l-27 138q17 9 39 14.5t40 5.5q34 0 80 -20l-28 -138h-104zM7 913l15 -81h42l19 80q-24 10 -39 10t-37 -9zM188 913l15 -81h42l19 80
q-26 10 -39 10q-15 0 -37 -9z" />
    <glyph glyph-name="Eth" unicode="&#xd0;" horiz-adv-x="702" 
d="M227 305v-117h76q50 0 93.5 23t66 65t22.5 98q0 48 -18.5 94t-58 71.5t-88.5 25.5h-93v-123h98v-137h-98zM72 345v-310h244q41 0 94 12.5t97.5 41.5t74 68t45 91.5t15.5 117.5q0 29 -4.5 70.5t-17.5 79t-32.5 69t-59 64t-90.5 47.5t-90 15h-277v-309h-40v-57h41zM187 402
v203h133q36 0 73 -12.5t69.5 -45t47.5 -80t15 -93.5q0 -69 -27.5 -120t-80.5 -79t-114 -28h-116v198h100v57h-100zM31 305h-37v137h37v308h317q44 0 101 -16t110.5 -58t88 -119.5t34.5 -190.5q0 -59 -11.5 -108t-36 -95t-73.5 -86t-115.5 -61t-129.5 -21h-285v310z" />
    <glyph glyph-name="Ntilde" unicode="&#xd1;" horiz-adv-x="733" 
d="M515 -5l-288 478v-478h-197v755h248q166 -269 228 -372v372h197v-755h-188zM187 578h23l327 -543h126v675h-117v-476q-60 100 -291 476h-185v-675h117v543zM177 797q7 47 31.5 83t54 50.5t62.5 14.5q32 0 76 -17t73 -17q30 0 58 8.5t43 19.5q-3 -21 -14 -50t-30 -51
t-45 -35t-59 -13q-32 0 -76 17.5t-73 17.5q-30 0 -58 -8.5t-43 -19.5zM232 850q9 7 26 12t37 5q25 0 64 -16.5t66 -16.5q34 0 59.5 16.5t35.5 36.5q-25 -15 -59 -15q-24 0 -65 17t-68 17q-34 0 -60 -17t-36 -39z" />
    <glyph glyph-name="Ograve" unicode="&#xd2;" horiz-adv-x="771" 
d="M20 373v5q0 36 10.5 83.5t38 97t74 96t114 77t135.5 30.5q64 0 129 -31t117 -85t82.5 -125.5t30.5 -147.5q0 -37 -10.5 -84.5t-38.5 -97.5t-74.5 -96.5t-111.5 -77t-128 -30.5q-69 0 -135.5 32t-118.5 86.5t-82.5 125t-31.5 142.5zM60 378v-5q4 -66 32.5 -129.5t75 -112
t105 -76.5t117.5 -28q56 0 113.5 27.5t104.5 75.5t75 111.5t28 131.5t-27 132t-73.5 113t-104 76.5t-114.5 27.5q-29 0 -68.5 -9t-82 -33.5t-78 -60t-60 -80t-34 -87t-9.5 -74.5zM219 372q0 -30 10 -64.5t35.5 -69.5t59.5 -53t63 -18q22 0 48.5 10.5t53 36t46.5 66.5t20 92
q0 42 -14.5 80t-38.5 66t-54 44t-61 16t-61.5 -16t-54.5 -44.5t-38 -66.5t-14 -79zM179 372q0 49 17.5 94t47 79.5t67.5 53.5t76 19q28 0 61.5 -12.5t70 -47.5t56.5 -85.5t20 -100.5q0 -36 -12.5 -77.5t-44 -83t-73.5 -63t-78 -21.5t-73 19t-67.5 53t-49 79.5t-18.5 93.5z
M364 838q-2 46 -16.5 72.5t-34.5 26.5q-7 0 -11.5 -5.5t-4.5 -11.5q0 -18 22.5 -44.5t44.5 -37.5zM403 796h-40q-43 24 -73 61t-30 67q0 21 14 34t33 13q29 0 52 -21t33 -65t11 -89z" />
    <glyph glyph-name="Oacute" unicode="&#xd3;" horiz-adv-x="771" 
d="M20 373v5q0 36 10.5 83.5t38 97t74 96t114 77t135.5 30.5q64 0 129 -31t117 -85t82.5 -125.5t30.5 -147.5q0 -37 -10.5 -84.5t-38.5 -97.5t-74.5 -96.5t-111.5 -77t-128 -30.5q-69 0 -135.5 32t-118.5 86.5t-82.5 125t-31.5 142.5zM60 378v-5q4 -66 32.5 -129.5t75 -112
t105 -76.5t117.5 -28q56 0 113.5 27.5t104.5 75.5t75 111.5t28 131.5t-27 132t-73.5 113t-104 76.5t-114.5 27.5q-29 0 -68.5 -9t-82 -33.5t-78 -60t-60 -80t-34 -87t-9.5 -74.5zM219 372q0 -30 10 -64.5t35.5 -69.5t59.5 -53t63 -18q22 0 48.5 10.5t53 36t46.5 66.5t20 92
q0 42 -14.5 80t-38.5 66t-54 44t-61 16t-61.5 -16t-54.5 -44.5t-38 -66.5t-14 -79zM179 372q0 49 17.5 94t47 79.5t67.5 53.5t76 19q28 0 61.5 -12.5t70 -47.5t56.5 -85.5t20 -100.5q0 -36 -12.5 -77.5t-44 -83t-73.5 -63t-78 -21.5t-73 19t-67.5 53t-49 79.5t-18.5 93.5z
M402 839q22 11 44.5 37.5t22.5 44.5q0 6 -4.5 11.5t-11.5 5.5q-20 0 -34.5 -26.5t-16.5 -72.5zM403 797h-40q1 45 11 89t33 65t52 21q19 0 33 -13t14 -34q0 -30 -30 -67t-73 -61z" />
    <glyph glyph-name="Ocircumflex" unicode="&#xd4;" horiz-adv-x="771" 
d="M20 373v5q0 36 10.5 83.5t38 97t74 96t114 77t135.5 30.5q64 0 129 -31t117 -85t82.5 -125.5t30.5 -147.5q0 -37 -10.5 -84.5t-38.5 -97.5t-74.5 -96.5t-111.5 -77t-128 -30.5q-69 0 -135.5 32t-118.5 86.5t-82.5 125t-31.5 142.5zM60 378v-5q4 -66 32.5 -129.5t75 -112
t105 -76.5t117.5 -28q56 0 113.5 27.5t104.5 75.5t75 111.5t28 131.5t-27 132t-73.5 113t-104 76.5t-114.5 27.5q-29 0 -68.5 -9t-82 -33.5t-78 -60t-60 -80t-34 -87t-9.5 -74.5zM219 372q0 -30 10 -64.5t35.5 -69.5t59.5 -53t63 -18q22 0 48.5 10.5t53 36t46.5 66.5t20 92
q0 42 -14.5 80t-38.5 66t-54 44t-61 16t-61.5 -16t-54.5 -44.5t-38 -66.5t-14 -79zM179 372q0 49 17.5 94t47 79.5t67.5 53.5t76 19q28 0 61.5 -12.5t70 -47.5t56.5 -85.5t20 -100.5q0 -36 -12.5 -77.5t-44 -83t-73.5 -63t-78 -21.5t-73 19t-67.5 53t-49 79.5t-18.5 93.5z
M385 877q45 -22 97 -39l-97 88l-97 -88q52 17 97 39zM385 840q-81 -37 -166 -58v35q98 102 166 159q68 -57 166 -159v-35q-85 21 -166 58z" />
    <glyph glyph-name="Otilde" unicode="&#xd5;" horiz-adv-x="771" 
d="M20 373v5q0 36 10.5 83.5t38 97t74 96t114 77t135.5 30.5q64 0 129 -31t117 -85t82.5 -125.5t30.5 -147.5q0 -37 -10.5 -84.5t-38.5 -97.5t-74.5 -96.5t-111.5 -77t-128 -30.5q-69 0 -135.5 32t-118.5 86.5t-82.5 125t-31.5 142.5zM60 378v-5q4 -66 32.5 -129.5t75 -112
t105 -76.5t117.5 -28q56 0 113.5 27.5t104.5 75.5t75 111.5t28 131.5t-27 132t-73.5 113t-104 76.5t-114.5 27.5q-29 0 -68.5 -9t-82 -33.5t-78 -60t-60 -80t-34 -87t-9.5 -74.5zM219 372q0 -30 10 -64.5t35.5 -69.5t59.5 -53t63 -18q22 0 48.5 10.5t53 36t46.5 66.5t20 92
q0 42 -14.5 80t-38.5 66t-54 44t-61 16t-61.5 -16t-54.5 -44.5t-38 -66.5t-14 -79zM179 372q0 49 17.5 94t47 79.5t67.5 53.5t76 19q28 0 61.5 -12.5t70 -47.5t56.5 -85.5t20 -100.5q0 -36 -12.5 -77.5t-44 -83t-73.5 -63t-78 -21.5t-73 19t-67.5 53t-49 79.5t-18.5 93.5z
M206 797q7 47 31.5 83t54 50.5t62.5 14.5q32 0 76 -17t73 -17q30 0 58 8.5t43 19.5q-3 -21 -14 -50t-30 -51t-45 -35t-59 -13q-32 0 -76 17.5t-73 17.5q-30 0 -58 -8.5t-43 -19.5zM261 850q9 7 26 12t37 5q25 0 64 -16.5t66 -16.5q34 0 59.5 16.5t35.5 36.5q-25 -15 -59 -15
q-24 0 -65 17t-68 17q-34 0 -60 -17t-36 -39z" />
    <glyph glyph-name="Odieresis" unicode="&#xd6;" horiz-adv-x="771" 
d="M20 373v5q0 36 10.5 83.5t38 97t74 96t114 77t135.5 30.5q64 0 129 -31t117 -85t82.5 -125.5t30.5 -147.5q0 -37 -10.5 -84.5t-38.5 -97.5t-74.5 -96.5t-111.5 -77t-128 -30.5q-69 0 -135.5 32t-118.5 86.5t-82.5 125t-31.5 142.5zM60 378v-5q4 -66 32.5 -129.5t75 -112
t105 -76.5t117.5 -28q56 0 113.5 27.5t104.5 75.5t75 111.5t28 131.5t-27 132t-73.5 113t-104 76.5t-114.5 27.5q-29 0 -68.5 -9t-82 -33.5t-78 -60t-60 -80t-34 -87t-9.5 -74.5zM219 372q0 -30 10 -64.5t35.5 -69.5t59.5 -53t63 -18q22 0 48.5 10.5t53 36t46.5 66.5t20 92
q0 42 -14.5 80t-38.5 66t-54 44t-61 16t-61.5 -16t-54.5 -44.5t-38 -66.5t-14 -79zM179 372q0 49 17.5 94t47 79.5t67.5 53.5t76 19q28 0 61.5 -12.5t70 -47.5t56.5 -85.5t20 -100.5q0 -36 -12.5 -77.5t-44 -83t-73.5 -63t-78 -21.5t-73 19t-67.5 53t-49 79.5t-18.5 93.5z
M243 797l-27 138q17 9 39 14.5t40 5.5q34 0 80 -20l-28 -138h-104zM424 797l-27 138q17 9 39 14.5t40 5.5q34 0 80 -20l-28 -138h-104zM259 913l15 -81h42l19 80q-24 10 -39 10t-37 -9zM440 913l15 -81h42l19 80q-26 10 -39 10q-15 0 -37 -9z" />
    <glyph glyph-name="multiply" unicode="&#xd7;" horiz-adv-x="411" 
d="M20 459l97 97l88 -89l89 89l97 -97l-89 -89l89 -88l-97 -97l-89 88l-88 -88l-97 97l89 88zM246 370l88 89l-40 40l-89 -88l-88 88l-40 -40l88 -89l-88 -88l40 -40l88 88l89 -88l40 40z" />
    <glyph glyph-name="Oslash" unicode="&#xd8;" horiz-adv-x="771" 
d="M20 373v5q0 36 10.5 83.5t38 97t74 96t114 77t135.5 30.5q45 0 92.5 -16t88.5 -44l41 48h140v-54l-78 -96q35 -49 55 -108t20 -119q0 -37 -10.5 -84.5t-38.5 -97.5t-74.5 -96.5t-111.5 -77t-128 -30.5q-89 0 -173 51l-34 -43h-150v64l71 84q-38 50 -59.5 110t-22.5 120z
M219 372q0 -42 13 -75l221 262q-33 19 -66 19q-31 0 -61.5 -16t-54.5 -44.5t-38 -66.5t-14 -79zM555 372q0 35 -11 68l-212 -260q26 -13 55 -13q22 0 48.5 10.5t53 36t46.5 66.5t20 92zM60 378v-5q3 -62 28.5 -122.5t67.5 -107.5l-91 -107h90l50 60q42 -32 89.5 -50.5
t95.5 -18.5q56 0 113.5 27.5t104.5 75.5t75 111.5t28 131.5q0 62 -23 121t-62 106l92 110h-83l-54 -64q-42 35 -91.5 55.5t-97.5 20.5q-29 0 -68.5 -9t-82 -33.5t-78 -60t-60 -80t-34 -87t-9.5 -74.5zM179 372q0 49 17.5 94t47 79.5t67.5 53.5t76 19q32 0 65 -14t60 -39
l-287 -340q-46 67 -46 147zM387 127q-21 0 -52 10t-64 38l283 339q17 -28 29 -65t12 -77q0 -36 -12.5 -77.5t-44 -83t-73.5 -63t-78 -21.5z" />
    <glyph glyph-name="Ugrave" unicode="&#xd9;" horiz-adv-x="688" 
d="M347 129h-4q-31 0 -70 12t-67 41.5t-28 67.5v460h-111v-395q0 -75 3 -116q1 -25 16.5 -53t54.5 -57.5t95 -45t109 -15.5t103 13.5t88 37.5t60 55.5t24 64.5q3 41 3 116v395h-111v-460q0 -38 -28 -67.5t-67 -41.5t-70 -12zM343 170h4q24 0 53.5 8.5t51 31.5t21.5 52v488
h190v-435l-1 -118q-1 -31 -16 -61t-41.5 -55t-62 -44t-85.5 -33t-112 -14q-30 0 -76 6.5t-91 26t-79.5 47t-52 62t-18.5 65.5l-1 118v435h190v-488q0 -19 12.5 -40.5t44.5 -36.5t69 -15zM323 839q-2 46 -16.5 72.5t-34.5 26.5q-7 0 -11.5 -5.5t-4.5 -11.5q0 -18 22.5 -44.5
t44.5 -37.5zM362 797h-40q-43 24 -73 61t-30 67q0 21 14 34t33 13q29 0 52 -21t33 -65t11 -89z" />
    <glyph glyph-name="Uacute" unicode="&#xda;" horiz-adv-x="688" 
d="M347 129h-4q-31 0 -70 12t-67 41.5t-28 67.5v460h-111v-395q0 -75 3 -116q1 -25 16.5 -53t54.5 -57.5t95 -45t109 -15.5t103 13.5t88 37.5t60 55.5t24 64.5q3 41 3 116v395h-111v-460q0 -38 -28 -67.5t-67 -41.5t-70 -12zM343 170h4q24 0 53.5 8.5t51 31.5t21.5 52v488
h190v-435l-1 -118q-1 -31 -16 -61t-41.5 -55t-62 -44t-85.5 -33t-112 -14q-30 0 -76 6.5t-91 26t-79.5 47t-52 62t-18.5 65.5l-1 118v435h190v-488q0 -19 12.5 -40.5t44.5 -36.5t69 -15zM362 839q22 11 44.5 37.5t22.5 44.5q0 6 -4.5 11.5t-11.5 5.5q-20 0 -34.5 -26.5
t-16.5 -72.5zM363 797h-40q1 45 11 89t33 65t52 21q19 0 33 -13t14 -34q0 -30 -30 -67t-73 -61z" />
    <glyph glyph-name="Ucircumflex" unicode="&#xdb;" horiz-adv-x="688" 
d="M347 129h-4q-31 0 -70 12t-67 41.5t-28 67.5v460h-111v-395q0 -75 3 -116q1 -25 16.5 -53t54.5 -57.5t95 -45t109 -15.5t103 13.5t88 37.5t60 55.5t24 64.5q3 41 3 116v395h-111v-460q0 -38 -28 -67.5t-67 -41.5t-70 -12zM343 170h4q24 0 53.5 8.5t51 31.5t21.5 52v488
h190v-435l-1 -118q-1 -31 -16 -61t-41.5 -55t-62 -44t-85.5 -33t-112 -14q-30 0 -76 6.5t-91 26t-79.5 47t-52 62t-18.5 65.5l-1 118v435h190v-488q0 -19 12.5 -40.5t44.5 -36.5t69 -15zM344 878q45 -22 97 -39l-97 88l-97 -88q52 17 97 39zM344 841q-81 -37 -166 -58v35
q98 102 166 159q68 -57 166 -159v-35q-85 21 -166 58z" />
    <glyph glyph-name="Udieresis" unicode="&#xdc;" horiz-adv-x="688" 
d="M347 129h-4q-31 0 -70 12t-67 41.5t-28 67.5v460h-111v-395q0 -75 3 -116q1 -25 16.5 -53t54.5 -57.5t95 -45t109 -15.5t103 13.5t88 37.5t60 55.5t24 64.5q3 41 3 116v395h-111v-460q0 -38 -28 -67.5t-67 -41.5t-70 -12zM343 170h4q24 0 53.5 8.5t51 31.5t21.5 52v488
h190v-435l-1 -118q-1 -31 -16 -61t-41.5 -55t-62 -44t-85.5 -33t-112 -14q-30 0 -76 6.5t-91 26t-79.5 47t-52 62t-18.5 65.5l-1 118v435h190v-488q0 -19 12.5 -40.5t44.5 -36.5t69 -15zM201 797l-27 138q17 9 39 14.5t40 5.5q34 0 80 -20l-28 -138h-104zM382 797l-27 138
q17 9 39 14.5t40 5.5q34 0 80 -20l-28 -138h-104zM217 913l15 -81h42l19 80q-24 10 -39 10t-37 -9zM398 913l15 -81h42l19 80q-26 10 -39 10q-15 0 -37 -9z" />
    <glyph glyph-name="Yacute" unicode="&#xdd;" horiz-adv-x="704" 
d="M5 750h222l136 -184l126 184h210l-249 -358v-397h-184v394zM207 710h-124l223 -309v-365h104v366l215 308h-114l-147 -213zM381 839q22 11 44.5 37.5t22.5 44.5q0 6 -4.5 11.5t-11.5 5.5q-20 0 -34.5 -26.5t-16.5 -72.5zM382 797h-40q1 45 11 89t33 65t52 21q19 0 33 -13
t14 -34q0 -30 -30 -67t-73 -61z" />
    <glyph glyph-name="Thorn" unicode="&#xde;" horiz-adv-x="718" 
d="M35 -5v755h197v-104h142q65 0 124.5 -21.5t104.5 -59t70 -88t25 -105.5t-25 -105t-70 -88t-104.5 -59t-124.5 -21h-142v-104h-197zM374 606h-182v104h-117v-675h117v104h182q57 0 109 18t91.5 50t61.5 75t22 90t-22 90t-61.5 75.5t-91.5 50.5t-109 18zM192 506h173
q70 0 119.5 -39t49.5 -93t-49.5 -92.5t-119.5 -38.5h-173v263zM365 466h-133v-183h133q25 0 55 9t52 32t22 50q0 18 -13 39.5t-45.5 37t-70.5 15.5z" />
    <glyph glyph-name="germandbls" unicode="&#xdf;" horiz-adv-x="705" 
d="M559 590q0 -16 -4.5 -35.5t-16 -38.5t-40.5 -52.5t-29 -51.5q0 -16 48 -42.5t71 -41t48.5 -39t36.5 -52.5t11 -52q0 -29 -12 -61t-40.5 -59.5t-76.5 -47t-113 -19.5q-50 0 -108 21t-83 49t-25 53q0 7 12 32t39 69q29 -33 74 -56t85 -23q79 0 79 43q0 9 -6 19t-21 20.5
t-56 30.5t-58.5 30.5t-30.5 21t-24 23.5t-19 31t-8 42q0 23 11 45.5t40.5 49t39.5 36.5t15.5 21.5t5.5 21.5q0 22 -15 36t-42 14q-46 0 -82 -26t-56.5 -72t-20.5 -113v-422h-156v433q0 82 26.5 146.5t71 106.5t100 63t111.5 21q49 0 90 -14t69.5 -39t43.5 -56.5t15 -65.5z
M516 592q0 20 -8 43t-28 44t-55 36.5t-87 15.5q-51 0 -99 -19.5t-85.5 -58t-59.5 -96t-22 -129.5v-392h76v372q0 47 10.5 93.5t36 83t64 59t88.5 22.5q21 0 44.5 -8.5t39.5 -29.5t16 -45q0 -7 -2 -17.5t-8 -22t-15 -21.5t-48.5 -45t-39.5 -73q0 -34 25 -58.5t78 -50
t68.5 -35t26.5 -19t19 -23.5t8 -32q0 -40 -34.5 -59.5t-89.5 -19.5q-40 0 -80 17t-68 44q-6 -8 -14 -22.5t-8 -25.5q0 -20 25 -38t68 -31t84 -13q89 0 145 42.5t56 104.5q0 33 -19 59t-41.5 41t-91 51.5t-68.5 74.5q0 11 5.5 25.5t34.5 46.5t39 51t12 35t2 23z" />
    <glyph glyph-name="agrave" unicode="&#xe0;" horiz-adv-x="572" 
d="M567 118l-49 -120q-40 -5 -62 -5q-33 0 -56 10.5t-27 29.5q-25 -21 -46.5 -33t-50.5 -12q-55 0 -102.5 22t-82 61.5t-53 93t-18.5 112.5q0 60 16.5 114.5t48.5 95.5t78 64t101 23t96 -29v22h154v-387q0 -12 16.5 -30t36.5 -32zM178 282q0 -27 10.5 -60t36.5 -57.5
t55 -24.5q49 0 72 60q12 33 12 100q0 55 -3 99q-13 11 -31.5 18.5t-35.5 7.5q-40 0 -67.5 -25t-38 -58t-10.5 -60zM138 282q0 27 8.5 62t31.5 63.5t52.5 43t63.5 14.5q54 0 105 -48q5 -62 5 -117q0 -77 -14 -114q-33 -86 -110 -86q-33 0 -68 24.5t-54.5 68.5t-19.5 89z
M400 478l-5 -2q-30 32 -58 45.5t-68 13.5q-46 0 -85.5 -20t-67 -56t-42 -83t-14.5 -99q0 -38 10.5 -80.5t39.5 -85t74 -64.5t91 -22q17 0 49 18.5t73 65.5q6 -37 16 -56.5t43 -19.5l32 1l29 73q-15 12 -29 31.5t-14 41.5v347h-74v-49zM264 663q-2 46 -16.5 72.5t-34.5 26.5
q-7 0 -11.5 -5.5t-4.5 -11.5q0 -18 22.5 -44.5t44.5 -37.5zM303 621h-40q-43 24 -73 61t-30 67q0 21 14 34t33 13q29 0 52 -21t33 -65t11 -89z" />
    <glyph glyph-name="aacute" unicode="&#xe1;" horiz-adv-x="572" 
d="M567 118l-49 -120q-40 -5 -62 -5q-33 0 -56 10.5t-27 29.5q-25 -21 -46.5 -33t-50.5 -12q-55 0 -102.5 22t-82 61.5t-53 93t-18.5 112.5q0 60 16.5 114.5t48.5 95.5t78 64t101 23t96 -29v22h154v-387q0 -12 16.5 -30t36.5 -32zM178 282q0 -27 10.5 -60t36.5 -57.5
t55 -24.5q49 0 72 60q12 33 12 100q0 55 -3 99q-13 11 -31.5 18.5t-35.5 7.5q-40 0 -67.5 -25t-38 -58t-10.5 -60zM138 282q0 27 8.5 62t31.5 63.5t52.5 43t63.5 14.5q54 0 105 -48q5 -62 5 -117q0 -77 -14 -114q-33 -86 -110 -86q-33 0 -68 24.5t-54.5 68.5t-19.5 89z
M400 478l-5 -2q-30 32 -58 45.5t-68 13.5q-46 0 -85.5 -20t-67 -56t-42 -83t-14.5 -99q0 -38 10.5 -80.5t39.5 -85t74 -64.5t91 -22q17 0 49 18.5t73 65.5q6 -37 16 -56.5t43 -19.5l32 1l29 73q-15 12 -29 31.5t-14 41.5v347h-74v-49zM307 663q22 11 44.5 37.5t22.5 44.5
q0 6 -4.5 11.5t-11.5 5.5q-20 0 -34.5 -26.5t-16.5 -72.5zM308 621h-40q1 45 11 89t33 65t52 21q19 0 33 -13t14 -34q0 -30 -30 -67t-73 -61z" />
    <glyph glyph-name="acircumflex" unicode="&#xe2;" horiz-adv-x="572" 
d="M567 118l-49 -120q-40 -5 -62 -5q-33 0 -56 10.5t-27 29.5q-25 -21 -46.5 -33t-50.5 -12q-55 0 -102.5 22t-82 61.5t-53 93t-18.5 112.5q0 60 16.5 114.5t48.5 95.5t78 64t101 23t96 -29v22h154v-387q0 -12 16.5 -30t36.5 -32zM178 282q0 -27 10.5 -60t36.5 -57.5
t55 -24.5q49 0 72 60q12 33 12 100q0 55 -3 99q-13 11 -31.5 18.5t-35.5 7.5q-40 0 -67.5 -25t-38 -58t-10.5 -60zM138 282q0 27 8.5 62t31.5 63.5t52.5 43t63.5 14.5q54 0 105 -48q5 -62 5 -117q0 -77 -14 -114q-33 -86 -110 -86q-33 0 -68 24.5t-54.5 68.5t-19.5 89z
M400 478l-5 -2q-30 32 -58 45.5t-68 13.5q-46 0 -85.5 -20t-67 -56t-42 -83t-14.5 -99q0 -38 10.5 -80.5t39.5 -85t74 -64.5t91 -22q17 0 49 18.5t73 65.5q6 -37 16 -56.5t43 -19.5l32 1l29 73q-15 12 -29 31.5t-14 41.5v347h-74v-49zM286 691q45 -22 97 -39l-97 88l-97 -88
q52 17 97 39zM286 654q-81 -37 -166 -58v35q98 102 166 159q68 -57 166 -159v-35q-85 21 -166 58z" />
    <glyph glyph-name="atilde" unicode="&#xe3;" horiz-adv-x="572" 
d="M567 118l-49 -120q-40 -5 -62 -5q-33 0 -56 10.5t-27 29.5q-25 -21 -46.5 -33t-50.5 -12q-55 0 -102.5 22t-82 61.5t-53 93t-18.5 112.5q0 60 16.5 114.5t48.5 95.5t78 64t101 23t96 -29v22h154v-387q0 -12 16.5 -30t36.5 -32zM178 282q0 -27 10.5 -60t36.5 -57.5
t55 -24.5q49 0 72 60q12 33 12 100q0 55 -3 99q-13 11 -31.5 18.5t-35.5 7.5q-40 0 -67.5 -25t-38 -58t-10.5 -60zM138 282q0 27 8.5 62t31.5 63.5t52.5 43t63.5 14.5q54 0 105 -48q5 -62 5 -117q0 -77 -14 -114q-33 -86 -110 -86q-33 0 -68 24.5t-54.5 68.5t-19.5 89z
M400 478l-5 -2q-30 32 -58 45.5t-68 13.5q-46 0 -85.5 -20t-67 -56t-42 -83t-14.5 -99q0 -38 10.5 -80.5t39.5 -85t74 -64.5t91 -22q17 0 49 18.5t73 65.5q6 -37 16 -56.5t43 -19.5l32 1l29 73q-15 12 -29 31.5t-14 41.5v347h-74v-49zM97 626q7 47 31.5 83t54 50.5
t62.5 14.5q32 0 76 -17t73 -17q30 0 58 8.5t43 19.5q-3 -21 -14 -50t-30 -51t-45 -35t-59 -13q-32 0 -76 17.5t-73 17.5q-30 0 -58 -8.5t-43 -19.5zM152 679q9 7 26 12t37 5q25 0 64 -16.5t66 -16.5q34 0 59.5 16.5t35.5 36.5q-25 -15 -59 -15q-24 0 -65 17t-68 17
q-34 0 -60 -17t-36 -39z" />
    <glyph glyph-name="adieresis" unicode="&#xe4;" horiz-adv-x="572" 
d="M567 118l-49 -120q-40 -5 -62 -5q-33 0 -56 10.5t-27 29.5q-25 -21 -46.5 -33t-50.5 -12q-55 0 -102.5 22t-82 61.5t-53 93t-18.5 112.5q0 60 16.5 114.5t48.5 95.5t78 64t101 23t96 -29v22h154v-387q0 -12 16.5 -30t36.5 -32zM178 282q0 -27 10.5 -60t36.5 -57.5
t55 -24.5q49 0 72 60q12 33 12 100q0 55 -3 99q-13 11 -31.5 18.5t-35.5 7.5q-40 0 -67.5 -25t-38 -58t-10.5 -60zM138 282q0 27 8.5 62t31.5 63.5t52.5 43t63.5 14.5q54 0 105 -48q5 -62 5 -117q0 -77 -14 -114q-33 -86 -110 -86q-33 0 -68 24.5t-54.5 68.5t-19.5 89z
M400 478l-5 -2q-30 32 -58 45.5t-68 13.5q-46 0 -85.5 -20t-67 -56t-42 -83t-14.5 -99q0 -38 10.5 -80.5t39.5 -85t74 -64.5t91 -22q17 0 49 18.5t73 65.5q6 -37 16 -56.5t43 -19.5l32 1l29 73q-15 12 -29 31.5t-14 41.5v347h-74v-49zM144 621l-27 138q17 9 39 14.5t40 5.5
q34 0 80 -20l-28 -138h-104zM325 621l-27 138q17 9 39 14.5t40 5.5q34 0 80 -20l-28 -138h-104zM160 737l15 -81h42l19 80q-24 10 -39 10t-37 -9zM341 737l15 -81h42l19 80q-26 10 -39 10q-15 0 -37 -9z" />
    <glyph glyph-name="aring" unicode="&#xe5;" horiz-adv-x="572" 
d="M567 118l-49 -120q-40 -5 -62 -5q-33 0 -56 10.5t-27 29.5q-25 -21 -46.5 -33t-50.5 -12q-55 0 -102.5 22t-82 61.5t-53 93t-18.5 112.5q0 60 16.5 114.5t48.5 95.5t78 64t101 23t96 -29v22h154v-387q0 -12 16.5 -30t36.5 -32zM178 282q0 -27 10.5 -60t36.5 -57.5
t55 -24.5q49 0 72 60q12 33 12 100q0 55 -3 99q-13 11 -31.5 18.5t-35.5 7.5q-40 0 -67.5 -25t-38 -58t-10.5 -60zM138 282q0 27 8.5 62t31.5 63.5t52.5 43t63.5 14.5q54 0 105 -48q5 -62 5 -117q0 -77 -14 -114q-33 -86 -110 -86q-33 0 -68 24.5t-54.5 68.5t-19.5 89z
M400 478l-5 -2q-30 32 -58 45.5t-68 13.5q-46 0 -85.5 -20t-67 -56t-42 -83t-14.5 -99q0 -38 10.5 -80.5t39.5 -85t74 -64.5t91 -22q17 0 49 18.5t73 65.5q6 -37 16 -56.5t43 -19.5l32 1l29 73q-15 12 -29 31.5t-14 41.5v347h-74v-49zM262 706q0 -11 6 -19t17 -8
q11 1 17.5 8.5t6.5 18.5q0 12 -7 20t-17 8t-16.5 -8t-6.5 -20zM239 706q0 22 13 37.5t33 15.5q21 -1 34 -16t13 -37q0 -23 -12.5 -37.5t-35.5 -15.5q-20 0 -32.5 15.5t-12.5 37.5zM185 705q0 20 10 45t35 43t55 18q19 0 42.5 -10.5t40.5 -37t17 -58.5q0 -21 -10 -46
t-35 -42.5t-55 -17.5q-19 0 -42.5 10.5t-40.5 37t-17 58.5zM214 705q0 -32 21 -55t50 -23q30 0 51 23t21 55q0 31 -21 54t-51 23q-29 0 -50 -23t-21 -54z" />
    <glyph glyph-name="ae" unicode="&#xe6;" horiz-adv-x="912" 
d="M514 567v-22q56 29 117 29q55 0 103.5 -23.5t84 -65.5t54.5 -97t19 -115v-28h-369q11 -54 52.5 -83.5t94.5 -29.5q34 0 64 8t50 17.5t34 18.5t14 8q1 -2 11 -14.5t19 -27.5t15 -29.5t6 -28.5q0 -13 -11 -26q-29 -35 -90 -54.5t-131 -19.5q-54 0 -105 11.5t-81.5 29
t-44.5 36.5q-8 -15 -32 -32t-54 -25t-55 -8h-10q-55 0 -101.5 21t-79.5 59t-50.5 90t-17.5 111q0 60 16.5 114.5t48.5 95.5t78 64t101 23t96 -29v22h154zM416 123q27 -48 94 -74.5t143 -26.5q57 0 108 15.5t78 42.5l1 8q0 16 -21 44q-31 -16 -71 -28t-75 -12t-68 10.5
t-60 32.5t-44 57.5t-21 83.5l6 5h366q-3 77 -33.5 135t-77.5 89t-109 31q-36 0 -70 -10.5t-86 -42.5l-2 44h-74v-49l-5 -2q-30 32 -58 45.5t-68 13.5q-46 0 -85.5 -20t-67 -56t-42 -83t-14.5 -99q0 -51 15 -96.5t43 -79.5t67.5 -52.5t85.5 -18.5q45 0 87 27t58 66zM138 282
q0 27 8.5 62t31.5 63.5t52.5 43t63.5 14.5q54 0 105 -48q5 -62 5 -117q0 -77 -14 -114q-33 -86 -110 -86q-33 0 -68 24.5t-54.5 68.5t-19.5 89zM178 282q0 -27 10.5 -60t36.5 -57.5t55 -24.5q49 0 72 60q12 33 12 100q0 55 -3 99q-13 11 -31.5 18.5t-35.5 7.5
q-40 0 -67.5 -25t-38 -58t-10.5 -60zM490 335l-3 9q15 40 40.5 68.5t56 39.5t56.5 11h5q99 -3 129 -128h-284zM722 375q-21 47 -78 48h-4q-65 0 -95 -48h177z" />
    <glyph glyph-name="ccedilla" unicode="&#xe7;" horiz-adv-x="513" 
d="M168 -137l18 33q9 -13 25.5 -24.5t39.5 -11.5q10 0 21 6t11 17q0 14 -14 22.5t-32 9.5l24 78q-50 9 -94.5 35t-77.5 65t-51 88t-18 101q0 59 22 113t62 94.5t94 63t115 22.5q38 0 84 -15.5t73.5 -36t27.5 -42.5q0 -9 -4 -17l-41 -91q-29 24 -61 38t-60 14q-38 0 -75 -19
t-57 -54t-20 -71q0 -29 15 -62.5t53 -58.5t84 -25q30 0 61 13t57 39q48 -69 48 -104q0 -8 -5 -19.5t-14 -19.5q-61 -50 -141 -56l-7 -27q21 -8 37.5 -29.5t16.5 -50.5q0 -23 -14.5 -46t-38.5 -33.5t-47 -10.5t-47.5 8t-42.5 26t-27 38zM440 132q-23 -15 -52.5 -25t-55.5 -10
q-29 0 -61 9.5t-64.5 35.5t-49.5 64t-17 75q0 27 10 58t34 59t62 47.5t86 19.5q27 0 55 -8t50 -21l21 45q0 10 -18 22.5t-57.5 23t-69.5 10.5q-53 0 -99.5 -20t-81 -55t-53.5 -82t-19 -98t20 -98t55.5 -82t83 -55t99.5 -20q83 0 140 49l4 9q0 6 -5.5 20t-16.5 27zM281 -187
q17 0 35 8.5t29 27.5t11 38q0 24 -16.5 41.5t-37.5 23.5l10 35l-26 2l-16 -56q15 -6 27 -19.5t12 -31.5t-14.5 -31t-37.5 -13q-20 0 -38 8t-28 18q9 -20 33 -35.5t57 -15.5z" />
    <glyph glyph-name="egrave" unicode="&#xe8;" horiz-adv-x="567" 
d="M325 132q34 0 64 8t50 17.5t34 18.5t14 8q1 -2 11 -14.5t19 -27.5t15 -29.5t6 -28.5q0 -13 -11 -26q-12 -14 -40.5 -32.5t-73.5 -32.5t-84 -14q-57 0 -113 21t-100 60.5t-70 95.5t-26 122q0 59 20 113.5t56.5 95.5t85.5 64t104 23t103.5 -23.5t84 -65.5t54.5 -97t19 -115
v-28h-369q11 -54 52.5 -83.5t94.5 -29.5zM135 276l6 5h366q-3 77 -33.5 135t-77.5 89t-109 31q-35 0 -73.5 -13.5t-76.5 -50t-57.5 -90t-19.5 -104.5q0 -57 22.5 -105.5t61 -83t87 -52.5t98.5 -18q35 0 70.5 8.5t59 23t35.5 29.5l1 8q0 16 -21 44q-31 -16 -71 -28t-75 -12
t-68 10.5t-60 32.5t-44 57.5t-21 83.5zM145 335l-3 9q15 40 40.5 68.5t56 39.5t56.5 11h5q99 -3 129 -128h-284zM377 375q-21 47 -78 48h-4q-65 0 -95 -48h177zM277 663q-2 46 -16.5 72.5t-34.5 26.5q-7 0 -11.5 -5.5t-4.5 -11.5q0 -18 22.5 -44.5t44.5 -37.5zM316 621h-40
q-43 24 -73 61t-30 67q0 21 14 34t33 13q29 0 52 -21t33 -65t11 -89z" />
    <glyph glyph-name="eacute" unicode="&#xe9;" horiz-adv-x="567" 
d="M325 132q34 0 64 8t50 17.5t34 18.5t14 8q1 -2 11 -14.5t19 -27.5t15 -29.5t6 -28.5q0 -13 -11 -26q-12 -14 -40.5 -32.5t-73.5 -32.5t-84 -14q-57 0 -113 21t-100 60.5t-70 95.5t-26 122q0 59 20 113.5t56.5 95.5t85.5 64t104 23t103.5 -23.5t84 -65.5t54.5 -97t19 -115
v-28h-369q11 -54 52.5 -83.5t94.5 -29.5zM135 276l6 5h366q-3 77 -33.5 135t-77.5 89t-109 31q-35 0 -73.5 -13.5t-76.5 -50t-57.5 -90t-19.5 -104.5q0 -57 22.5 -105.5t61 -83t87 -52.5t98.5 -18q35 0 70.5 8.5t59 23t35.5 29.5l1 8q0 16 -21 44q-31 -16 -71 -28t-75 -12
t-68 10.5t-60 32.5t-44 57.5t-21 83.5zM145 335l-3 9q15 40 40.5 68.5t56 39.5t56.5 11h5q99 -3 129 -128h-284zM377 375q-21 47 -78 48h-4q-65 0 -95 -48h177zM301 663q22 11 44.5 37.5t22.5 44.5q0 6 -4.5 11.5t-11.5 5.5q-20 0 -34.5 -26.5t-16.5 -72.5zM302 621h-40
q1 45 11 89t33 65t52 21q19 0 33 -13t14 -34q0 -30 -30 -67t-73 -61z" />
    <glyph glyph-name="ecircumflex" unicode="&#xea;" horiz-adv-x="567" 
d="M325 132q34 0 64 8t50 17.5t34 18.5t14 8q1 -2 11 -14.5t19 -27.5t15 -29.5t6 -28.5q0 -13 -11 -26q-12 -14 -40.5 -32.5t-73.5 -32.5t-84 -14q-57 0 -113 21t-100 60.5t-70 95.5t-26 122q0 59 20 113.5t56.5 95.5t85.5 64t104 23t103.5 -23.5t84 -65.5t54.5 -97t19 -115
v-28h-369q11 -54 52.5 -83.5t94.5 -29.5zM135 276l6 5h366q-3 77 -33.5 135t-77.5 89t-109 31q-35 0 -73.5 -13.5t-76.5 -50t-57.5 -90t-19.5 -104.5q0 -57 22.5 -105.5t61 -83t87 -52.5t98.5 -18q35 0 70.5 8.5t59 23t35.5 29.5l1 8q0 16 -21 44q-31 -16 -71 -28t-75 -12
t-68 10.5t-60 32.5t-44 57.5t-21 83.5zM145 335l-3 9q15 40 40.5 68.5t56 39.5t56.5 11h5q99 -3 129 -128h-284zM377 375q-21 47 -78 48h-4q-65 0 -95 -48h177zM283 691q45 -22 97 -39l-97 88l-97 -88q52 17 97 39zM283 654q-81 -37 -166 -58v35q98 102 166 159
q68 -57 166 -159v-35q-85 21 -166 58z" />
    <glyph glyph-name="edieresis" unicode="&#xeb;" horiz-adv-x="567" 
d="M325 132q34 0 64 8t50 17.5t34 18.5t14 8q1 -2 11 -14.5t19 -27.5t15 -29.5t6 -28.5q0 -13 -11 -26q-12 -14 -40.5 -32.5t-73.5 -32.5t-84 -14q-57 0 -113 21t-100 60.5t-70 95.5t-26 122q0 59 20 113.5t56.5 95.5t85.5 64t104 23t103.5 -23.5t84 -65.5t54.5 -97t19 -115
v-28h-369q11 -54 52.5 -83.5t94.5 -29.5zM135 276l6 5h366q-3 77 -33.5 135t-77.5 89t-109 31q-35 0 -73.5 -13.5t-76.5 -50t-57.5 -90t-19.5 -104.5q0 -57 22.5 -105.5t61 -83t87 -52.5t98.5 -18q35 0 70.5 8.5t59 23t35.5 29.5l1 8q0 16 -21 44q-31 -16 -71 -28t-75 -12
t-68 10.5t-60 32.5t-44 57.5t-21 83.5zM145 335l-3 9q15 40 40.5 68.5t56 39.5t56.5 11h5q99 -3 129 -128h-284zM377 375q-21 47 -78 48h-4q-65 0 -95 -48h177zM146 621l-27 138q17 9 39 14.5t40 5.5q34 0 80 -20l-28 -138h-104zM327 621l-27 138q17 9 39 14.5t40 5.5
q34 0 80 -20l-28 -138h-104zM162 737l15 -81h42l19 80q-24 10 -39 10t-37 -9zM343 737l15 -81h42l19 80q-26 10 -39 10q-15 0 -37 -9z" />
    <glyph glyph-name="igrave" unicode="&#xec;" horiz-adv-x="214" 
d="M25 -5v560h164v-560h-164zM65 515v-479h84v479h-84zM99 663q-2 46 -16.5 72.5t-34.5 26.5q-7 0 -11.5 -5.5t-4.5 -11.5q0 -18 22.5 -44.5t44.5 -37.5zM138 621h-40q-43 24 -73 61t-30 67q0 21 14 34t33 13q29 0 52 -21t33 -65t11 -89z" />
    <glyph glyph-name="iacute" unicode="&#xed;" horiz-adv-x="214" 
d="M25 -5v560h164v-560h-164zM65 515v-479h84v479h-84zM117 663q22 11 44.5 37.5t22.5 44.5q0 6 -4.5 11.5t-11.5 5.5q-20 0 -34.5 -26.5t-16.5 -72.5zM118 621h-40q1 45 11 89t33 65t52 21q19 0 33 -13t14 -34q0 -30 -30 -67t-73 -61z" />
    <glyph glyph-name="icircumflex" unicode="&#xee;" horiz-adv-x="214" 
d="M107 691q35 -21 75 -37l-75 84l-75 -84q40 16 75 37zM107 654q-52 -26 -121 -47v35q80 103 121 149q41 -45 121 -148v-35q-69 21 -121 46zM25 -5v560h164v-560h-164zM65 515v-479h84v479h-84z" />
    <glyph glyph-name="idieresis" unicode="&#xef;" horiz-adv-x="214" 
d="M0 621l-13 125q30 17 56 17q24 0 57 -17l-14 -125h-86zM128 621l-13 125q30 17 56 17q24 0 57 -17l-14 -125h-86zM24 723l5 -70h29l7 69q-12 7 -21 7q-1 0 -4.5 -0.5t-8.5 -2.5t-7 -3zM152 723l5 -70h29l7 69q-12 7 -21 7q-1 0 -4.5 -0.5t-8.5 -2.5t-7 -3zM25 -5v560h164
v-560h-164zM65 515v-480h84v480h-84z" />
    <glyph glyph-name="eth" unicode="&#xf0;" horiz-adv-x="597" 
d="M178 260q0 -25 10 -55t37.5 -53t67.5 -23h4q55 2 86.5 40.5t31.5 90.5q0 55 -34 93.5t-87 38.5q-35 0 -64 -22.5t-40.5 -53.5t-11.5 -56zM138 260q0 51 22.5 89.5t56.5 58.5t77 20q72 -1 116.5 -49t44.5 -119q0 -28 -9.5 -58.5t-30 -54.5t-50.5 -38.5t-67 -15.5h-5
q-34 0 -70 16.5t-60.5 58t-24.5 92.5zM221 550v36l47 48l-27 3q-74 0 -142 -67q-19 27 -34 56.5t-15 44.5q0 24 22.5 47.5t74 39.5t94.5 16q34 0 70.5 -8.5t64.5 -22.5l32 32h104v-46l-50 -50q58 -62 86.5 -137.5t28.5 -180.5q0 -87 -20.5 -158t-58 -119.5t-89.5 -73.5
t-112 -25q-59 0 -110.5 19.5t-88.5 56t-57.5 86t-20.5 107.5q0 55 18 105.5t50.5 88t78 58.5t97.5 21q93 0 150 -42q-11 69 -46 98l-35 -33h-112zM415 677l69 68h-63l-42 -41q-28 17 -63.5 26.5t-71.5 9.5q-51 0 -102.5 -22t-51.5 -45q0 -13 22 -50q24 22 59 36t70 14
q52 0 87 -20l-71 -73h62l47 48q38 -29 61.5 -80.5t23.5 -124.5q-79 67 -187 67q-33 0 -68 -12t-65 -41.5t-50.5 -75.5t-20.5 -107q0 -37 11.5 -77t43.5 -78.5t81.5 -57.5t100.5 -19q52 0 96.5 22t76.5 65t49.5 107.5t17.5 144.5q0 114 -31 188t-91 128z" />
    <glyph glyph-name="ntilde" unicode="&#xf1;" horiz-adv-x="564" 
d="M377 -5v373q0 23 -19 38t-57 15q-70 0 -109 -26v-400h-162v571h157v-24q69 32 128 32q53 0 104.5 -16.5t80 -46.5t30.5 -61q4 -32 4 -455h-157zM417 368v-333h77q0 374 -4 409q0 18 -17 38.5t-61.5 36t-96.5 15.5q-29 0 -71.5 -10.5t-91.5 -39.5v42h-82v-491h82v380
q63 46 149 46q59 0 87.5 -26t28.5 -67zM93 626q7 47 31.5 83t54 50.5t62.5 14.5q32 0 76 -17t73 -17q30 0 58 8.5t43 19.5q-3 -21 -14 -50t-30 -51t-45 -35t-59 -13q-32 0 -76 17.5t-73 17.5q-30 0 -58 -8.5t-43 -19.5zM148 679q9 7 26 12t37 5q25 0 64 -16.5t66 -16.5
q34 0 59.5 16.5t35.5 36.5q-25 -15 -59 -15q-24 0 -65 17t-68 17q-34 0 -60 -17t-36 -39z" />
    <glyph glyph-name="ograve" unicode="&#xf2;" horiz-adv-x="592" 
d="M178 285q0 -59 31 -100.5t82 -41.5h4q42 2 70.5 25t38.5 56t10 61t-10.5 60.5t-39 57t-70.5 25.5q-40 0 -67.5 -25t-38 -58t-10.5 -60zM138 285q0 27 8.5 62t31.5 63.5t52.5 43t63.5 14.5q72 -1 116 -53.5t44 -129.5q0 -48 -16 -87t-51 -66t-91 -29h-5q-44 0 -77.5 21.5
t-54.5 63t-21 97.5zM20 280q0 44 14.5 93.5t53.5 99.5t96 76t112 26t106 -23t89 -63.5t59.5 -95t21.5 -113.5t-21.5 -113t-59.5 -94.5t-89 -63.5t-106 -23t-106 23t-89 63.5t-59.5 94.5t-21.5 113zM60 280q0 -51 18.5 -98t51 -82t76 -54.5t90.5 -19.5t90.5 19.5t76 54.5
t51 82t18.5 98t-18.5 98t-51 82t-76 55t-90.5 20t-90.5 -20t-76 -55t-51 -82t-18.5 -98zM275 663q-2 46 -16.5 72.5t-34.5 26.5q-7 0 -11.5 -5.5t-4.5 -11.5q0 -18 22.5 -44.5t44.5 -37.5zM314 621h-40q-43 24 -73 61t-30 67q0 21 14 34t33 13q29 0 52 -21t33 -65t11 -89z
" />
    <glyph glyph-name="oacute" unicode="&#xf3;" horiz-adv-x="592" 
d="M178 285q0 -59 31 -100.5t82 -41.5h4q42 2 70.5 25t38.5 56t10 61t-10.5 60.5t-39 57t-70.5 25.5q-40 0 -67.5 -25t-38 -58t-10.5 -60zM138 285q0 27 8.5 62t31.5 63.5t52.5 43t63.5 14.5q72 -1 116 -53.5t44 -129.5q0 -48 -16 -87t-51 -66t-91 -29h-5q-44 0 -77.5 21.5
t-54.5 63t-21 97.5zM20 280q0 44 14.5 93.5t53.5 99.5t96 76t112 26t106 -23t89 -63.5t59.5 -95t21.5 -113.5t-21.5 -113t-59.5 -94.5t-89 -63.5t-106 -23t-106 23t-89 63.5t-59.5 94.5t-21.5 113zM60 280q0 -51 18.5 -98t51 -82t76 -54.5t90.5 -19.5t90.5 19.5t76 54.5
t51 82t18.5 98t-18.5 98t-51 82t-76 55t-90.5 20t-90.5 -20t-76 -55t-51 -82t-18.5 -98zM308 663q22 11 44.5 37.5t22.5 44.5q0 6 -4.5 11.5t-11.5 5.5q-20 0 -34.5 -26.5t-16.5 -72.5zM309 621h-40q1 45 11 89t33 65t52 21q19 0 33 -13t14 -34q0 -30 -30 -67t-73 -61z" />
    <glyph glyph-name="ocircumflex" unicode="&#xf4;" horiz-adv-x="592" 
d="M178 285q0 -59 31 -100.5t82 -41.5h4q42 2 70.5 25t38.5 56t10 61t-10.5 60.5t-39 57t-70.5 25.5q-40 0 -67.5 -25t-38 -58t-10.5 -60zM138 285q0 27 8.5 62t31.5 63.5t52.5 43t63.5 14.5q72 -1 116 -53.5t44 -129.5q0 -48 -16 -87t-51 -66t-91 -29h-5q-44 0 -77.5 21.5
t-54.5 63t-21 97.5zM20 280q0 44 14.5 93.5t53.5 99.5t96 76t112 26t106 -23t89 -63.5t59.5 -95t21.5 -113.5t-21.5 -113t-59.5 -94.5t-89 -63.5t-106 -23t-106 23t-89 63.5t-59.5 94.5t-21.5 113zM60 280q0 -51 18.5 -98t51 -82t76 -54.5t90.5 -19.5t90.5 19.5t76 54.5
t51 82t18.5 98t-18.5 98t-51 82t-76 55t-90.5 20t-90.5 -20t-76 -55t-51 -82t-18.5 -98zM296 691q45 -22 97 -39l-97 88l-97 -88q52 17 97 39zM296 654q-81 -37 -166 -58v35q98 102 166 159q68 -57 166 -159v-35q-85 21 -166 58z" />
    <glyph glyph-name="otilde" unicode="&#xf5;" horiz-adv-x="592" 
d="M178 285q0 -59 31 -100.5t82 -41.5h4q42 2 70.5 25t38.5 56t10 61t-10.5 60.5t-39 57t-70.5 25.5q-40 0 -67.5 -25t-38 -58t-10.5 -60zM138 285q0 27 8.5 62t31.5 63.5t52.5 43t63.5 14.5q72 -1 116 -53.5t44 -129.5q0 -48 -16 -87t-51 -66t-91 -29h-5q-44 0 -77.5 21.5
t-54.5 63t-21 97.5zM20 280q0 44 14.5 93.5t53.5 99.5t96 76t112 26t106 -23t89 -63.5t59.5 -95t21.5 -113.5t-21.5 -113t-59.5 -94.5t-89 -63.5t-106 -23t-106 23t-89 63.5t-59.5 94.5t-21.5 113zM60 280q0 -51 18.5 -98t51 -82t76 -54.5t90.5 -19.5t90.5 19.5t76 54.5
t51 82t18.5 98t-18.5 98t-51 82t-76 55t-90.5 20t-90.5 -20t-76 -55t-51 -82t-18.5 -98zM98 626q7 47 31.5 83t54 50.5t62.5 14.5q32 0 76 -17t73 -17q30 0 58 8.5t43 19.5q-3 -21 -14 -50t-30 -51t-45 -35t-59 -13q-32 0 -76 17.5t-73 17.5q-30 0 -58 -8.5t-43 -19.5z
M153 679q9 7 26 12t37 5q25 0 64 -16.5t66 -16.5q34 0 59.5 16.5t35.5 36.5q-25 -15 -59 -15q-24 0 -65 17t-68 17q-34 0 -60 -17t-36 -39z" />
    <glyph glyph-name="odieresis" unicode="&#xf6;" horiz-adv-x="592" 
d="M178 285q0 -59 31 -100.5t82 -41.5h4q42 2 70.5 25t38.5 56t10 61t-10.5 60.5t-39 57t-70.5 25.5q-40 0 -67.5 -25t-38 -58t-10.5 -60zM138 285q0 27 8.5 62t31.5 63.5t52.5 43t63.5 14.5q72 -1 116 -53.5t44 -129.5q0 -48 -16 -87t-51 -66t-91 -29h-5q-44 0 -77.5 21.5
t-54.5 63t-21 97.5zM20 280q0 44 14.5 93.5t53.5 99.5t96 76t112 26t106 -23t89 -63.5t59.5 -95t21.5 -113.5t-21.5 -113t-59.5 -94.5t-89 -63.5t-106 -23t-106 23t-89 63.5t-59.5 94.5t-21.5 113zM60 280q0 -51 18.5 -98t51 -82t76 -54.5t90.5 -19.5t90.5 19.5t76 54.5
t51 82t18.5 98t-18.5 98t-51 82t-76 55t-90.5 20t-90.5 -20t-76 -55t-51 -82t-18.5 -98zM153 621l-27 138q17 9 39 14.5t40 5.5q34 0 80 -20l-28 -138h-104zM334 621l-27 138q17 9 39 14.5t40 5.5q34 0 80 -20l-28 -138h-104zM169 737l15 -81h42l19 80q-24 10 -39 10t-37 -9
zM350 737l15 -81h42l19 80q-26 10 -39 10q-15 0 -37 -9z" />
    <glyph glyph-name="divide" unicode="&#xf7;" horiz-adv-x="448" 
d="M173 478l-25 126q35 18 72 18q30 0 73 -18l-26 -126h-94zM186 584l14 -74h38l17 73q-21 7 -34 7q-17 0 -35 -6zM30 302v137h388v-137h-388zM70 399v-57h308v57h-308zM148 136l25 126h94l26 -126q-43 -18 -73 -18q-37 0 -72 18zM200 230l-14 -74q18 -6 35 -6q13 0 34 7
l-17 73h-38z" />
    <glyph glyph-name="oslash" unicode="&#xf8;" horiz-adv-x="592" 
d="M20 280v4q0 60 22 114t61.5 93.5t91 61.5t107.5 22q35 0 71.5 -12t67.5 -33l30 36h106v-41l-57 -73q52 -71 52 -172q0 -65 -23.5 -120t-63 -93.5t-88.5 -59t-98 -20.5q-33 0 -68.5 8.5t-65.5 26.5l-23 -27h-114v47l50 60q-27 36 -42 83t-16 95zM176 279q0 -20 11 -53
l156 190q-21 12 -49 12q-24 0 -51 -14.5t-47 -51.5t-20 -83zM416 279q0 10 -4 42l-146 -174q13 -4 32 -4q34 0 64 21t42 52.5t12 62.5zM60 283v-4q2 -50 19 -96t47 -80l-67 -79h61l40 47q59 -46 141 -46q31 0 68.5 13t78 48.5t62.5 88.5t22 105q0 97 -59 168l75 88h-56
l-48 -56q-31 26 -70 40.5t-74 14.5q-22 0 -51 -6.5t-60 -23.5t-60.5 -47.5t-49 -77t-19.5 -97.5zM138 279q0 86 46.5 137.5t113.5 51.5q24 0 53 -11.5t48 -29.5l-223 -266q-16 22 -27 55.5t-11 62.5zM301 103q-62 0 -93 26l219 263q13 -21 20.5 -52.5t7.5 -60.5
q0 -28 -8 -58t-27 -56t-49.5 -44t-69.5 -18z" />
    <glyph glyph-name="ugrave" unicode="&#xf9;" 
d="M182 566v-373q0 -23 19 -38t57 -15q70 0 109 26v400h162v-571h-157v24q-69 -32 -128 -32q-53 0 -104.5 16.5t-80 46.5t-30.5 61q-4 32 -4 455h157zM142 193v333h-77q0 -374 4 -409q0 -18 17 -38.5t61.5 -36t96.5 -15.5q29 0 71.5 10.5t91.5 39.5v-42h82v491h-82v-380
q-63 -46 -149 -46q-59 0 -87.5 26t-28.5 67zM261 663q-2 46 -16.5 72.5t-34.5 26.5q-7 0 -11.5 -5.5t-4.5 -11.5q0 -18 22.5 -44.5t44.5 -37.5zM300 621h-40q-43 24 -73 61t-30 67q0 21 14 34t33 13q29 0 52 -21t33 -65t11 -89z" />
    <glyph glyph-name="uacute" unicode="&#xfa;" 
d="M182 566v-373q0 -23 19 -38t57 -15q70 0 109 26v400h162v-571h-157v24q-69 -32 -128 -32q-53 0 -104.5 16.5t-80 46.5t-30.5 61q-4 32 -4 455h157zM142 193v333h-77q0 -374 4 -409q0 -18 17 -38.5t61.5 -36t96.5 -15.5q29 0 71.5 10.5t91.5 39.5v-42h82v491h-82v-380
q-63 -46 -149 -46q-59 0 -87.5 26t-28.5 67zM299 663q22 11 44.5 37.5t22.5 44.5q0 6 -4.5 11.5t-11.5 5.5q-20 0 -34.5 -26.5t-16.5 -72.5zM300 621h-40q1 45 11 89t33 65t52 21q19 0 33 -13t14 -34q0 -30 -30 -67t-73 -61z" />
    <glyph glyph-name="ucircumflex" unicode="&#xfb;" 
d="M182 566v-373q0 -23 19 -38t57 -15q70 0 109 26v400h162v-571h-157v24q-69 -32 -128 -32q-53 0 -104.5 16.5t-80 46.5t-30.5 61q-4 32 -4 455h157zM142 193v333h-77q0 -374 4 -409q0 -18 17 -38.5t61.5 -36t96.5 -15.5q29 0 71.5 10.5t91.5 39.5v-42h82v491h-82v-380
q-63 -46 -149 -46q-59 0 -87.5 26t-28.5 67zM278 691q45 -22 97 -39l-97 88l-97 -88q52 17 97 39zM278 654q-81 -37 -166 -58v35q98 102 166 159q68 -57 166 -159v-35q-85 21 -166 58z" />
    <glyph glyph-name="udieresis" unicode="&#xfc;" 
d="M182 566v-373q0 -23 19 -38t57 -15q70 0 109 26v400h162v-571h-157v24q-69 -32 -128 -32q-53 0 -104.5 16.5t-80 46.5t-30.5 61q-4 32 -4 455h157zM142 193v333h-77q0 -374 4 -409q0 -18 17 -38.5t61.5 -36t96.5 -15.5q29 0 71.5 10.5t91.5 39.5v-42h82v491h-82v-380
q-63 -46 -149 -46q-59 0 -87.5 26t-28.5 67zM132 621l-27 138q17 9 39 14.5t40 5.5q34 0 80 -20l-28 -138h-104zM313 621l-27 138q17 9 39 14.5t40 5.5q34 0 80 -20l-28 -138h-104zM148 737l15 -81h42l19 80q-24 10 -39 10t-37 -9zM329 737l15 -81h42l19 80q-26 10 -39 10
q-15 0 -37 -9z" />
    <glyph glyph-name="yacute" unicode="&#xfd;" horiz-adv-x="565" 
d="M182 -223h-7q-50 0 -78.5 15.5t-28.5 44.5q0 5 3.5 17t32.5 98q38 -30 61 -30q21 0 35.5 15t17.5 35l-213 594h175l120 -358l111 359h149l-203 -640q-14 -44 -43.5 -82t-64.5 -53t-67 -15zM312 113l-23 1l-138 412h-88l195 -546q0 -19 -9 -42t-31.5 -39.5t-52.5 -16.5
q-21 0 -40 7q-17 -49 -17 -52q0 -9 17.5 -14.5t49.5 -5.5h7q23 0 51 12.5t52.5 43.5t36.5 66l188 588h-70zM331 663q22 11 44.5 37.5t22.5 44.5q0 6 -4.5 11.5t-11.5 5.5q-20 0 -34.5 -26.5t-16.5 -72.5zM332 621h-40q1 45 11 89t33 65t52 21q19 0 33 -13t14 -34
q0 -30 -30 -67t-73 -61z" />
    <glyph glyph-name="thorn" unicode="&#xfe;" horiz-adv-x="555" 
d="M30 -195v945h159v-201q23 12 51.5 19t53.5 7q49 0 93 -20.5t77.5 -59.5t52 -95t18.5 -123q0 -65 -18.5 -120.5t-52 -95t-77.5 -60.5t-93 -21q-50 0 -106 28v-203h-158zM70 710v-865h78v235q87 -60 146 -60q41 0 78 18.5t64.5 52.5t43 82t15.5 104q0 58 -15.5 106.5
t-43 82t-64.5 51.5t-78 18q-57 0 -140 -55l-5 4v226h-79zM256 459q68 0 114 -50.5t46 -131.5t-46 -129t-114 -48q-58 0 -108 45v268q51 46 108 46zM256 419q-17 0 -35.5 -6.5t-32.5 -17.5v-232q13 -10 32 -16.5t36 -6.5q23 0 51 12t48.5 44.5t20.5 80.5q-1 47 -21 81.5
t-48 47.5t-51 13z" />
    <glyph glyph-name="ydieresis" unicode="&#xff;" horiz-adv-x="565" 
d="M182 -223h-7q-50 0 -78.5 15.5t-28.5 44.5q0 5 3.5 17t32.5 98q38 -30 61 -30q21 0 35.5 15t17.5 35l-213 594h175l120 -358l111 359h149l-203 -640q-14 -44 -43.5 -82t-64.5 -53t-67 -15zM312 113l-23 1l-138 412h-88l195 -546q0 -19 -9 -42t-31.5 -39.5t-52.5 -16.5
q-21 0 -40 7q-17 -49 -17 -52q0 -9 17.5 -14.5t49.5 -5.5h7q23 0 51 12.5t52.5 43.5t36.5 66l188 588h-70zM152 621l-27 138q17 9 39 14.5t40 5.5q34 0 80 -20l-28 -138h-104zM333 621l-27 138q17 9 39 14.5t40 5.5q34 0 80 -20l-28 -138h-104zM168 737l15 -81h42l19 80
q-24 10 -39 10t-37 -9zM349 737l15 -81h42l19 80q-26 10 -39 10q-15 0 -37 -9z" />
    <glyph glyph-name="Amacron" unicode="&#x100;" horiz-adv-x="820" 
d="M374 619h55l130 -363h-318zM402 572l-104 -276h205q-17 48 -49 133.5t-52 142.5zM310 710l-246 -675h102l37 114h396l44 -114h115l-255 675h-193zM4 -5l278 755h249l284 -755h-199l-43 114h-342l-39 -114h-188zM254 796v124h297v-124h-297zM294 880v-44h217v44h-217z" />
    <glyph glyph-name="amacron" unicode="&#x101;" horiz-adv-x="572" 
d="M567 118l-49 -120q-40 -5 -62 -5q-33 0 -56 10.5t-27 29.5q-25 -21 -46.5 -33t-50.5 -12q-55 0 -102.5 22t-82 61.5t-53 93t-18.5 112.5q0 60 16.5 114.5t48.5 95.5t78 64t101 23t96 -29v22h154v-387q0 -12 16.5 -30t36.5 -32zM178 282q0 -27 10.5 -60t36.5 -57.5
t55 -24.5q49 0 72 60q12 33 12 100q0 55 -3 99q-13 11 -31.5 18.5t-35.5 7.5q-40 0 -67.5 -25t-38 -58t-10.5 -60zM138 282q0 27 8.5 62t31.5 63.5t52.5 43t63.5 14.5q54 0 105 -48q5 -62 5 -117q0 -77 -14 -114q-33 -86 -110 -86q-33 0 -68 24.5t-54.5 68.5t-19.5 89z
M400 478l-5 -2q-30 32 -58 45.5t-68 13.5q-46 0 -85.5 -20t-67 -56t-42 -83t-14.5 -99q0 -38 10.5 -80.5t39.5 -85t74 -64.5t91 -22q17 0 49 18.5t73 65.5q6 -37 16 -56.5t43 -19.5l32 1l29 73q-15 12 -29 31.5t-14 41.5v347h-74v-49zM142 621v124h297v-124h-297zM182 705
v-44h217v44h-217z" />
    <glyph glyph-name="Abreve" unicode="&#x102;" horiz-adv-x="820" 
d="M374 619h55l130 -363h-318zM402 572l-104 -276h205q-17 48 -49 133.5t-52 142.5zM310 710l-246 -675h102l37 114h396l44 -114h115l-255 675h-193zM4 -5l278 755h249l284 -755h-199l-43 114h-342l-39 -114h-188zM430 916v27h93v-27q0 -25 -12 -55.5t-42.5 -52t-68.5 -21.5
q-36 0 -67 22t-43 52t-12 55v27h94v-27q0 -13 7 -22t21 -9q14 1 22 9.5t8 21.5zM400 853q-24 0 -39 17t-16 43h-31q1 -39 26 -65.5t60 -26.5q17 0 37.5 8.5t35.5 31.5t16 52h-31q-1 -27 -16 -43t-42 -17z" />
    <glyph glyph-name="abreve" unicode="&#x103;" horiz-adv-x="572" 
d="M567 118l-49 -120q-40 -5 -62 -5q-33 0 -56 10.5t-27 29.5q-25 -21 -46.5 -33t-50.5 -12q-55 0 -102.5 22t-82 61.5t-53 93t-18.5 112.5q0 60 16.5 114.5t48.5 95.5t78 64t101 23t96 -29v22h154v-387q0 -12 16.5 -30t36.5 -32zM178 282q0 -27 10.5 -60t36.5 -57.5
t55 -24.5q49 0 72 60q12 33 12 100q0 55 -3 99q-13 11 -31.5 18.5t-35.5 7.5q-40 0 -67.5 -25t-38 -58t-10.5 -60zM138 282q0 27 8.5 62t31.5 63.5t52.5 43t63.5 14.5q54 0 105 -48q5 -62 5 -117q0 -77 -14 -114q-33 -86 -110 -86q-33 0 -68 24.5t-54.5 68.5t-19.5 89z
M400 478l-5 -2q-30 32 -58 45.5t-68 13.5q-46 0 -85.5 -20t-67 -56t-42 -83t-14.5 -99q0 -38 10.5 -80.5t39.5 -85t74 -64.5t91 -22q17 0 49 18.5t73 65.5q6 -37 16 -56.5t43 -19.5l32 1l29 73q-15 12 -29 31.5t-14 41.5v347h-74v-49zM312 748v27h93v-27q0 -25 -12 -55.5
t-42.5 -52t-68.5 -21.5q-36 0 -67 22t-43 52t-12 55v27h94v-27q0 -13 7 -22t21 -9q14 1 22 9.5t8 21.5zM282 685q-24 0 -39 17t-16 43h-31q1 -39 26 -65.5t60 -26.5q17 0 37.5 8.5t35.5 31.5t16 52h-31q-1 -27 -16 -43t-42 -17z" />
    <glyph glyph-name="Aogonek" unicode="&#x104;" horiz-adv-x="820" 
d="M374 619h55l130 -363h-318zM402 572l-104 -276h205q-17 48 -49 133.5t-52 142.5zM310 710l-246 -675h102l37 114h396l44 -114h115l-255 675h-193zM4 -5l278 755h249l284 -755h-199l-43 114h-342l-39 -114h-188zM715 18v-17q-21 -13 -35.5 -36t-14.5 -50q0 -21 11.5 -36
t31.5 -15q14 0 26 5.5t25 22.5l17 -30q-28 -69 -101 -69q-25 0 -52 11t-44.5 38.5t-17.5 60.5q0 22 8.5 45t30 42.5t41.5 27.5h74zM679 -185q23 0 43.5 12t28.5 31q-22 -19 -50 -19t-46.5 22t-18.5 53q0 24 13.5 47.5t30.5 38.5h-29q-23 -11 -41.5 -37t-18.5 -60
q0 -17 8 -37.5t29.5 -35.5t50.5 -15z" />
    <glyph glyph-name="aogonek" unicode="&#x105;" horiz-adv-x="572" 
d="M567 118l-49 -120l-25 -3q-16 -12 -28.5 -33.5t-12.5 -46.5q0 -21 11.5 -36t31.5 -15q14 0 26 5.5t25 22.5l17 -30q-28 -69 -101 -69q-25 0 -52 11t-44.5 38.5t-17.5 60.5q0 26 12.5 53t40.5 47q-25 10 -28 30q-25 -21 -46.5 -33t-50.5 -12q-55 0 -102.5 22t-82 61.5
t-53 93t-18.5 112.5q0 60 16.5 114.5t48.5 95.5t78 64t101 23t96 -29v22h154v-387q0 -12 16.5 -30t36.5 -32zM400 478l-5 -2q-30 32 -58 45.5t-68 13.5q-46 0 -85.5 -20t-67 -56t-42 -83t-14.5 -99q0 -38 10.5 -80.5t39.5 -85t74 -64.5t91 -22q17 0 49 18.5t73 65.5
q6 -37 16 -56.5t43 -19.5l32 1l29 73q-15 12 -29 31.5t-14 41.5v347h-74v-49zM138 282q0 27 8.5 62t31.5 63.5t52.5 43t63.5 14.5q54 0 105 -48q5 -62 5 -117q0 -77 -14 -114q-33 -86 -110 -86q-33 0 -68 24.5t-54.5 68.5t-19.5 89zM178 282q0 -27 10.5 -60t36.5 -57.5
t55 -24.5q49 0 72 60q12 33 12 100q0 55 -3 99q-13 11 -31.5 18.5t-35.5 7.5q-40 0 -67.5 -25t-38 -58t-10.5 -60zM466 -185q23 0 43.5 12t28.5 31q-22 -19 -50 -19t-46.5 22t-18.5 53q0 18 10 41t25 38l-29 2q-25 -16 -38 -40.5t-13 -51.5q0 -17 8 -37.5t29.5 -35.5
t50.5 -15z" />
    <glyph glyph-name="Cacute" unicode="&#x106;" horiz-adv-x="699" 
d="M629 111q3 3 3 8q0 11 -10.5 31t-24.5 39q-64 -57 -162 -57q-48 0 -94.5 17t-84 49.5t-59.5 79t-22 102.5q0 52 19.5 97t55 77t84 49.5t104.5 17.5q82 0 148 -54q14 15 25 33.5t11 31.5q0 15 -31 38.5t-81 35.5t-102 12q-82 0 -144.5 -27t-106.5 -73.5t-70.5 -112
t-26.5 -128.5v-5q0 -31 10 -73t37.5 -86t66 -80t86 -60.5t91.5 -33.5t76 -9q59 0 111.5 20t90.5 61zM666 93q-19 -24 -54 -49t-85.5 -39.5t-99.5 -14.5q-77 0 -150.5 30t-130.5 82.5t-90.5 122.5t-35.5 145v7q0 54 18 110t46.5 102.5t74 85t108 61t141.5 22.5q47 0 95 -9
t86 -28t62.5 -44.5t26.5 -48.5q0 -18 -37 -78t-41 -56q-33 38 -76 60.5t-83 22.5q-44 0 -84.5 -12t-71.5 -36.5t-49 -62.5t-18 -87q0 -35 12.5 -71t40.5 -66t70.5 -50t93.5 -20q33 0 67 10t59.5 30.5t41.5 42.5q6 -6 21 -24.5t34.5 -52.5t19.5 -53q0 -7 -3 -16.5t-9 -15.5z
M424 839q22 11 44.5 37.5t22.5 44.5q0 6 -4.5 11.5t-11.5 5.5q-20 0 -34.5 -26.5t-16.5 -72.5zM425 797h-40q1 45 11 89t33 65t52 21q19 0 33 -13t14 -34q0 -30 -30 -67t-73 -61z" />
    <glyph glyph-name="cacute" unicode="&#x107;" horiz-adv-x="513" 
d="M450 187q48 -69 48 -104q0 -8 -5 -19.5t-14 -19.5q-68 -57 -161 -57q-60 0 -114.5 23t-96 63.5t-64.5 95t-23 113.5t22 113t62 94.5t94 63t115 22.5q38 0 84 -15.5t73.5 -36t27.5 -42.5q0 -9 -4 -17l-41 -91q-29 24 -61 38t-60 14q-38 0 -75 -19t-57 -54t-20 -71
q0 -29 15 -62.5t53 -58.5t84 -25q30 0 61 13t57 39zM440 132q-23 -15 -52.5 -25t-55.5 -10q-29 0 -61 9.5t-64.5 35.5t-49.5 64t-17 75q0 27 10 58t34 59t62 47.5t86 19.5q27 0 55 -8t50 -21l21 45q0 10 -18 22.5t-57.5 23t-69.5 10.5q-53 0 -99.5 -20t-81 -55t-53.5 -82
t-19 -98t20 -98t55.5 -82t83 -55t99.5 -20q83 0 140 49l4 9q0 6 -5.5 20t-16.5 27zM298 663q22 11 44.5 37.5t22.5 44.5q0 6 -4.5 11.5t-11.5 5.5q-20 0 -34.5 -26.5t-16.5 -72.5zM299 621h-40q1 45 11 89t33 65t52 21q19 0 33 -13t14 -34q0 -30 -30 -67t-73 -61z" />
    <glyph glyph-name="Ccaron" unicode="&#x10c;" horiz-adv-x="699" 
d="M629 111q3 3 3 8q0 11 -10.5 31t-24.5 39q-64 -57 -162 -57q-48 0 -94.5 17t-84 49.5t-59.5 79t-22 102.5q0 52 19.5 97t55 77t84 49.5t104.5 17.5q82 0 148 -54q14 15 25 33.5t11 31.5q0 15 -31 38.5t-81 35.5t-102 12q-82 0 -144.5 -27t-106.5 -73.5t-70.5 -112
t-26.5 -128.5v-5q0 -31 10 -73t37.5 -86t66 -80t86 -60.5t91.5 -33.5t76 -9q59 0 111.5 20t90.5 61zM666 93q-19 -24 -54 -49t-85.5 -39.5t-99.5 -14.5q-77 0 -150.5 30t-130.5 82.5t-90.5 122.5t-35.5 145v7q0 54 18 110t46.5 102.5t74 85t108 61t141.5 22.5q47 0 95 -9
t86 -28t62.5 -44.5t26.5 -48.5q0 -18 -37 -78t-41 -56q-33 38 -76 60.5t-83 22.5q-44 0 -84.5 -12t-71.5 -36.5t-49 -62.5t-18 -87q0 -35 12.5 -71t40.5 -66t70.5 -50t93.5 -20q33 0 67 10t59.5 30.5t41.5 42.5q6 -6 21 -24.5t34.5 -52.5t19.5 -53q0 -7 -3 -16.5t-9 -15.5z
M399 875q-45 22 -97 39l97 -88l97 88q-52 -17 -97 -39zM398 912q81 37 166 58v-35q-98 -102 -166 -159q-68 57 -166 159v35q85 -21 166 -58z" />
    <glyph glyph-name="ccaron" unicode="&#x10d;" horiz-adv-x="513" 
d="M450 187q48 -69 48 -104q0 -8 -5 -19.5t-14 -19.5q-68 -57 -161 -57q-60 0 -114.5 23t-96 63.5t-64.5 95t-23 113.5t22 113t62 94.5t94 63t115 22.5q38 0 84 -15.5t73.5 -36t27.5 -42.5q0 -9 -4 -17l-41 -91q-29 24 -61 38t-60 14q-38 0 -75 -19t-57 -54t-20 -71
q0 -29 15 -62.5t53 -58.5t84 -25q30 0 61 13t57 39zM440 132q-23 -15 -52.5 -25t-55.5 -10q-29 0 -61 9.5t-64.5 35.5t-49.5 64t-17 75q0 27 10 58t34 59t62 47.5t86 19.5q27 0 55 -8t50 -21l21 45q0 10 -18 22.5t-57.5 23t-69.5 10.5q-53 0 -99.5 -20t-81 -55t-53.5 -82
t-19 -98t20 -98t55.5 -82t83 -55t99.5 -20q83 0 140 49l4 9q0 6 -5.5 20t-16.5 27zM287 695q-45 22 -97 39l97 -88l97 88q-52 -17 -97 -39zM286 732q81 37 166 58v-35q-98 -102 -166 -159q-68 57 -166 159v35q85 -21 166 -58z" />
    <glyph glyph-name="Dcaron" unicode="&#x10e;" horiz-adv-x="702" 
d="M31 -5v755h317q44 0 101 -16t110.5 -58t88 -119.5t34.5 -190.5q0 -59 -11.5 -108t-36 -95t-73.5 -86t-115.5 -61t-129.5 -21h-285zM71 711l1 -676h244q41 0 94 12.5t97.5 41.5t74 68t45 91.5t15.5 117.5q0 29 -4.5 70.5t-17.5 79t-32.5 69t-59 64t-90.5 47.5t-90 15h-277
zM227 565v-377h76q50 0 93.5 23t66 65t22.5 98q0 48 -18.5 94t-58 71.5t-88.5 25.5h-93zM187 147v458h133q36 0 73 -12.5t69.5 -45t47.5 -80t15 -93.5q0 -69 -27.5 -120t-80.5 -79t-114 -28h-116zM301 875q-45 22 -97 39l97 -88l97 88q-52 -17 -97 -39zM300 912
q81 37 166 58v-35q-98 -102 -166 -159q-68 57 -166 159v35q85 -21 166 -58z" />
    <glyph glyph-name="dcaron" unicode="&#x10f;" horiz-adv-x="700" 
d="M600 560h-7l-10 31l19 40h-28l-28 120q42 19 77 19t77 -17l-22 -116l-3 -5zM619 618l2 -6l34 49l8 69q-21 8 -40 8t-39 -9l14 -68h36zM379 -5v17q-27 -13 -58.5 -21t-57.5 -8q-49 0 -93.5 23t-78 64t-52.5 95.5t-19 113.5t19 114t52.5 96t78 64t93.5 23q51 0 107 -27v201
h151v-755h-142zM410 76v-40h71v674h-71v-229q-91 55 -147 55q-30 0 -64 -13.5t-68.5 -49.5t-52.5 -89.5t-18 -104.5t16 -98.5t44 -82.5t65 -55t78 -20q31 0 71.5 13.5t75.5 39.5zM287 95q-61 0 -104.5 53.5t-43.5 128.5q0 37 10 66.5t26 53.5t45.5 43.5t66.5 19.5
q13 0 32 -4t43.5 -15.5t47.5 -27.5v-273q-31 -21 -64 -33t-59 -12zM287 135q19 0 40.5 7t42.5 20v229q-21 13 -43.5 21t-39.5 8q-32 0 -59.5 -24.5t-38 -58t-10.5 -60.5q0 -59 31.5 -100.5t76.5 -41.5z" />
    <glyph glyph-name="Dcroat" unicode="&#x110;" horiz-adv-x="702" 
d="M227 305v-117h76q50 0 93.5 23t66 65t22.5 98q0 48 -18.5 94t-58 71.5t-88.5 25.5h-93v-123h98v-137h-98zM72 345v-310h244q41 0 94 12.5t97.5 41.5t74 68t45 91.5t15.5 117.5q0 29 -4.5 70.5t-17.5 79t-32.5 69t-59 64t-90.5 47.5t-90 15h-277v-309h-40v-57h41zM187 402
v203h133q36 0 73 -12.5t69.5 -45t47.5 -80t15 -93.5q0 -69 -27.5 -120t-80.5 -79t-114 -28h-116v198h100v57h-100zM31 305h-37v137h37v308h317q44 0 101 -16t110.5 -58t88 -119.5t34.5 -190.5q0 -59 -11.5 -108t-36 -95t-73.5 -86t-115.5 -61t-129.5 -21h-285v310z" />
    <glyph glyph-name="dcroat" unicode="&#x111;" horiz-adv-x="551" 
d="M287 95q-61 0 -104.5 53.5t-43.5 128.5q0 37 10 66.5t26 53.5t45.5 43.5t66.5 19.5q13 0 32 -4t43.5 -15.5t47.5 -27.5v-273q-31 -21 -64 -33t-59 -12zM287 135q19 0 40.5 7t42.5 20v229q-21 13 -43.5 21t-39.5 8q-32 0 -59.5 -24.5t-38 -58t-10.5 -60.5
q0 -59 31.5 -100.5t76.5 -41.5zM481 621h34v46h-34v44h-71v-44h-70v-46h70v-140q-91 55 -147 55q-30 0 -64 -13.5t-68.5 -49.5t-52.5 -89.5t-18 -104.5t16 -98.5t44 -82.5t65 -55t78 -20q31 0 71.5 13.5t75.5 39.5v-40h71v585zM521 587v-592h-142v17q-27 -13 -58.5 -21
t-57.5 -8q-49 0 -93.5 23t-78 64t-52.5 95.5t-19 113.5t19 114t52.5 96t78 64t93.5 23q51 0 107 -27v38h-64v113h64v50h151v-50h30v-113h-30z" />
    <glyph glyph-name="Emacron" unicode="&#x112;" horiz-adv-x="631" 
d="M30 -5v755h576v-180h-372v-99h249v-187h-249v-104h377v-185h-581zM70 710v-675h501v105h-377v184h249v107h-249v179h372v100h-496zM177 797v124h297v-124h-297zM217 881v-44h217v44h-217z" />
    <glyph glyph-name="emacron" unicode="&#x113;" horiz-adv-x="567" 
d="M325 132q34 0 64 8t50 17.5t34 18.5t14 8q1 -2 11 -14.5t19 -27.5t15 -29.5t6 -28.5q0 -13 -11 -26q-12 -14 -40.5 -32.5t-73.5 -32.5t-84 -14q-57 0 -113 21t-100 60.5t-70 95.5t-26 122q0 59 20 113.5t56.5 95.5t85.5 64t104 23t103.5 -23.5t84 -65.5t54.5 -97t19 -115
v-28h-369q11 -54 52.5 -83.5t94.5 -29.5zM135 276l6 5h366q-3 77 -33.5 135t-77.5 89t-109 31q-35 0 -73.5 -13.5t-76.5 -50t-57.5 -90t-19.5 -104.5q0 -57 22.5 -105.5t61 -83t87 -52.5t98.5 -18q35 0 70.5 8.5t59 23t35.5 29.5l1 8q0 16 -21 44q-31 -16 -71 -28t-75 -12
t-68 10.5t-60 32.5t-44 57.5t-21 83.5zM145 335l-3 9q15 40 40.5 68.5t56 39.5t56.5 11h5q99 -3 129 -128h-284zM377 375q-21 47 -78 48h-4q-65 0 -95 -48h177zM136 621v124h297v-124h-297zM176 705v-44h217v44h-217z" />
    <glyph glyph-name="Edotaccent" unicode="&#x116;" horiz-adv-x="631" 
d="M30 -5v755h576v-180h-372v-99h249v-187h-249v-104h377v-185h-581zM70 710v-675h501v105h-377v184h249v107h-249v179h372v100h-496zM273 797l-27 138q17 9 39 14.5t40 5.5q34 0 80 -20l-28 -138h-104zM288 913l15 -81h42l19 80q-22 8 -38 8q-20 0 -38 -7z" />
    <glyph glyph-name="edotaccent" unicode="&#x117;" horiz-adv-x="567" 
d="M325 132q34 0 64 8t50 17.5t34 18.5t14 8q1 -2 11 -14.5t19 -27.5t15 -29.5t6 -28.5q0 -13 -11 -26q-12 -14 -40.5 -32.5t-73.5 -32.5t-84 -14q-57 0 -113 21t-100 60.5t-70 95.5t-26 122q0 59 20 113.5t56.5 95.5t85.5 64t104 23t103.5 -23.5t84 -65.5t54.5 -97t19 -115
v-28h-369q11 -54 52.5 -83.5t94.5 -29.5zM135 276l6 5h366q-3 77 -33.5 135t-77.5 89t-109 31q-35 0 -73.5 -13.5t-76.5 -50t-57.5 -90t-19.5 -104.5q0 -57 22.5 -105.5t61 -83t87 -52.5t98.5 -18q35 0 70.5 8.5t59 23t35.5 29.5l1 8q0 16 -21 44q-31 -16 -71 -28t-75 -12
t-68 10.5t-60 32.5t-44 57.5t-21 83.5zM145 335l-3 9q15 40 40.5 68.5t56 39.5t56.5 11h5q99 -3 129 -128h-284zM377 375q-21 47 -78 48h-4q-65 0 -95 -48h177zM231 614l-27 138q17 9 39 14.5t40 5.5q34 0 80 -20l-28 -138h-104zM246 730l15 -81h42l19 80q-22 8 -38 8
q-20 0 -38 -7z" />
    <glyph glyph-name="Eogonek" unicode="&#x118;" horiz-adv-x="631" 
d="M30 -5v755h576v-180h-372v-99h249v-187h-249v-104h377v-185h-253q-16 -12 -28.5 -33.5t-12.5 -46.5q0 -21 11.5 -36t31.5 -15q14 0 26 5.5t25 22.5l17 -30q-28 -69 -101 -69q-25 0 -52 11t-44.5 38.5t-17.5 60.5q0 55 43 92h-226zM70 710v-675h501v105h-377v184h249v107
h-249v179h372v100h-496zM331 -185q23 0 43.5 12t28.5 31q-22 -19 -50 -19t-46.5 22t-18.5 53q0 43 38 81h-32q-25 -16 -38 -40.5t-13 -51.5q0 -17 8 -37.5t29.5 -35.5t50.5 -15z" />
    <glyph glyph-name="eogonek" unicode="&#x119;" horiz-adv-x="567" 
d="M325 132q34 0 64 8t50 17.5t34 18.5t14 8q1 -2 11 -14.5t19 -27.5t15 -29.5t6 -28.5q0 -13 -11 -26q-12 -14 -40.5 -32.5t-74 -32.5t-84.5 -14q-10 -12 -17 -29t-7 -35q0 -21 11.5 -36t31.5 -15q14 0 26 5.5t25 22.5l17 -30q-28 -69 -101 -69q-25 0 -52 11t-44.5 38.5
t-17.5 60.5q0 54 39 89q-45 13 -84.5 39t-70 62.5t-47.5 84t-17 100.5q0 59 20 113.5t56.5 95.5t85.5 64t104 23t103.5 -23.5t84 -65.5t54.5 -97t19 -115v-28h-369q11 -54 52.5 -83.5t94.5 -29.5zM135 276l6 5h366q-3 77 -33.5 135t-77.5 89t-109 31q-35 0 -73.5 -13.5
t-76.5 -50t-57.5 -90t-19.5 -104.5q0 -57 22.5 -105.5t61 -83t87 -52.5t98.5 -18q35 0 70.5 8.5t59 23t35.5 29.5l1 8q0 16 -21 44q-31 -16 -71 -28t-75 -12t-68 10.5t-60 32.5t-44 57.5t-21 83.5zM145 335l-3 9q15 40 40.5 68.5t56 39.5t56.5 11h5q99 -3 129 -128h-284z
M318 -185q23 0 43.5 12t28.5 31q-22 -19 -50 -19t-46.5 22t-18.5 53q0 34 25 67l-32 4q-38 -30 -38 -82q0 -17 8 -37.5t29.5 -35.5t50.5 -15zM377 375q-21 47 -78 48h-4q-65 0 -95 -48h177z" />
    <glyph glyph-name="Ecaron" unicode="&#x11a;" horiz-adv-x="631" 
d="M30 -5v755h576v-180h-372v-99h249v-187h-249v-104h377v-185h-581zM70 710v-675h501v105h-377v184h249v107h-249v179h372v100h-496zM332 875q-45 22 -97 39l97 -88l97 88q-52 -17 -97 -39zM331 912q81 37 166 58v-35q-98 -102 -166 -159q-68 57 -166 159v35
q85 -21 166 -58z" />
    <glyph glyph-name="ecaron" unicode="&#x11b;" horiz-adv-x="567" 
d="M325 132q34 0 64 8t50 17.5t34 18.5t14 8q1 -2 11 -14.5t19 -27.5t15 -29.5t6 -28.5q0 -13 -11 -26q-12 -14 -40.5 -32.5t-73.5 -32.5t-84 -14q-57 0 -113 21t-100 60.5t-70 95.5t-26 122q0 59 20 113.5t56.5 95.5t85.5 64t104 23t103.5 -23.5t84 -65.5t54.5 -97t19 -115
v-28h-369q11 -54 52.5 -83.5t94.5 -29.5zM135 276l6 5h366q-3 77 -33.5 135t-77.5 89t-109 31q-35 0 -73.5 -13.5t-76.5 -50t-57.5 -90t-19.5 -104.5q0 -57 22.5 -105.5t61 -83t87 -52.5t98.5 -18q35 0 70.5 8.5t59 23t35.5 29.5l1 8q0 16 -21 44q-31 -16 -71 -28t-75 -12
t-68 10.5t-60 32.5t-44 57.5t-21 83.5zM145 335l-3 9q15 40 40.5 68.5t56 39.5t56.5 11h5q99 -3 129 -128h-284zM377 375q-21 47 -78 48h-4q-65 0 -95 -48h177zM299 695q-45 22 -97 39l97 -88l97 88q-52 -17 -97 -39zM298 732q81 37 166 58v-35q-98 -102 -166 -159
q-68 57 -166 159v35q85 -21 166 -58z" />
    <glyph glyph-name="Gbreve" unicode="&#x11e;" horiz-adv-x="770" 
d="M584 568q31 45 31 61v5q0 3 -3 10t-21 24t-67 34t-104 17h-15l-16 -1q-65 -4 -125.5 -32t-106 -75.5t-71.5 -109.5t-26 -131q0 -70 25.5 -133.5t71 -111.5t105.5 -75t126 -27q60 0 114.5 22.5t95.5 61.5t64.5 91t25.5 107h32v74h-201v-73h49q0 -52 -21.5 -92.5t-57 -62.5
t-82.5 -22q-50 0 -92.5 18.5t-73 51.5t-47 78t-16.5 95t19.5 95.5t53.5 80t79.5 54t94.5 19.5q80 0 159 -53zM387 758l37 1q58 0 115 -16t95 -49t38 -56l-7 -16q-14 -31 -71 -132q-14 23 -41 45t-63.5 34t-64.5 12q-41 0 -84 -18.5t-72 -54t-40 -70.5t-11 -66q0 -87 53 -145
t136 -58q31 0 60.5 17t42 39.5t12.5 39.5h-43v154h281v-154h-35q-7 -55 -36 -106.5t-74.5 -91t-104.5 -62t-122 -22.5q-74 0 -141.5 30t-118.5 83.5t-79.5 124.5t-28.5 149q0 77 28.5 147.5t79.5 123.5t118.5 83.5t140.5 33.5zM424 916v27h93v-27q0 -25 -12 -55.5t-42.5 -52
t-68.5 -21.5q-36 0 -67 22t-43 52t-12 55v27h94v-27q0 -13 7 -22t21 -9q14 1 22 9.5t8 21.5zM394 853q-24 0 -39 17t-16 43h-31q1 -39 26 -65.5t60 -26.5q17 0 37.5 8.5t35.5 31.5t16 52h-31q-1 -27 -16 -43t-42 -17z" />
    <glyph glyph-name="gbreve" unicode="&#x11f;" horiz-adv-x="549" 
d="M26 291v5q0 59 17 111.5t49.5 91t78.5 59.5t100 21q8 0 33.5 -4.5t53.5 -20.5v19h159l2 -626q0 -25 -13.5 -53t-45.5 -53t-83.5 -43t-117.5 -18q-44 0 -94.5 8.5t-76.5 29t-26 47.5q0 22 12 57t23 52q31 -26 73 -41t79 -15q33 0 59 9.5t37.5 26.5t12.5 33l3 42
q-58 -26 -90 -26q-52 0 -97.5 22.5t-78 62t-50.5 92.5t-19 111zM398 533v-38h-7q-60 50 -124 50q-44 0 -81.5 -19t-64 -53t-41 -80t-14.5 -97v-5q1 -63 21 -111.5t45 -75.5t57 -44t73 -18h5q18 0 34.5 2t32 8.5t37.5 21.5t27 18v-105q0 -27 -14.5 -52.5t-52 -41t-82.5 -15.5
q-36 0 -72.5 12t-64.5 28q-10 -35 -10 -53q0 -15 20.5 -27t63 -18t76.5 -6q66 0 115.5 21t75.5 52.5t26 70.5l-2 575h-79zM187 292q0 -40 18.5 -74t43.5 -47t46 -13q34 0 63 24v221q-29 24 -63 24q-21 0 -46 -13.5t-43.5 -47.5t-18.5 -74zM147 292q0 72 43.5 123.5
t104.5 51.5q53 0 103 -48v-253q-48 -48 -103 -48q-61 0 -104.5 51t-43.5 123zM324 748v27h93v-27q0 -25 -12 -55.5t-42.5 -52t-68.5 -21.5q-36 0 -67 22t-43 52t-12 55v27h94v-27q0 -13 7 -22t21 -9q14 1 22 9.5t8 21.5zM294 685q-24 0 -39 17t-16 43h-31q1 -39 26 -65.5
t60 -26.5q17 0 37.5 8.5t35.5 31.5t16 52h-31q-1 -27 -16 -43t-42 -17z" />
    <glyph glyph-name="Gcommaaccent" unicode="&#x122;" horiz-adv-x="779" 
d="M385 -214h-10l-24 30l14 35q-27 5 -48 20l29 96h92l29 -95zM397 -127l-18 -49l3 -5l51 61l-17 57h-47l-16 -51q15 -12 44 -13zM584 568q31 45 31 61v5q0 3 -3 10t-21 24t-67 34t-104 17h-15l-16 -1q-65 -4 -125.5 -32t-106 -75.5t-71.5 -109.5t-26 -131
q0 -70 25.5 -133.5t71 -111.5t105.5 -75t126 -27q60 0 114.5 22.5t95.5 61.5t64.5 91t25.5 107h32v74h-201v-73h49q0 -52 -21.5 -92.5t-57 -62.5t-82.5 -22q-50 0 -92.5 18.5t-73 51.5t-47 78t-16.5 95t19.5 95.5t53.5 80t79.5 54t94.5 19.5q80 0 159 -53zM387 758l37 1
q58 0 115 -16t95 -49t38 -56l-7 -16q-14 -31 -71 -132q-14 23 -41 45t-63.5 34t-64.5 12q-41 0 -84 -18.5t-72 -54t-40 -70.5t-11 -66q0 -87 53 -145t136 -58q31 0 60.5 17t42 39.5t12.5 39.5h-43v154h281v-154h-35q-7 -55 -36 -106.5t-74.5 -91t-104.5 -62t-122 -22.5
q-74 0 -141.5 30t-118.5 83.5t-79.5 124.5t-28.5 149q0 77 28.5 147.5t79.5 123.5t118.5 83.5t140.5 33.5z" />
    <glyph glyph-name="gcommaaccent" unicode="&#x123;" horiz-adv-x="546" 
d="M26 291v5q0 59 17 111.5t49.5 91t78.5 59.5t100 21q8 0 33.5 -4.5t53.5 -20.5v19h159l2 -626q0 -25 -13.5 -53t-45.5 -53t-83.5 -43t-117.5 -18q-44 0 -94.5 8.5t-76.5 29t-26 47.5q0 22 12 57t23 52q31 -26 73 -41t79 -15q33 0 59 9.5t37.5 26.5t12.5 33l3 42
q-58 -26 -90 -26q-52 0 -97.5 22.5t-78 62t-50.5 92.5t-19 111zM398 533v-38h-7q-60 50 -124 50q-44 0 -81.5 -19t-64 -53t-41 -80t-14.5 -97v-5q1 -63 21 -111.5t45 -75.5t57 -44t73 -18h5q18 0 34.5 2t32 8.5t37.5 21.5t27 18v-105q0 -27 -14.5 -52.5t-52 -41t-82.5 -15.5
q-36 0 -72.5 12t-64.5 28q-10 -35 -10 -53q0 -15 20.5 -27t63 -18t76.5 -6q66 0 115.5 21t75.5 52.5t26 70.5l-2 575h-79zM187 292q0 -40 18.5 -74t43.5 -47t46 -13q34 0 63 24v221q-29 24 -63 24q-21 0 -46 -13.5t-43.5 -47.5t-18.5 -74zM147 292q0 72 43.5 123.5
t104.5 51.5q53 0 103 -48v-253q-48 -48 -103 -48q-61 0 -104.5 51t-43.5 123zM279 812h10l24 -30l-14 -35q27 -5 48 -20l-29 -106h-92l-29 105zM267 725l18 49l-3 5l-51 -61l17 -67h47l16 61q-15 12 -44 13z" />
    <glyph glyph-name="Imacron" unicode="&#x12a;" horiz-adv-x="267" 
d="M35 -5v755h197v-755h-197zM75 710v-674h117v674h-117zM-15 797v124h297v-124h-297zM25 881v-44h217v44h-217z" />
    <glyph glyph-name="imacron" unicode="&#x12b;" horiz-adv-x="214" 
d="M-10 621v124h235v-124h-235zM30 705v-44h155v44h-155zM25 -5v559h164v-559h-164zM65 514v-479h84v479h-84z" />
    <glyph glyph-name="Iogonek" unicode="&#x12e;" horiz-adv-x="267" 
d="M232 -5h-106q-16 -12 -28.5 -33.5t-12.5 -46.5q0 -21 11.5 -36t31.5 -15q14 0 26 5.5t25 22.5l17 -30q-28 -69 -101 -69q-25 0 -52 11t-44.5 38.5t-17.5 60.5q0 35 16 60t38 40v747h197v-755zM75 710v-674h117v674h-117zM99 -185q23 0 43.5 12t28.5 31q-22 -19 -50 -19
t-46.5 22t-18.5 53q0 43 38 81h-32q-25 -16 -38 -40.5t-13 -51.5q0 -17 8 -37.5t29.5 -35.5t50.5 -15z" />
    <glyph glyph-name="iogonek" unicode="&#x12f;" horiz-adv-x="214" 
d="M189 -5h-70q-16 -12 -28.5 -33.5t-12.5 -46.5q0 -21 11.5 -36t31.5 -15q14 0 26 5.5t25 22.5l17 -30q-28 -69 -101 -69q-25 0 -52 11t-44.5 38.5t-17.5 60.5q0 26 12 52.5t39 45.5v554h164v-560zM65 515v-480h84v480h-84zM54 601l-27 138q17 9 39 14.5t40 5.5
q34 0 80 -20l-28 -138h-104zM91 -185q23 0 43.5 12t28.5 31q-22 -19 -50 -19t-46.5 22t-18.5 53q0 43 38 81h-32q-25 -16 -38 -40.5t-13 -51.5q0 -17 8 -37.5t29.5 -35.5t50.5 -15zM69 717l15 -81h42l19 80q-22 8 -38 8q-20 0 -38 -7z" />
    <glyph glyph-name="dotlessi" unicode="&#x131;" horiz-adv-x="214" 
d="M25 -5v560h164v-560h-164zM65 515v-479h84v479h-84z" />
    <glyph glyph-name="Kcommaaccent" unicode="&#x136;" horiz-adv-x="781" 
d="M478 750h247l-211 -220l249 -535h-214l-177 385l-147 -153v-232h-195v755h195v-270zM633 710h-137l-311 -334v335h-115v-676h115v207l199 208l187 -415h132l-236 503zM365 -214h-10l-24 30l14 35q-27 5 -48 20l29 106h92l29 -105zM377 -127l-18 -49l3 -5l51 61l-17 67
h-47l-16 -61q15 -12 44 -13z" />
    <glyph glyph-name="kcommaaccent" unicode="&#x137;" horiz-adv-x="601" 
d="M30 -5v755h157v-316l140 129h223l-151 -144l183 -424h-162l-135 310l-98 -86v-224h-157zM70 710v-675h77v202l154 134l145 -336h76l-169 394l98 94h-109l-195 -179v366h-77zM275 -214h-10l-24 30l14 35q-27 5 -48 20l29 106h92l29 -105zM287 -127l-18 -49l3 -5l51 61
l-17 67h-47l-16 -61q15 -12 44 -13z" />
    <glyph glyph-name="Lacute" unicode="&#x139;" 
d="M30 -5v755h194v-568h320v-187h-514zM70 710v-674h434v106h-320v568h-114zM153 838q22 11 44.5 37.5t22.5 44.5q0 6 -4.5 11.5t-11.5 5.5q-20 0 -34.5 -26.5t-16.5 -72.5zM154 796h-40q1 45 11 89t33 65t52 21q19 0 33 -13t14 -34q0 -30 -30 -67t-73 -61z" />
    <glyph glyph-name="lacute" unicode="&#x13a;" horiz-adv-x="220" 
d="M30 -5v755h160v-755h-160zM70 710v-675h80v675h-80zM128 838q22 11 44.5 37.5t22.5 44.5q0 6 -4.5 11.5t-11.5 5.5q-20 0 -34.5 -26.5t-16.5 -72.5zM129 796h-40q1 45 11 89t33 65t52 21q19 0 33 -13t14 -34q0 -30 -30 -67t-73 -61z" />
    <glyph glyph-name="Lcommaaccent" unicode="&#x13b;" horiz-adv-x="575" 
d="M275 -214h-10l-24 30l14 35q-27 5 -48 20l29 106h92l29 -105zM287 -127l-18 -49l3 -5l51 61l-17 67h-47l-16 -61q15 -12 44 -13zM30 -5v755h194v-568h320v-187h-514zM70 710v-675h434v107h-320v568h-114z" />
    <glyph glyph-name="lcommaaccent" unicode="&#x13c;" horiz-adv-x="221" 
d="M30 -5v755h160v-755h-160zM70 710v-675h80v675h-80zM105 -214h-10l-24 30l14 35q-27 5 -48 20l29 106h92l29 -105zM117 -127l-18 -49l3 -5l51 61l-17 67h-47l-16 -61q15 -12 44 -13z" />
    <glyph glyph-name="Lcaron" unicode="&#x13d;" 
d="M30 -5v755h194v-568h320v-187h-514zM70 710v-674h434v106h-320v568h-114zM328 560h-7l-10 31l19 40h-28l-28 120q42 19 77 19t77 -17l-22 -116l-3 -5zM347 618l2 -6l34 49l8 69q-21 8 -40 8t-39 -9l14 -68h36z" />
    <glyph glyph-name="lcaron" unicode="&#x13e;" horiz-adv-x="366" 
d="M268 560h-7l-10 31l19 40h-28l-28 120q42 19 77 19t77 -17l-22 -116l-3 -5zM287 618l2 -6l34 49l8 69q-21 8 -40 8t-39 -9l14 -68h36zM30 -5v755h160v-755h-160zM70 710v-675h80v675h-80z" />
    <glyph glyph-name="Lslash" unicode="&#x141;" 
d="M184 418l85 42v59l-85 -42v233h-114v-289l-40 -20v-60l40 20v-326h434v107h-320v276zM224 536l81 40v-136l-81 -41v-217h320v-187h-514v307l-36 -18v137l36 17v312h194v-214z" />
    <glyph glyph-name="lslash" unicode="&#x142;" horiz-adv-x="220" 
d="M7 340v137l23 11v262h160v-181l24 12v-137l-24 -12v-437h-160v356zM43 456v-58l27 13v-376h80v417l28 14v55l-28 -14v204h-80v-242z" />
    <glyph glyph-name="Nacute" unicode="&#x143;" horiz-adv-x="733" 
d="M515 -5l-288 478v-478h-197v755h248q166 -269 228 -372v372h197v-755h-188zM187 578h23l327 -543h126v675h-117v-476q-60 100 -291 476h-185v-675h117v543zM404 839q22 11 44.5 37.5t22.5 44.5q0 6 -4.5 11.5t-11.5 5.5q-20 0 -34.5 -26.5t-16.5 -72.5zM405 797h-40
q1 45 11 89t33 65t52 21q19 0 33 -13t14 -34q0 -30 -30 -67t-73 -61z" />
    <glyph glyph-name="nacute" unicode="&#x144;" horiz-adv-x="564" 
d="M377 -5v373q0 23 -19 38t-57 15q-70 0 -109 -26v-400h-162v571h157v-24q69 32 128 32q53 0 104.5 -16.5t80 -46.5t30.5 -61q4 -32 4 -455h-157zM417 368v-333h77q0 374 -4 409q0 18 -17 38.5t-61.5 36t-96.5 15.5q-29 0 -71.5 -10.5t-91.5 -39.5v42h-82v-491h82v380
q63 46 149 46q59 0 87.5 -26t28.5 -67zM319 663q22 11 44.5 37.5t22.5 44.5q0 6 -4.5 11.5t-11.5 5.5q-20 0 -34.5 -26.5t-16.5 -72.5zM320 621h-40q1 45 11 89t33 65t52 21q19 0 33 -13t14 -34q0 -30 -30 -67t-73 -61z" />
    <glyph glyph-name="Ncommaaccent" unicode="&#x145;" horiz-adv-x="738" 
d="M515 -5l-288 478v-478h-197v755h248q166 -269 228 -372v372h197v-755h-188zM187 578h23l327 -543h126v675h-117v-476q-60 100 -291 476h-185v-675h117v543zM375 -214h-10l-24 30l14 35q-27 5 -48 20l29 106h92l29 -105zM387 -127l-18 -49l3 -5l51 61l-17 67h-47l-16 -61
q15 -12 44 -13z" />
    <glyph glyph-name="ncommaaccent" unicode="&#x146;" horiz-adv-x="565" 
d="M275 -214h-10l-24 30l14 35q-27 5 -48 20l29 106h92l29 -105zM287 -127l-18 -49l3 -5l51 61l-17 67h-47l-16 -61q15 -12 44 -13zM377 -5v373q0 23 -19 38t-57 15q-70 0 -109 -26v-400h-162v571h157v-24q69 32 128 32q42 0 92.5 -12.5t88 -43.5t37.5 -68l1 -455h-157z
M417 368v-333h77v407q0 18 -17.5 39t-63.5 37t-98 16q-29 0 -71.5 -10.5t-91.5 -39.5v42h-82v-491h82v380q63 46 149 46q59 0 87.5 -26t28.5 -67z" />
    <glyph glyph-name="Ncaron" unicode="&#x147;" horiz-adv-x="733" 
d="M515 -5l-288 478v-478h-197v755h248q166 -269 228 -372v372h197v-755h-188zM187 578h23l327 -543h126v675h-117v-476q-60 100 -291 476h-185v-675h117v543zM375 875q-45 22 -97 39l97 -88l97 88q-52 -17 -97 -39zM374 912q81 37 166 58v-35q-98 -102 -166 -159
q-68 57 -166 159v35q85 -21 166 -58z" />
    <glyph glyph-name="ncaron" unicode="&#x148;" horiz-adv-x="564" 
d="M377 -5v373q0 23 -19 38t-57 15q-70 0 -109 -26v-400h-162v571h157v-24q69 32 128 32q53 0 104.5 -16.5t80 -46.5t30.5 -61q4 -32 4 -455h-157zM417 368v-333h77q0 374 -4 409q0 18 -17 38.5t-61.5 36t-96.5 15.5q-29 0 -71.5 -10.5t-91.5 -39.5v42h-82v-491h82v380
q63 46 149 46q59 0 87.5 -26t28.5 -67zM292 695q-45 22 -97 39l97 -88l97 88q-52 -17 -97 -39zM291 732q81 37 166 58v-35q-98 -102 -166 -159q-68 57 -166 159v35q85 -21 166 -58z" />
    <glyph glyph-name="Omacron" unicode="&#x14c;" horiz-adv-x="771" 
d="M20 373v5q0 36 10.5 83.5t38 97t74 96t114 77t135.5 30.5q64 0 129 -31t117 -85t82.5 -125.5t30.5 -147.5q0 -37 -10.5 -84.5t-38.5 -97.5t-74.5 -96.5t-111.5 -77t-128 -30.5q-69 0 -135.5 32t-118.5 86.5t-82.5 125t-31.5 142.5zM60 378v-5q4 -66 32.5 -129.5t75 -112
t105 -76.5t117.5 -28q56 0 113.5 27.5t104.5 75.5t75 111.5t28 131.5t-27 132t-73.5 113t-104 76.5t-114.5 27.5q-29 0 -68.5 -9t-82 -33.5t-78 -60t-60 -80t-34 -87t-9.5 -74.5zM219 372q0 -30 10 -64.5t35.5 -69.5t59.5 -53t63 -18q22 0 48.5 10.5t53 36t46.5 66.5t20 92
q0 42 -14.5 80t-38.5 66t-54 44t-61 16t-61.5 -16t-54.5 -44.5t-38 -66.5t-14 -79zM179 372q0 49 17.5 94t47 79.5t67.5 53.5t76 19q28 0 61.5 -12.5t70 -47.5t56.5 -85.5t20 -100.5q0 -36 -12.5 -77.5t-44 -83t-73.5 -63t-78 -21.5t-73 19t-67.5 53t-49 79.5t-18.5 93.5z
M237 796v124h297v-124h-297zM277 880v-44h217v44h-217z" />
    <glyph glyph-name="omacron" unicode="&#x14d;" horiz-adv-x="592" 
d="M178 285q0 -59 31 -100.5t82 -41.5h4q42 2 70.5 25t38.5 56t10 61t-10.5 60.5t-39 57t-70.5 25.5q-40 0 -67.5 -25t-38 -58t-10.5 -60zM138 285q0 27 8.5 62t31.5 63.5t52.5 43t63.5 14.5q72 -1 116 -53.5t44 -129.5q0 -48 -16 -87t-51 -66t-91 -29h-5q-44 0 -77.5 21.5
t-54.5 63t-21 97.5zM20 280q0 44 14.5 93.5t53.5 99.5t96 76t112 26t106 -23t89 -63.5t59.5 -95t21.5 -113.5t-21.5 -113t-59.5 -94.5t-89 -63.5t-106 -23t-106 23t-89 63.5t-59.5 94.5t-21.5 113zM60 280q0 -51 18.5 -98t51 -82t76 -54.5t90.5 -19.5t90.5 19.5t76 54.5
t51 82t18.5 98t-18.5 98t-51 82t-76 55t-90.5 20t-90.5 -20t-76 -55t-51 -82t-18.5 -98zM147 621v124h297v-124h-297zM187 705v-44h217v44h-217z" />
    <glyph glyph-name="Ohungarumlaut" unicode="&#x150;" horiz-adv-x="771" 
d="M20 373v5q0 36 10.5 83.5t38 97t74 96t114 77t135.5 30.5q64 0 129 -31t117 -85t82.5 -125.5t30.5 -147.5q0 -37 -10.5 -84.5t-38.5 -97.5t-74.5 -96.5t-111.5 -77t-128 -30.5q-69 0 -135.5 32t-118.5 86.5t-82.5 125t-31.5 142.5zM60 378v-5q4 -66 32.5 -129.5t75 -112
t105 -76.5t117.5 -28q56 0 113.5 27.5t104.5 75.5t75 111.5t28 131.5t-27 132t-73.5 113t-104 76.5t-114.5 27.5q-29 0 -68.5 -9t-82 -33.5t-78 -60t-60 -80t-34 -87t-9.5 -74.5zM219 372q0 -30 10 -64.5t35.5 -69.5t59.5 -53t63 -18q22 0 48.5 10.5t53 36t46.5 66.5t20 92
q0 42 -14.5 80t-38.5 66t-54 44t-61 16t-61.5 -16t-54.5 -44.5t-38 -66.5t-14 -79zM179 372q0 49 17.5 94t47 79.5t67.5 53.5t76 19q28 0 61.5 -12.5t70 -47.5t56.5 -85.5t20 -100.5q0 -36 -12.5 -77.5t-44 -83t-73.5 -63t-78 -21.5t-73 19t-67.5 53t-49 79.5t-18.5 93.5z
M462 838q17 8 37 24.5t29 30.5t9 23q0 6 -4.5 11.5t-11.5 5.5q-14 0 -27.5 -14t-22.5 -39.5t-9 -41.5zM463 796h-40q0 19 6.5 52.5t21 62.5t34.5 42.5t42 13.5q19 0 33 -13t14 -34q0 -26 -29 -60.5t-82 -63.5zM326 838q22 11 44.5 37.5t22.5 44.5q0 6 -4.5 11.5t-11.5 5.5
q-20 0 -34.5 -26.5t-16.5 -72.5zM327 796h-40q1 45 11 89t33 65t52 21q19 0 33 -13t14 -34q0 -30 -30 -67t-73 -61z" />
    <glyph glyph-name="ohungarumlaut" unicode="&#x151;" horiz-adv-x="592" 
d="M178 285q0 -59 31 -100.5t82 -41.5h4q42 2 70.5 25t38.5 56t10 61t-10.5 60.5t-39 57t-70.5 25.5q-40 0 -67.5 -25t-38 -58t-10.5 -60zM138 285q0 27 8.5 62t31.5 63.5t52.5 43t63.5 14.5q72 -1 116 -53.5t44 -129.5q0 -48 -16 -87t-51 -66t-91 -29h-5q-44 0 -77.5 21.5
t-54.5 63t-21 97.5zM20 280q0 44 14.5 93.5t53.5 99.5t96 76t112 26t106 -23t89 -63.5t59.5 -95t21.5 -113.5t-21.5 -113t-59.5 -94.5t-89 -63.5t-106 -23t-106 23t-89 63.5t-59.5 94.5t-21.5 113zM60 280q0 -51 18.5 -98t51 -82t76 -54.5t90.5 -19.5t90.5 19.5t76 54.5
t51 82t18.5 98t-18.5 98t-51 82t-76 55t-90.5 20t-90.5 -20t-76 -55t-51 -82t-18.5 -98zM381 663q17 8 37 24.5t29 30.5t9 23q0 6 -4.5 11.5t-11.5 5.5q-14 0 -27.5 -14t-22.5 -39.5t-9 -41.5zM382 621h-40q0 19 6.5 52.5t21 62.5t34.5 42.5t42 13.5q19 0 33 -13t14 -34
q0 -26 -29 -60.5t-82 -63.5zM245 663q22 11 44.5 37.5t22.5 44.5q0 6 -4.5 11.5t-11.5 5.5q-20 0 -34.5 -26.5t-16.5 -72.5zM246 621h-40q1 45 11 89t33 65t52 21q19 0 33 -13t14 -34q0 -30 -30 -67t-73 -61z" />
    <glyph glyph-name="OE" unicode="&#x152;" horiz-adv-x="1075" 
d="M392 761q33 0 82 -11h576v-179h-372v-99h249v-187h-249v-104h377v-186h-581q-65 -9 -86 -9q-87 0 -171.5 51t-139.5 143t-57 193v5q0 56 18 111t50 101.5t82.5 88t111 62t110.5 20.5zM514 35h501v106h-377v184h249v107h-249v179h372v100h-506q-23 0 -55.5 5.5t-56.5 5.5
q-29 0 -68.5 -9t-82 -33.5t-78 -60t-60 -80t-34 -87t-9.5 -74.5v-5q4 -66 32.5 -129.5t75 -112.5t105 -77t117.5 -28q9 0 41.5 4.5t62.5 4.5h20zM514 177q-33 -21 -64.5 -35.5t-62.5 -14.5q-36 0 -73 19t-67.5 53t-49 79.5t-18.5 93.5q0 49 17.5 94t47 79.5t67.5 53.5t76 19
q25 0 54.5 -11.5t72.5 -39.5v-390zM387 167q20 0 44 9.5t43 24.5v344q-19 15 -42.5 24t-44.5 9q-31 0 -61.5 -16t-54.5 -44.5t-38 -66.5t-14 -79q0 -30 10 -64.5t35.5 -69.5t59.5 -53t63 -18z" />
    <glyph glyph-name="oe" unicode="&#x153;" horiz-adv-x="961" 
d="M296 575q55 0 105 -22.5t88 -62.5q36 41 86 64.5t105 23.5t103.5 -23.5t84 -65.5t54.5 -97t19 -115v-28h-369q11 -54 52.5 -83.5t94.5 -29.5q34 0 64 8t50 17.5t34 18.5t14 8q1 -2 11 -14.5t19 -27.5t15 -29.5t6 -28.5q0 -13 -11 -26q-12 -14 -40.5 -32.5t-73.5 -32.5
t-84 -14q-62 0 -122.5 24.5t-104.5 69.5q-37 -42 -90 -66.5t-110 -24.5q-55 0 -106 23t-89 63.5t-59.5 94.5t-21.5 113q0 44 14.5 93.5t53.5 99.5t96 76t112 26zM296 26q44 0 87 18.5t70 46.5t41 52q17 -26 49.5 -54.5t81.5 -47t98 -18.5q35 0 70.5 8.5t59 23t35.5 29.5l1 8
q0 16 -21 44q-31 -16 -71 -28t-75 -12t-68 10.5t-60 32.5t-44 57.5t-21 83.5l6 5h366q-3 77 -33.5 135t-77.5 89t-109 31q-65 0 -114.5 -30.5t-76.5 -85.5q-32 49 -83 80t-111 31q-47 0 -90.5 -20t-76 -55t-51 -82t-18.5 -98t18.5 -98t51 -82t76 -54.5t90.5 -19.5zM138 285
q0 27 8.5 62t31.5 63.5t52.5 43t63.5 14.5q72 -1 116 -53.5t44 -129.5q0 -48 -16 -87t-51 -66t-91 -29h-5q-44 0 -77.5 21.5t-54.5 63t-21 97.5zM178 285q0 -59 31 -100.5t82 -41.5h4q42 2 70.5 25t38.5 56t10 61t-10.5 60.5t-39 57t-70.5 25.5q-40 0 -67.5 -25t-38 -58
t-10.5 -60zM539 339l-3 9q15 40 40.5 68.5t56 39.5t56.5 11h5q99 -3 129 -128h-284zM771 379q-21 47 -78 48h-4q-65 0 -95 -48h177z" />
    <glyph glyph-name="Racute" unicode="&#x154;" horiz-adv-x="729" 
d="M499 -5l-173 271h-99v-271h-197v755h339q66 0 125.5 -16.5t104 -48t69.5 -77t25 -99.5q0 -76 -45 -131.5t-124 -84.5l190 -298h-215zM347 306l174 -270h121q-130 196 -181 279q42 9 73 23.5t55.5 34.5t44 54.5t19.5 81.5q0 46 -22 84.5t-61 64.5t-91 39.5t-110 13.5h-299
v-675h117v270h160zM187 613h173q91 0 129.5 -26t39.5 -81q0 -50 -40 -76t-129 -26h-173v209zM360 573h-133v-129h133q61 0 95 13.5t34 50.5q-1 38 -34.5 51.5t-94.5 13.5zM342 839q22 11 44.5 37.5t22.5 44.5q0 6 -4.5 11.5t-11.5 5.5q-20 0 -34.5 -26.5t-16.5 -72.5z
M343 797h-40q1 45 11 89t33 65t52 21q19 0 33 -13t14 -34q0 -30 -30 -67t-73 -61z" />
    <glyph glyph-name="racute" unicode="&#x155;" horiz-adv-x="451" 
d="M433 533q13 -13 13 -31q0 -5 -3 -17l-34 -85q-60 29 -109 29q-33 0 -65 -11t-54 -29v-394h-156v571h156v-29q74 37 132 37q71 0 120 -41zM150 471l-7 3v52h-78v-491h76v372q30 27 73 44.5t86 17.5q37 0 86 -17q20 37 20 52q-6 12 -36.5 21t-60.5 9q-27 0 -68 -14t-91 -49
zM263 663q22 11 44.5 37.5t22.5 44.5q0 6 -4.5 11.5t-11.5 5.5q-20 0 -34.5 -26.5t-16.5 -72.5zM264 621h-40q1 45 11 89t33 65t52 21q19 0 33 -13t14 -34q0 -30 -30 -67t-73 -61z" />
    <glyph glyph-name="Rcommaaccent" unicode="&#x156;" horiz-adv-x="731" 
d="M499 -5l-173 271h-99v-271h-197v755h339q66 0 125.5 -16.5t104 -48t69.5 -77t25 -99.5q0 -76 -45 -131.5t-124 -84.5l190 -298h-215zM347 306l174 -271h121q-120 182 -181 280q42 9 73 23.5t55.5 34.5t44 54.5t19.5 81.5q0 46 -22 84.5t-61 64.5t-91 39.5t-110 13.5h-299
v-676h117v271h160zM187 613h173q91 0 129.5 -26t39.5 -81q0 -50 -40 -76t-129 -26h-173v209zM360 573h-133v-129h133q61 0 95 13.5t34 50.5q-1 38 -34.5 51.5t-94.5 13.5zM335 -214h-10l-24 30l14 35q-27 5 -48 20l29 106h92l29 -105zM347 -127l-18 -49l3 -5l51 61l-17 67
h-47l-16 -61q15 -12 44 -13z" />
    <glyph glyph-name="rcommaaccent" unicode="&#x157;" horiz-adv-x="462" 
d="M95 -214h-10l-24 30l14 35q-27 5 -48 20l29 106h92l29 -105zM107 -127l-18 -49l3 -5l51 61l-17 67h-47l-16 -61q15 -12 44 -13zM433 533q13 -13 13 -31q0 -5 -3 -17l-34 -85q-60 29 -109 29q-33 0 -65 -11t-54 -29v-394h-156v571h156v-29q74 37 132 37q71 0 120 -41z
M150 471l-7 3v52h-78v-491h76v372q30 27 73 44.5t86 17.5q37 0 86 -17q20 37 20 52q-6 12 -36.5 21t-60.5 9q-27 0 -68 -14t-91 -49z" />
    <glyph glyph-name="Rcaron" unicode="&#x158;" horiz-adv-x="729" 
d="M499 -5l-173 271h-99v-271h-197v755h339q66 0 125.5 -16.5t104 -48t69.5 -77t25 -99.5q0 -76 -45 -131.5t-124 -84.5l190 -298h-215zM347 306l174 -270h121q-130 196 -181 279q42 9 73 23.5t55.5 34.5t44 54.5t19.5 81.5q0 46 -22 84.5t-61 64.5t-91 39.5t-110 13.5h-299
v-675h117v270h160zM187 613h173q91 0 129.5 -26t39.5 -81q0 -50 -40 -76t-129 -26h-173v209zM360 573h-133v-129h133q61 0 95 13.5t34 50.5q-1 38 -34.5 51.5t-94.5 13.5zM325 875q-45 22 -97 39l97 -88l97 88q-52 -17 -97 -39zM324 912q81 37 166 58v-35
q-98 -102 -166 -159q-68 57 -166 159v35q85 -21 166 -58z" />
    <glyph glyph-name="rcaron" unicode="&#x159;" horiz-adv-x="451" 
d="M433 533q13 -13 13 -31q0 -5 -3 -17l-34 -85q-60 29 -109 29q-33 0 -65 -11t-54 -29v-394h-156v571h156v-29q74 37 132 37q71 0 120 -41zM150 471l-7 3v52h-78v-491h76v372q30 27 73 44.5t86 17.5q37 0 86 -17q20 37 20 52q-6 12 -36.5 21t-60.5 9q-27 0 -68 -14t-91 -49
zM222 695q-45 22 -97 39l97 -88l97 88q-52 -17 -97 -39zM221 732q81 37 166 58v-35q-98 -102 -166 -159q-68 57 -166 159v35q85 -21 166 -58z" />
    <glyph glyph-name="Sacute" unicode="&#x15a;" horiz-adv-x="712" 
d="M325 -14q-61 0 -124 16t-97 35.5t-51.5 41.5t-17.5 48q0 8 14 38t47 81q38 -33 102.5 -58.5t118.5 -25.5q51 0 87 16t38 40q0 15 -29 32t-119 43l-13 4q-121 37 -159 66q-43 31 -67 73t-24 88q0 48 27 91t75.5 75.5t112.5 50.5t133 18q43 0 96.5 -8t91.5 -21t63.5 -30
t35.5 -36t10 -35q0 -28 -20 -62.5t-45 -59.5q-22 26 -55 44.5t-75 26t-89 7.5q-29 0 -58.5 -5.5t-46 -18.5t-16.5 -28q0 -16 38 -38t140 -61q77 -28 102 -42q130 -73 130 -178q0 -45 -29 -86.5t-79.5 -73.5t-115 -50t-132.5 -18zM325 26q45 0 97 10t106.5 37t83.5 65.5
t29 75.5q0 43 -26 77t-84 65q-30 16 -90 38l-6 2q-73 27 -117.5 48t-65.5 44t-21 45q0 16 12.5 38t50 38t98.5 16q54 0 112.5 -17t98.5 -46q30 38 30 65l-1 8q-3 17 -20 33.5t-53.5 29.5t-87.5 19t-93 6q-61 0 -117.5 -15.5t-99 -43t-66.5 -64t-24 -76.5q0 -35 20.5 -69
t54.5 -60q45 -28 160 -64q65 -19 100 -33.5t55.5 -34t20.5 -46.5q-2 -40 -50 -67.5t-115 -27.5q-51 0 -108 21.5t-97 50.5q-10 -13 -23.5 -37.5t-13.5 -29.5q0 -18 15 -34t43 -29.5t83 -25.5t109 -12zM382 839q22 11 44.5 37.5t22.5 44.5q0 6 -4.5 11.5t-11.5 5.5
q-20 0 -34.5 -26.5t-16.5 -72.5zM383 797h-40q1 45 11 89t33 65t52 21q19 0 33 -13t14 -34q0 -30 -30 -67t-73 -61z" />
    <glyph glyph-name="sacute" unicode="&#x15b;" horiz-adv-x="521" 
d="M244 -2q-49 0 -107 14.5t-84.5 39t-26.5 51.5q0 9 16.5 38.5t36.5 60.5q28 -25 73.5 -42t85.5 -17q37 0 63 9t26 24q0 7 -12.5 18.5t-93.5 38.5q-84 28 -123 50.5t-58.5 53.5t-19.5 67q0 27 14 58.5t47.5 59.5t86 48t118.5 20q76 0 130 -24t73 -69v-7q0 -22 -16.5 -49.5
t-36.5 -48.5q-55 53 -142 53q-42 0 -63.5 -10.5t-21.5 -23.5q0 -6 11 -15t79 -32q65 -22 101.5 -40t61 -43.5t32 -52t7.5 -45.5q0 -43 -34 -88t-96.5 -71t-126.5 -26zM244 38q32 0 68.5 8t73.5 29.5t56 51t19 56.5q0 30 -16 53.5t-48 43.5t-110 46q-75 24 -96.5 43t-21.5 42
q0 30 32 52t93 22q42 0 76 -9t62 -31q6 10 13 26.5t7 27.5q-50 56 -165 56q-33 0 -71 -8t-76.5 -30t-59 -53t-20.5 -60q0 -36 37 -67.5t136 -64.5q83 -27 108.5 -49t25.5 -47q0 -33 -38 -50.5t-93 -17.5q-41 0 -81 11t-67 29q-6 -6 -14 -19t-8 -26q0 -16 21.5 -31.5
t69 -24.5t87.5 -9zM267 663q22 11 44.5 37.5t22.5 44.5q0 6 -4.5 11.5t-11.5 5.5q-20 0 -34.5 -26.5t-16.5 -72.5zM268 621h-40q1 45 11 89t33 65t52 21q19 0 33 -13t14 -34q0 -30 -30 -67t-73 -61z" />
    <glyph glyph-name="Scedilla" unicode="&#x15e;" horiz-adv-x="712" 
d="M328 -14q-43 0 -101.5 10.5t-105 32t-66.5 47t-20 51.5q0 8 14 38t47 81q38 -33 102.5 -58.5t118.5 -25.5q51 0 87 16t38 40q0 15 -29 32t-119 43l-13 4q-121 37 -159 66q-43 31 -67 73t-24 88q0 48 27 91t75.5 75.5t112.5 50.5t133 18q43 0 96.5 -8t91.5 -21t63.5 -30
t35.5 -36t10 -35q0 -28 -20 -62.5t-45 -59.5q-22 26 -55 44.5t-75 26t-89 7.5q-29 0 -58.5 -5.5t-46 -18.5t-16.5 -28q0 -16 38 -38t140 -61q77 -28 102 -42q130 -73 130 -178q0 -28 -14 -60.5t-52 -68t-94.5 -59.5t-111.5 -33l-9 -32q21 -8 37.5 -29.5t16.5 -50.5
q0 -23 -14.5 -46t-38.5 -33.5t-47 -10.5t-47.5 8t-42.5 26t-27 38l18 33q9 -13 25.5 -24.5t39.5 -11.5q10 0 21 6t11 17q0 14 -14 22.5t-32 9.5zM325 26q45 0 97 10t106.5 37t83.5 65.5t29 75.5q0 43 -26 77t-84 65q-30 16 -90 38l-6 2q-73 27 -117.5 48t-65.5 44t-21 45
q0 16 12.5 38t50 38t98.5 16q54 0 112.5 -17t98.5 -46q30 38 30 65l-1 8q-3 17 -20 33.5t-53.5 29.5t-87.5 19t-93 6q-61 0 -117.5 -15.5t-99 -43t-66.5 -64t-24 -76.5q0 -35 20.5 -69t54.5 -60q45 -28 160 -64q65 -19 100 -33.5t55.5 -34t20.5 -46.5q-2 -40 -50 -67.5
t-115 -27.5q-51 0 -108 21.5t-97 50.5q-10 -13 -23.5 -37.5t-13.5 -29.5q0 -18 15 -34t43 -29.5t83 -25.5t109 -12zM350 -187q17 0 35 8.5t29 27.5t11 38q0 24 -16.5 41.5t-37.5 23.5l11 37l-27 -2l-16 -54q15 -6 27 -19.5t12 -31.5t-14.5 -31t-37.5 -13q-20 0 -38 8t-28 18
q9 -20 33 -35.5t57 -15.5z" />
    <glyph glyph-name="scedilla" unicode="&#x15f;" horiz-adv-x="521" 
d="M131 -137l18 33q9 -13 25.5 -24.5t39.5 -11.5q10 0 21 6t11 17q0 14 -14 22.5t-32 9.5l26 84q-50 2 -102 17t-75 38.5t-23 48.5q0 9 16.5 38.5t36.5 60.5q28 -25 73.5 -42t85.5 -17q37 0 63 9t26 24q0 7 -12.5 18.5t-93.5 38.5q-84 28 -123 50.5t-58.5 53.5t-19.5 67
q0 27 14 58.5t47.5 59.5t86 48t118.5 20q76 0 130 -24t73 -69v-7q0 -22 -16.5 -49.5t-36.5 -48.5q-55 53 -142 53q-42 0 -63.5 -10.5t-21.5 -23.5q0 -6 11 -15t79 -32q65 -22 101.5 -40t61 -43.5t32 -52t7.5 -45.5q0 -60 -55.5 -111.5t-139.5 -67.5l-12 -43
q21 -8 37.5 -29.5t16.5 -50.5q0 -23 -14.5 -46t-38.5 -33.5t-47 -10.5t-47.5 8t-42.5 26t-27 38zM244 38q32 0 68.5 8t73.5 29.5t56 51t19 56.5q0 30 -16 53.5t-48 43.5t-110 46q-75 24 -96.5 43t-21.5 42q0 30 32 52t93 22q42 0 76 -9t62 -31q6 10 13 26.5t7 27.5
q-50 56 -165 56q-33 0 -71 -8t-76.5 -30t-59 -53t-20.5 -60q0 -36 37 -67.5t136 -64.5q83 -27 108.5 -49t25.5 -47q0 -33 -38 -50.5t-93 -17.5q-41 0 -81 11t-67 29q-6 -6 -14 -19t-8 -26q0 -16 21.5 -31.5t69 -24.5t87.5 -9zM244 -187q17 0 35 8.5t29 27.5t11 38
q0 24 -16.5 41.5t-37.5 23.5l14 48l-27 -2l-19 -65q15 -6 27 -19.5t12 -31.5t-14.5 -31t-37.5 -13q-20 0 -38 8t-28 18q9 -20 33 -35.5t57 -15.5z" />
    <glyph glyph-name="Scaron" unicode="&#x160;" horiz-adv-x="712" 
d="M325 -14q-61 0 -124 16t-97 35.5t-51.5 41.5t-17.5 48q0 8 14 38t47 81q38 -33 102.5 -58.5t118.5 -25.5q51 0 87 16t38 40q0 15 -29 32t-119 43l-13 4q-121 37 -159 66q-43 31 -67 73t-24 88q0 48 27 91t75.5 75.5t112.5 50.5t133 18q43 0 96.5 -8t91.5 -21t63.5 -30
t35.5 -36t10 -35q0 -28 -20 -62.5t-45 -59.5q-22 26 -55 44.5t-75 26t-89 7.5q-29 0 -58.5 -5.5t-46 -18.5t-16.5 -28q0 -16 38 -38t140 -61q77 -28 102 -42q130 -73 130 -178q0 -45 -29 -86.5t-79.5 -73.5t-115 -50t-132.5 -18zM325 26q45 0 97 10t106.5 37t83.5 65.5
t29 75.5q0 43 -26 77t-84 65q-30 16 -90 38l-6 2q-73 27 -117.5 48t-65.5 44t-21 45q0 16 12.5 38t50 38t98.5 16q54 0 112.5 -17t98.5 -46q30 38 30 65l-1 8q-3 17 -20 33.5t-53.5 29.5t-87.5 19t-93 6q-61 0 -117.5 -15.5t-99 -43t-66.5 -64t-24 -76.5q0 -35 20.5 -69
t54.5 -60q45 -28 160 -64q65 -19 100 -33.5t55.5 -34t20.5 -46.5q-2 -40 -50 -67.5t-115 -27.5q-51 0 -108 21.5t-97 50.5q-10 -13 -23.5 -37.5t-13.5 -29.5q0 -18 15 -34t43 -29.5t83 -25.5t109 -12zM356 875q-45 22 -97 39l97 -88l97 88q-52 -17 -97 -39zM355 912
q81 37 166 58v-35q-98 -102 -166 -159q-68 57 -166 159v35q85 -21 166 -58z" />
    <glyph glyph-name="scaron" unicode="&#x161;" horiz-adv-x="521" 
d="M244 -2q-49 0 -107 14.5t-84.5 39t-26.5 51.5q0 9 16.5 38.5t36.5 60.5q28 -25 73.5 -42t85.5 -17q37 0 63 9t26 24q0 7 -12.5 18.5t-93.5 38.5q-84 28 -123 50.5t-58.5 53.5t-19.5 67q0 27 14 58.5t47.5 59.5t86 48t118.5 20q76 0 130 -24t73 -69v-7q0 -22 -16.5 -49.5
t-36.5 -48.5q-55 53 -142 53q-42 0 -63.5 -10.5t-21.5 -23.5q0 -6 11 -15t79 -32q65 -22 101.5 -40t61 -43.5t32 -52t7.5 -45.5q0 -43 -34 -88t-96.5 -71t-126.5 -26zM244 38q32 0 68.5 8t73.5 29.5t56 51t19 56.5q0 30 -16 53.5t-48 43.5t-110 46q-75 24 -96.5 43t-21.5 42
q0 30 32 52t93 22q42 0 76 -9t62 -31q6 10 13 26.5t7 27.5q-50 56 -165 56q-33 0 -71 -8t-76.5 -30t-59 -53t-20.5 -60q0 -36 37 -67.5t136 -64.5q83 -27 108.5 -49t25.5 -47q0 -33 -38 -50.5t-93 -17.5q-41 0 -81 11t-67 29q-6 -6 -14 -19t-8 -26q0 -16 21.5 -31.5
t69 -24.5t87.5 -9zM261 705q-45 22 -97 39l97 -88l97 88q-52 -17 -97 -39zM260 742q81 37 166 58v-35q-98 -102 -166 -159q-68 57 -166 159v35q85 -21 166 -58z" />
    <glyph glyph-name="Tcaron" unicode="&#x164;" horiz-adv-x="673" 
d="M10 569v181h653v-181h-228v-574h-192v574h-233zM50 710v-101h233v-573h112v573h228v101h-573zM337 874q-45 22 -97 39l97 -88l97 88q-52 -17 -97 -39zM336 911q81 37 166 58v-35q-98 -102 -166 -159q-68 57 -166 159v35q85 -21 166 -58z" />
    <glyph glyph-name="tcaron" unicode="&#x165;" horiz-adv-x="390" 
d="M293 560h-7l-10 31l19 40h-28l-28 120q42 19 77 19t77 -17l-22 -116l-3 -5zM312 618l2 -6l34 49l8 69q-21 8 -40 8t-39 -9l14 -68h36zM15 413v160h46v177h150v-177h45v-160h-45v-418h-150v418h-46zM55 533v-80h46v-418h70v418h45v80h-45v177h-70v-177h-46z" />
    <glyph glyph-name="Umacron" unicode="&#x16a;" horiz-adv-x="688" 
d="M347 129h-4q-31 0 -70 12t-67 41.5t-28 67.5v460h-111v-395q0 -75 3 -116q1 -25 16.5 -53t54.5 -57.5t95 -45t109 -15.5t103 13.5t88 37.5t60 55.5t24 64.5q3 41 3 116v395h-111v-460q0 -38 -28 -67.5t-67 -41.5t-70 -12zM343 170h4q24 0 53.5 8.5t51 31.5t21.5 52v488
h190v-435l-1 -118q-1 -31 -16 -61t-41.5 -55t-62 -44t-85.5 -33t-112 -14q-30 0 -76 6.5t-91 26t-79.5 47t-52 62t-18.5 65.5l-1 118v435h190v-488q0 -19 12.5 -40.5t44.5 -36.5t69 -15zM195 797v124h297v-124h-297zM235 881v-44h217v44h-217z" />
    <glyph glyph-name="umacron" unicode="&#x16b;" 
d="M182 566v-373q0 -23 19 -38t57 -15q70 0 109 26v400h162v-571h-157v24q-69 -32 -128 -32q-53 0 -104.5 16.5t-80 46.5t-30.5 61q-4 32 -4 455h157zM142 193v333h-77q0 -374 4 -409q0 -18 17 -38.5t61.5 -36t96.5 -15.5q29 0 71.5 10.5t91.5 39.5v-42h82v491h-82v-380
q-63 -46 -149 -46q-59 0 -87.5 26t-28.5 67zM128 621v124h297v-124h-297zM168 705v-44h217v44h-217z" />
    <glyph glyph-name="Uring" unicode="&#x16e;" horiz-adv-x="688" 
d="M347 129h-4q-31 0 -70 12t-67 41.5t-28 67.5v460h-111v-395q0 -75 3 -116q1 -25 16.5 -53t54.5 -57.5t95 -45t109 -15.5t103 13.5t88 37.5t60 55.5t24 64.5q3 41 3 116v395h-111v-460q0 -38 -28 -67.5t-67 -41.5t-70 -12zM343 170h4q24 0 53.5 8.5t51 31.5t21.5 52v488
h190v-435l-1 -118q-1 -31 -16 -61t-41.5 -55t-62 -44t-85.5 -33t-112 -14q-30 0 -76 6.5t-91 26t-79.5 47t-52 62t-18.5 65.5l-1 118v435h190v-488q0 -19 12.5 -40.5t44.5 -36.5t69 -15zM325 890q0 -11 6 -19t17 -8q11 1 17.5 8.5t6.5 18.5q0 12 -7 20t-17 8t-16.5 -8
t-6.5 -20zM302 890q0 22 13 37.5t33 15.5q21 -1 34 -16t13 -37q0 -23 -12.5 -37.5t-35.5 -15.5q-20 0 -32.5 15.5t-12.5 37.5zM248 889q0 20 10 45t35 43t55 18q19 0 42.5 -10.5t40.5 -37t17 -58.5q0 -21 -10 -46t-35 -42.5t-55 -17.5q-19 0 -42.5 10.5t-40.5 37t-17 58.5z
M277 889q0 -32 21 -55t50 -23q30 0 51 23t21 55q0 31 -21 54t-51 23q-29 0 -50 -23t-21 -54z" />
    <glyph glyph-name="uring" unicode="&#x16f;" 
d="M182 566v-373q0 -23 19 -38t57 -15q70 0 109 26v400h162v-571h-157v24q-69 -32 -128 -32q-53 0 -104.5 16.5t-80 46.5t-30.5 61q-4 32 -4 455h157zM142 193v333h-77q0 -374 4 -409q0 -18 17 -38.5t61.5 -36t96.5 -15.5q29 0 71.5 10.5t91.5 39.5v-42h82v491h-82v-380
q-63 -46 -149 -46q-59 0 -87.5 26t-28.5 67zM258 706q0 -11 6 -19t17 -8q11 1 17.5 8.5t6.5 18.5q0 12 -7 20t-17 8t-16.5 -8t-6.5 -20zM235 706q0 22 13 37.5t33 15.5q21 -1 34 -16t13 -37q0 -23 -12.5 -37.5t-35.5 -15.5q-20 0 -32.5 15.5t-12.5 37.5zM181 705q0 20 10 45
t35 43t55 18q19 0 42.5 -10.5t40.5 -37t17 -58.5q0 -21 -10 -46t-35 -42.5t-55 -17.5q-19 0 -42.5 10.5t-40.5 37t-17 58.5zM210 705q0 -32 21 -55t50 -23q30 0 51 23t21 55q0 31 -21 54t-51 23q-29 0 -50 -23t-21 -54z" />
    <glyph glyph-name="Uhungarumlaut" unicode="&#x170;" horiz-adv-x="688" 
d="M347 129h-4q-31 0 -70 12t-67 41.5t-28 67.5v460h-111v-395q0 -75 3 -116q1 -25 16.5 -53t54.5 -57.5t95 -45t109 -15.5t103 13.5t88 37.5t60 55.5t24 64.5q3 41 3 116v395h-111v-460q0 -38 -28 -67.5t-67 -41.5t-70 -12zM343 170h4q24 0 53.5 8.5t51 31.5t21.5 52v488
h190v-435l-1 -118q-1 -31 -16 -61t-41.5 -55t-62 -44t-85.5 -33t-112 -14q-30 0 -76 6.5t-91 26t-79.5 47t-52 62t-18.5 65.5l-1 118v435h190v-488q0 -19 12.5 -40.5t44.5 -36.5t69 -15zM430 839q17 8 37 24.5t29 30.5t9 23q0 6 -4.5 11.5t-11.5 5.5q-14 0 -27.5 -14
t-22.5 -39.5t-9 -41.5zM431 797h-40q0 19 6.5 52.5t21 62.5t34.5 42.5t42 13.5q19 0 33 -13t14 -34q0 -26 -29 -60.5t-82 -63.5zM294 839q22 11 44.5 37.5t22.5 44.5q0 6 -4.5 11.5t-11.5 5.5q-20 0 -34.5 -26.5t-16.5 -72.5zM295 797h-40q1 45 11 89t33 65t52 21
q19 0 33 -13t14 -34q0 -30 -30 -67t-73 -61z" />
    <glyph glyph-name="uhungarumlaut" unicode="&#x171;" 
d="M182 566v-373q0 -23 19 -38t57 -15q70 0 109 26v400h162v-571h-157v24q-69 -32 -128 -32q-53 0 -104.5 16.5t-80 46.5t-30.5 61q-4 32 -4 455h157zM142 193v333h-77q0 -374 4 -409q0 -18 17 -38.5t61.5 -36t96.5 -15.5q29 0 71.5 10.5t91.5 39.5v-42h82v491h-82v-380
q-63 -46 -149 -46q-59 0 -87.5 26t-28.5 67zM371 663q17 8 37 24.5t29 30.5t9 23q0 6 -4.5 11.5t-11.5 5.5q-14 0 -27.5 -14t-22.5 -39.5t-9 -41.5zM372 621h-40q0 19 6.5 52.5t21 62.5t34.5 42.5t42 13.5q19 0 33 -13t14 -34q0 -26 -29 -60.5t-82 -63.5zM235 663
q22 11 44.5 37.5t22.5 44.5q0 6 -4.5 11.5t-11.5 5.5q-20 0 -34.5 -26.5t-16.5 -72.5zM236 621h-40q1 45 11 89t33 65t52 21q19 0 33 -13t14 -34q0 -30 -30 -67t-73 -61z" />
    <glyph glyph-name="Uogonek" unicode="&#x172;" horiz-adv-x="688" 
d="M343 170h4q24 0 53.5 8.5t51 31.5t21.5 52v488h190v-435l-1 -118q-1 -37 -22 -72t-57 -62t-84 -45.5t-101 -24.5q-15 -12 -26.5 -33t-11.5 -45q0 -21 11.5 -36t31.5 -15q14 0 26 5.5t25 22.5l17 -30q-28 -69 -101 -69q-25 0 -52 11t-44.5 38.5t-17.5 60.5q0 54 40 90
q-54 5 -103 23t-85.5 45.5t-57.5 62.5t-22 73l-1 118v435h190v-488q0 -19 12.5 -40.5t44.5 -36.5t69 -15zM347 129h-4q-31 0 -70 12t-67 41.5t-28 67.5v460h-111v-395q0 -75 3 -116q1 -25 16.5 -53t54.5 -57.5t95 -45t109 -15.5t103 13.5t88 37.5t60 55.5t24 64.5
q3 41 3 116v395h-111v-460q0 -38 -28 -67.5t-67 -41.5t-70 -12zM374 -185q23 0 43.5 12t28.5 31q-22 -19 -50 -19t-46.5 22t-18.5 53q0 40 34 77l-20 -1h-15q-44 -32 -44 -87q0 -17 8 -37.5t29.5 -35.5t50.5 -15z" />
    <glyph glyph-name="uogonek" unicode="&#x173;" 
d="M182 566v-373q0 -23 19 -38t57 -15q70 0 109 26v400h162v-571h-67q-16 -12 -28.5 -33.5t-12.5 -46.5q0 -21 11.5 -36t31.5 -15q14 0 26 5.5t25 22.5l17 -30q-28 -69 -101 -69q-25 0 -52 11t-44.5 38.5t-17.5 60.5q0 27 13 55t42 46v15q-69 -32 -128 -32
q-53 0 -104.5 16.5t-80 46.5t-30.5 61q-4 32 -4 455h157zM142 193v333h-77q0 -374 4 -409q0 -18 17 -38.5t61.5 -36t96.5 -15.5q29 0 71.5 10.5t91.5 39.5v-42h82v491h-82v-380q-63 -46 -149 -46q-59 0 -87.5 26t-28.5 67zM435 -185q23 0 43.5 12t28.5 31q-22 -19 -50 -19
t-46.5 22t-18.5 53q0 43 38 81h-32q-25 -16 -38 -40.5t-13 -51.5q0 -17 8 -37.5t29.5 -35.5t50.5 -15z" />
    <glyph glyph-name="Ydieresis" unicode="&#x178;" horiz-adv-x="704" 
d="M5 750h222l136 -184l126 184h210l-249 -358v-397h-184v394zM207 710h-124l223 -309v-365h104v366l215 308h-114l-147 -213zM213 797l-27 138q17 9 39 14.5t40 5.5q34 0 80 -20l-28 -138h-104zM394 797l-27 138q17 9 39 14.5t40 5.5q34 0 80 -20l-28 -138h-104zM229 913
l15 -81h42l19 80q-24 10 -39 10t-37 -9zM410 913l15 -81h42l19 80q-26 10 -39 10q-15 0 -37 -9z" />
    <glyph glyph-name="Zacute" unicode="&#x179;" horiz-adv-x="694" 
d="M364 838q22 11 44.5 37.5t22.5 44.5q0 6 -4.5 11.5t-11.5 5.5q-20 0 -34.5 -26.5t-16.5 -72.5zM365 796h-40q1 45 11 89t33 65t52 21q19 0 33 -13t14 -34q0 -30 -30 -67t-73 -61zM15 567v183h556l102 -164l-384 -405h390v-186h-565l-94 177l371 395h-376zM55 710v-103
h430l-416 -437l69 -134h501v105h-444l427 451l-74 118h-493z" />
    <glyph glyph-name="zacute" unicode="&#x17a;" horiz-adv-x="516" 
d="M10 414v152h418l77 -140l-269 -277h270v-154h-407l-79 143l262 276h-272zM164 109l-6 8l298 315l-53 94h-353v-72h314l4 -9l-302 -308l57 -102h343v74h-302zM265 663q22 11 44.5 37.5t22.5 44.5q0 6 -4.5 11.5t-11.5 5.5q-20 0 -34.5 -26.5t-16.5 -72.5zM266 621h-40
q1 45 11 89t33 65t52 21q19 0 33 -13t14 -34q0 -30 -30 -67t-73 -61z" />
    <glyph glyph-name="Zdotaccent" unicode="&#x17b;" horiz-adv-x="694" 
d="M15 567v183h556l102 -164l-384 -405h390v-186h-565l-94 177l371 395h-376zM55 710v-103h430l-416 -437l69 -134h501v105h-444l427 451l-74 118h-493zM274 798l-27 138q17 9 39 14.5t40 5.5q34 0 80 -20l-28 -138h-104zM289 914l15 -81h42l19 80q-22 8 -38 8q-20 0 -38 -7
z" />
    <glyph glyph-name="zdotaccent" unicode="&#x17c;" horiz-adv-x="516" 
d="M10 414v152h418l77 -140l-269 -277h270v-154h-407l-79 143l262 276h-272zM164 109l-6 8l298 315l-53 94h-353v-72h314l4 -9l-302 -308l57 -102h343v74h-302zM205 614l-27 138q17 9 39 14.5t40 5.5q34 0 80 -20l-28 -138h-104zM220 730l15 -81h42l19 80q-22 8 -38 8
q-20 0 -38 -7z" />
    <glyph glyph-name="Zcaron" unicode="&#x17d;" horiz-adv-x="694" 
d="M15 567v183h556l102 -164l-384 -405h390v-186h-565l-94 177l371 395h-376zM55 710v-103h430l-416 -437l69 -134h501v105h-444l427 451l-74 118h-493zM337 875q-45 22 -97 39l97 -88l97 88q-52 -17 -97 -39zM336 912q81 37 166 58v-35q-98 -102 -166 -159q-68 57 -166 159
v35q85 -21 166 -58z" />
    <glyph glyph-name="zcaron" unicode="&#x17e;" horiz-adv-x="516" 
d="M10 414v152h418l77 -140l-269 -277h270v-154h-407l-79 143l262 276h-272zM164 109l-6 8l298 315l-53 94h-353v-72h314l4 -9l-302 -308l57 -102h343v74h-302zM258 695q-45 22 -97 39l97 -88l97 88q-52 -17 -97 -39zM257 732q81 37 166 58v-35q-98 -102 -166 -159
q-68 57 -166 159v35q85 -21 166 -58z" />
    <glyph glyph-name="florin" unicode="&#x192;" horiz-adv-x="447" 
d="M164 459l-75 -423q-24 -135 -112 -135q-25 0 -51 15q-14 -24 -14 -42q0 -11 11 -20.5t32.5 -14.5t38.5 -5q64 0 107.5 46.5t59.5 135.5l79 443h82l11 68h-81l5 31q10 56 36 80.5t62 24.5q25 0 46 -17q17 28 17 44q0 11 -10.5 20.5t-31.5 14.5t-38 5q-60 0 -99.5 -36.5
t-53.5 -115.5l-9 -51h-79l-12 -68h79zM47 27l70 392h-79l26 148h79l2 11q33 187 202 187q24 0 52.5 -9t43 -24.5t14.5 -33.5q0 -23 -17.5 -54.5t-35.5 -52.5q-19 32 -56 32q-18 0 -30 -13t-19 -43h81l-26 -148h-81l-72 -403q-19 -109 -76 -163t-140 -54q-22 0 -51.5 9.5
t-45.5 25.5t-16 35q0 13 6 34.5t40 69.5q6 -10 24.5 -21t41.5 -11q24 0 38.5 20t24.5 66z" />
    <glyph glyph-name="Scommaaccent" unicode="&#x218;" horiz-adv-x="698" 
d="M325 -14q-61 0 -124 16t-97 35.5t-51.5 41.5t-17.5 48q0 8 14 38t47 81q38 -33 102.5 -58.5t118.5 -25.5q51 0 87 16t38 40q0 15 -29 32t-119 43l-13 4q-121 37 -159 66q-43 31 -67 73t-24 88q0 48 27 91t75.5 75.5t112.5 50.5t133 18q43 0 96.5 -8t91.5 -21t63.5 -30
t35.5 -36t10 -35q0 -28 -20 -62.5t-45 -59.5q-22 26 -55 44.5t-75 26t-89 7.5q-29 0 -58.5 -5.5t-46 -18.5t-16.5 -28q0 -16 38 -38t140 -61q77 -28 102 -42q130 -73 130 -178q0 -45 -29 -86.5t-79.5 -73.5t-115 -50t-132.5 -18zM325 26q45 0 97 10t106.5 37t83.5 65.5
t29 75.5q0 43 -26 77t-84 65q-30 16 -90 38l-6 2q-73 27 -117.5 48t-65.5 44t-21 45q0 16 12.5 38t50 38t98.5 16q54 0 112.5 -17t98.5 -46q30 38 30 65l-1 8q-3 17 -20 33.5t-53.5 29.5t-87.5 19t-93 6q-61 0 -117.5 -15.5t-99 -43t-66.5 -64t-24 -76.5q0 -35 20.5 -69
t54.5 -60q45 -28 160 -64q65 -19 100 -33.5t55.5 -34t20.5 -46.5q-2 -40 -50 -67.5t-115 -27.5q-51 0 -108 21.5t-97 50.5q-10 -13 -23.5 -37.5t-13.5 -29.5q0 -18 15 -34t43 -29.5t83 -25.5t109 -12zM367 -214h-10l-24 30l14 35q-27 5 -48 20l29 96h92l29 -95zM379 -127
l-18 -49l3 -5l51 61l-17 57h-47l-16 -51q15 -12 44 -13z" />
    <glyph glyph-name="scommaaccent" unicode="&#x219;" horiz-adv-x="525" 
d="M267 -214h-10l-24 30l14 35q-27 5 -48 20l29 106h92l29 -105zM279 -127l-18 -49l3 -5l51 61l-17 67h-47l-16 -61q15 -12 44 -13zM244 -2q-49 0 -107 14.5t-84.5 39t-26.5 51.5q0 9 16.5 38.5t36.5 60.5q28 -25 73.5 -42t85.5 -17q37 0 63 9t26 24q0 7 -12.5 18.5
t-93.5 38.5q-84 28 -123 50.5t-58.5 53.5t-19.5 67q0 27 14 58.5t47.5 59.5t86 48t118.5 20q76 0 130 -24t73 -69v-7q0 -22 -16.5 -49.5t-36.5 -48.5q-55 53 -142 53q-42 0 -63.5 -10.5t-21.5 -23.5q0 -6 11 -15t79 -32q65 -22 101.5 -40t61 -43.5t32 -52t7.5 -45.5
q0 -43 -34 -88t-96.5 -71t-126.5 -26zM244 38q32 0 68.5 8t73.5 29.5t56 51t19 56.5q0 30 -16 53.5t-48 43.5t-110 46q-75 24 -96.5 43t-21.5 42q0 30 32 52t93 22q42 0 76 -9t62 -31q6 10 13 26.5t7 27.5q-50 56 -165 56q-33 0 -71 -8t-76.5 -30t-59 -53t-20.5 -60
q0 -36 37 -67.5t136 -64.5q83 -27 108.5 -49t25.5 -47q0 -33 -38 -50.5t-93 -17.5q-41 0 -81 11t-67 29q-6 -6 -14 -19t-8 -26q0 -16 21.5 -31.5t69 -24.5t87.5 -9z" />
    <glyph glyph-name="uni021A" unicode="&#x21a;" horiz-adv-x="673" 
d="M336 -214h-10l-24 30l14 35q-27 5 -48 20l29 106h92l29 -105zM348 -127l-18 -49l3 -5l51 61l-17 67h-47l-16 -61q15 -12 44 -13zM10 569v181h653v-181h-228v-574h-192v574h-233zM50 710v-101h233v-573h112v573h228v101h-573z" />
    <glyph glyph-name="uni021B" unicode="&#x21b;" horiz-adv-x="271" 
d="M132 -214h-10l-24 30l14 35q-27 5 -48 20l29 106h92l29 -105zM144 -127l-18 -49l3 -5l51 61l-17 67h-47l-16 -61q15 -12 44 -13zM15 413v160h46v177h150v-177h45v-160h-45v-418h-150v418h-46zM55 533v-80h46v-418h70v418h45v80h-45v177h-70v-177h-46z" />
    <glyph glyph-name="circumflex" unicode="&#x2c6;" horiz-adv-x="541" 
d="M271 691q45 -22 97 -39l-97 88l-97 -88q52 17 97 39zM271 654q-81 -37 -166 -58v35q98 102 166 159q68 -57 166 -159v-35q-85 21 -166 58z" />
    <glyph glyph-name="caron" unicode="&#x2c7;" horiz-adv-x="569" 
d="M281 695q-45 22 -97 39l97 -88l97 88q-52 -17 -97 -39zM280 732q81 37 166 58v-35q-98 -102 -166 -159q-68 57 -166 159v35q85 -21 166 -58z" />
    <glyph glyph-name="breve" unicode="&#x2d8;" horiz-adv-x="549" 
d="M288 748v27h93v-27q0 -25 -12 -55.5t-42.5 -52t-68.5 -21.5q-36 0 -67 22t-43 52t-12 55v27h94v-27q0 -13 7 -22t21 -9q14 1 22 9.5t8 21.5zM258 685q-24 0 -39 17t-16 43h-31q1 -39 26 -65.5t60 -26.5q17 0 37.5 8.5t35.5 31.5t16 52h-31q-1 -27 -16 -43t-42 -17z" />
    <glyph glyph-name="dotaccent" unicode="&#x2d9;" horiz-adv-x="242" 
d="M54 614l-27 138q17 9 39 14.5t40 5.5q34 0 80 -20l-28 -138h-104zM69 730l15 -81h42l19 80q-22 8 -38 8q-20 0 -38 -7z" />
    <glyph glyph-name="ring" unicode="&#x2da;" horiz-adv-x="461" 
d="M213 706q0 -11 6 -19t17 -8q11 1 17.5 8.5t6.5 18.5q0 12 -7 20t-17 8t-16.5 -8t-6.5 -20zM190 706q0 22 13 37.5t33 15.5q21 -1 34 -16t13 -37q0 -23 -12.5 -37.5t-35.5 -15.5q-20 0 -32.5 15.5t-12.5 37.5zM136 705q0 20 10 45t35 43t55 18q19 0 42.5 -10.5t40.5 -37
t17 -58.5q0 -21 -10 -46t-35 -42.5t-55 -17.5q-19 0 -42.5 10.5t-40.5 37t-17 58.5zM165 705q0 -32 21 -55t50 -23q30 0 51 23t21 55q0 31 -21 54t-51 23q-29 0 -50 -23t-21 -54z" />
    <glyph glyph-name="ogonek" unicode="&#x2db;" horiz-adv-x="344" 
d="M215 18v-17q-21 -13 -35.5 -36t-14.5 -50q0 -21 11.5 -36t31.5 -15q14 0 26 5.5t25 22.5l17 -30q-28 -69 -101 -69q-25 0 -52 11t-44.5 38.5t-17.5 60.5q0 22 8.5 45t30 42.5t41.5 27.5h74zM179 -185q23 0 43.5 12t28.5 31q-22 -19 -50 -19t-46.5 22t-18.5 53
q0 24 13.5 47.5t30.5 38.5h-29q-23 -11 -41.5 -37t-18.5 -60q0 -17 8 -37.5t29.5 -35.5t50.5 -15z" />
    <glyph glyph-name="tilde" unicode="&#x2dc;" horiz-adv-x="634" 
d="M96 626q7 47 31.5 83t54 50.5t62.5 14.5q32 0 76 -17t73 -17q30 0 58 8.5t43 19.5q-3 -21 -14 -50t-30 -51t-45 -35t-59 -13q-32 0 -76 17.5t-73 17.5q-30 0 -58 -8.5t-43 -19.5zM151 679q9 7 26 12t37 5q25 0 64 -16.5t66 -16.5q34 0 59.5 16.5t35.5 36.5
q-25 -15 -59 -15q-24 0 -65 17t-68 17q-34 0 -60 -17t-36 -39z" />
    <glyph glyph-name="hungarumlaut" unicode="&#x2dd;" horiz-adv-x="494" 
d="M286 663q17 8 37 24.5t29 30.5t9 23q0 6 -4.5 11.5t-11.5 5.5q-14 0 -27.5 -14t-22.5 -39.5t-9 -41.5zM287 621h-40q0 19 6.5 52.5t21 62.5t34.5 42.5t42 13.5q19 0 33 -13t14 -34q0 -26 -29 -60.5t-82 -63.5zM150 663q22 11 44.5 37.5t22.5 44.5q0 6 -4.5 11.5
t-11.5 5.5q-20 0 -34.5 -26.5t-16.5 -72.5zM151 621h-40q1 45 11 89t33 65t52 21q19 0 33 -13t14 -34q0 -30 -30 -67t-73 -61z" />
    <glyph glyph-name="endash" unicode="&#x2013;" horiz-adv-x="693" 
d="M30 304v137h633v-137h-633zM70 401v-57h553v57h-553z" />
    <glyph glyph-name="emdash" unicode="&#x2014;" horiz-adv-x="826" 
d="M30 304v137h766v-137h-766zM70 401v-57h686v57h-686z" />
    <glyph glyph-name="quoteleft" unicode="&#x2018;" horiz-adv-x="253" 
d="M169 475h-9l-103 112l-37 164q25 12 54.5 19t51.5 7q24 0 53.5 -7.5t53.5 -18.5l-38 -166h-44l33 -67zM137 545l4 9l-30 64h56l21 111q-29 11 -62 11q-27 0 -62 -11l21 -111z" />
    <glyph glyph-name="quoteright" unicode="&#x2019;" horiz-adv-x="253" 
d="M112 554l4 -9l52 73l21 111q-35 11 -62 11q-33 0 -62 -11l21 -111h56zM93 475h-9l-15 43l33 67h-44l-38 166q24 11 53.5 18.5t53.5 7.5q22 0 51.5 -7t54.5 -19l-37 -164z" />
    <glyph glyph-name="quotesinglbase" unicode="&#x201a;" horiz-adv-x="264" 
d="M239 10l-147 -142h-9l-15 43l31 74q-41 5 -74 25l41 168h136zM140 18l-30 -77l3 -7l79 95l-24 111h-71l-26 -110q28 -11 69 -12z" />
    <glyph glyph-name="quotedblleft" unicode="&#x201c;" horiz-adv-x="483" 
d="M169 475h-9l-103 112l-37 164q25 12 54.5 19t51.5 7q24 0 53.5 -7.5t53.5 -18.5l-38 -166h-44l33 -67zM137 545l4 9l-30 64h56l21 111q-29 11 -62 11q-27 0 -62 -11l21 -111zM400 475h-9l-103 112l-37 164q25 12 54.5 19t51.5 7q24 0 53.5 -7.5t53.5 -18.5l-38 -166h-44
l33 -67zM368 545l4 9l-30 64h56l21 111q-29 11 -62 11q-27 0 -62 -11l21 -111z" />
    <glyph glyph-name="quotedblright" unicode="&#x201d;" horiz-adv-x="483" 
d="M324 475h-9l-15 43l34 67h-45l-38 166q24 11 53.5 18.5t53.5 7.5q22 0 51.5 -7t54.5 -19l-37 -164zM343 554l4 -9l52 73l21 111q-35 11 -62 11q-33 0 -62 -11l21 -111h56zM93 475h-9l-15 43l34 67h-45l-38 166q24 11 53.5 18.5t53.5 7.5q22 0 51.5 -7t54.5 -19l-37 -164z
M112 554l4 -9l52 73l21 111q-35 11 -62 11q-33 0 -62 -11l21 -111h56z" />
    <glyph glyph-name="quotedblbase" unicode="&#x201e;" horiz-adv-x="510" 
d="M239 10l-147 -142h-9l-15 43l31 74q-41 5 -74 25l41 168h136zM140 18l-30 -77l3 -7l79 95l-24 111h-71l-26 -110q28 -11 69 -12zM485 10l-147 -142h-9l-15 43l31 74q-41 5 -74 25l41 168h136zM386 18l-30 -77l3 -7l79 95l-24 111h-71l-26 -110q28 -11 69 -12z" />
    <glyph glyph-name="dagger" unicode="&#x2020;" horiz-adv-x="518" 
d="M211 285l35 -378h24l35 378l-36 169l29 26l147 -29q10 17 10 43q0 23 -10 40l-147 -25l-29 26l29 143q-19 13 -42 13q-25 0 -42 -13l29 -143l-27 -26l-142 25q-11 -16 -11 -40q0 -26 11 -43l137 29l32 -29zM212 -133l-48 418l36 150l-149 -35q-26 51 -26 94q0 40 26 93
l149 -36l-38 152q57 25 94 25t93 -25l-37 -152l155 36q27 -53 27 -93q0 -44 -27 -94l-153 37l37 -152l-47 -418h-92z" />
    <glyph glyph-name="daggerdbl" unicode="&#x2021;" horiz-adv-x="524" 
d="M268 117l34 168l-36 169l29 26l147 -29q10 17 10 43q0 23 -10 40l-147 -25l-29 26l29 143q-19 13 -42 13q-25 0 -42 -13l29 -143l-27 -26l-142 25q-11 -16 -11 -40q0 -26 11 -43l137 29l32 -29l-32 -166l34 -168l-27 -26l-142 25q-11 -16 -11 -40q0 -26 11 -43l137 29
l32 -29l-27 -141q17 -13 42 -13q23 0 42 13l-31 144l29 26l147 -29q10 17 10 43q0 23 -10 40l-147 -25zM311 437l37 -152l-37 -152l155 36q27 -53 27 -93q0 -44 -27 -94l-153 37l37 -152q-56 -25 -93 -25t-94 25l36 150l-149 -35q-26 51 -26 94q0 40 26 93l149 -36l-38 152
l36 150l-149 -35q-26 51 -26 94q0 40 26 93l149 -36l-38 152q57 25 94 25t93 -25l-37 -152l155 36q27 -53 27 -93q0 -44 -27 -94z" />
    <glyph glyph-name="bullet" unicode="&#x2022;" horiz-adv-x="264" 
d="M66 281l-41 170q24 13 48 22t66 10q26 0 53.5 -8.5t46.5 -23.5l-37 -170h-136zM71 431l26 -110h71l24 111q-26 11 -53 11q-41 -1 -68 -12z" />
    <glyph glyph-name="ellipsis" unicode="&#x2026;" horiz-adv-x="792" 
d="M25 8l41 170h136l37 -170q-19 -15 -46.5 -23.5t-53.5 -8.5q-31 1 -56 7.5t-58 24.5zM97 138l-26 -110q27 -11 68 -12q27 0 53 11l-24 111h-71zM289 8l41 170h136l37 -170q-19 -15 -46.5 -23.5t-53.5 -8.5q-31 1 -56 7.5t-58 24.5zM361 138l-26 -110q27 -11 68 -12
q27 0 53 11l-24 111h-71zM553 8l41 170h136l37 -170q-19 -15 -46.5 -23.5t-53.5 -8.5q-31 1 -56 7.5t-58 24.5zM625 138l-26 -110q27 -11 68 -12q27 0 53 11l-24 111h-71z" />
    <glyph glyph-name="guilsinglleft" unicode="&#x2039;" horiz-adv-x="245" 
d="M56 281l128 -195q-6 29 -22.5 82.5t-43.5 112.5q19 41 38 96t28 98zM155 281q19 -50 38 -119t27 -127h-35l-170 246l170 245h35q-9 -58 -27.5 -126.5t-37.5 -118.5z" />
    <glyph glyph-name="guilsinglright" unicode="&#x203a;" horiz-adv-x="245" 
d="M61 86l128 195l-128 194q6 -29 22.5 -82t43.5 -112q-19 -41 -38 -96.5t-28 -98.5zM90 281q-19 50 -37.5 118.5t-27.5 126.5h35l170 -245l-170 -246h-35q6 40 22.5 109t42.5 137z" />
    <glyph glyph-name="fraction" unicode="&#x2044;" horiz-adv-x="490" 
d="M480 750v-38l-338 -717h-132v38l339 717h131zM374 710l-320 -675h63l320 675h-63z" />
    <glyph glyph-name="Euro" unicode="&#x20ac;" horiz-adv-x="727" 
d="M284 379v-4l1 -27h258l-30 -61h-214q21 -54 68.5 -82t109.5 -28q41 0 82 18t68 49q5 -3 17 -20.5t29.5 -56t17.5 -59.5q-1 -14 -16.5 -33.5t-45.5 -37.5t-74.5 -29.5t-100.5 -11.5q-89 0 -160.5 37t-122.5 102.5t-73 151.5h-97l30 61h56l-1 29v20h-85l29 61h65
q13 56 42 109.5t74.5 96.5t107.5 68.5t135 25.5q27 0 66 -5t80 -22t65 -41.5t26 -43.5q0 -15 -11 -43.5t-30.5 -62t-22.5 -30.5q-27 31 -68 49t-82 18q-64 0 -113.5 -30.5t-68.5 -88.5h302l-30 -61h-283v-18zM241 374v6q0 52 16.5 97t47 77t74 49.5t95.5 17.5q32 0 68.5 -9
t76.5 -41q14 19 21 36.5t7 25.5q0 15 -23 36t-65 35.5t-102 14.5q-59 0 -111 -18.5t-91 -50t-66 -72t-45 -92.5t-18 -109t18 -109t45 -92.5t66 -72t91 -50t111 -18.5q49 0 93.5 12t70.5 35.5t26 38.5q0 8 -7 25.5t-21 36.5q-32 -26 -67 -38t-78 -12q-39 0 -79.5 11.5
t-78.5 44t-56.5 83t-18.5 102.5z" />
    <glyph glyph-name="trademark" unicode="&#x2122;" horiz-adv-x="474" 
d="M219 704v-181h26v173h11l71 -166l69 168h11v-175h26v206h-53l-53 -130l-55 130h-230v-25h73v-181h30v181h74zM199 683h-33v-183h-71v183h-75v67h268l38 -93l38 93h90v-250h-68v117l-47 -117h-22l-51 117v-117h-67v183z" />
    <glyph glyph-name="minus" unicode="&#x2212;" horiz-adv-x="448" 
d="M30 302v137h388v-137h-388zM70 399v-57h308v57h-308z" />
    <glyph glyph-name="approxequal" unicode="&#x2248;" horiz-adv-x="467" 
d="M44 392q7 47 31.5 83t54 50.5t62.5 14.5q32 0 76 -17t73 -17q30 0 58 8.5t43 19.5q-3 -21 -14 -50t-30 -51t-45 -35t-59 -13q-32 0 -76 17.5t-73 17.5q-30 0 -58 -8.5t-43 -19.5zM99 445q9 7 26 12t37 5q25 0 64 -16.5t66 -16.5q34 0 59.5 16.5t35.5 36.5
q-25 -15 -59 -15q-24 0 -65 17t-68 17q-34 0 -60 -17t-36 -39zM25 222q7 47 31.5 83t54 50.5t62.5 14.5q32 0 76 -17t73 -17q30 0 58 8.5t43 19.5q-3 -21 -14 -50t-30 -51t-45 -35t-59 -13q-32 0 -76 17.5t-73 17.5q-30 0 -58 -8.5t-43 -19.5zM80 275q9 7 26 12t37 5
q25 0 64 -16.5t66 -16.5q34 0 59.5 16.5t35.5 36.5q-25 -15 -59 -15q-24 0 -65 17t-68 17q-34 0 -60 -17t-36 -39z" />
    <glyph glyph-name="glyph264" horiz-adv-x="857" 
d="M291 578v-430h51v138h107q75 0 127.5 42t52.5 105q0 39 -21.5 70.5t-62.5 53t-96 21.5h-158zM342 526h110q22 0 49 -9.5t47 -33t20 -48.5q0 -17 -11.5 -39.5t-41 -39.5t-63.5 -17h-110v187zM779 373q0 76 -29 142t-80 113.5t-116.5 73.5t-134.5 26q-68 0 -131 -26
t-111.5 -73.5t-76 -113.5t-27.5 -142t27.5 -141.5t75.5 -113t111 -73t132 -25.5t134.5 25.5t116.5 73t80 113.5t29 141zM822 373q0 -107 -51.5 -198t-146.5 -144t-205 -53q-79 0 -150.5 28.5t-125 81t-83.5 126.5t-30 159q0 86 30.5 160t84 127t125 81.5t149.5 28.5
q111 0 205.5 -53.5t146 -144.5t51.5 -199zM253 115v499h196q32 0 69 -9.5t74.5 -34.5t57 -62.5t19.5 -74.5t-17.5 -70.5t-48 -59t-70.5 -39.5t-84 -14h-70v-135h-126zM447 492h-68v-115h68q34 0 58 17t24 41q0 22 -24.5 39.5t-57.5 17.5z" />
    </font>
</defs>
</svg>
